<?xml version="1.0" encoding="UTF-8" standalone="no"?>
<!DOCTYPE svg PUBLIC "-//W3C//DTD SVG 1.1//EN" "http://www.w3.org/Graphics/SVG/1.1/DTD/svg11.dtd">
<svg width="100%" height="100%" viewBox="0 0 3450 1900" version="1.1" xmlns="http://www.w3.org/2000/svg" xmlns:xlink="http://www.w3.org/1999/xlink" xml:space="preserve" xmlns:serif="http://www.serif.com/" style="fill-rule:evenodd;clip-rule:evenodd;stroke-linecap:round;stroke-linejoin:round;stroke-miterlimit:1.41421;">
    <g transform="matrix(1,0,0,1,0,-118.739)">
        <g transform="matrix(0.54982,0,0,0.54982,281.508,1080)">
            <g transform="matrix(1,0,0,1,-512,-512)">
                <g>
                    <path d="M805.285,93.558C781.338,121.442 770.185,184.197 794.467,247.814C818.749,311.431 855.967,297.614 879.167,362.487C909.79,448.087 895.536,563.076 895.536,563.076C895.536,563.076 932.35,669.685 958.004,556.443C1014.79,343.74 805.285,145.937 805.285,93.558Z" style="fill:url(#_Radial1);fill-rule:nonzero;"/>
                    <path id="_Path_" d="M513.072,976.638C758.308,976.638 956.972,776.899 956.972,530.61C956.972,284.321 758.308,84.583 513.31,84.583C268.312,84.583 69.65,284.322 69.65,530.61C69.175,777.137 268.073,976.638 513.072,976.638Z" style="fill:url(#_Radial2);fill-rule:nonzero;"/>
                    <path d="M845.675,805.636C836.079,812.406 826.013,818.482 815.552,823.819C829.409,803.515 842.193,782.499 853.852,760.858C863.312,750.388 871.978,740.21 879.04,729.205C882.477,723.798 886.353,717.126 890.456,709.386C915.377,664.486 942.856,591.823 943.635,517.186L943.635,517.006C943.653,515.169 943.664,513.331 943.649,511.491C943.778,492.756 941.863,474.063 937.937,455.743C938.137,457.174 938.313,458.604 938.493,460.034C938.272,458.934 938.086,457.822 937.849,456.72C938.215,458.754 938.509,460.72 938.825,462.703C943.919,505.92 940.291,548.075 922.143,579.153C921.857,579.607 921.563,580.032 921.274,580.476C930.684,533.242 933.832,481.089 923.362,428.876C923.362,428.876 919.175,403.493 887.986,326.435C870.034,282.082 838.153,245.719 809.986,219.228C785.296,188.682 762.872,168.183 750.511,155.168C724.69,127.979 713.868,107.599 709.424,94.301C705.571,92.369 656.289,44.494 652.374,42.67C630.863,76.022 563.212,180.345 595.393,277.816C609.977,321.988 646.86,367.833 685.46,393.552C687.155,395.488 708.429,418.594 718.546,470.709C728.992,524.551 723.5,566.564 702,628.692C676.714,683.197 611.933,737.08 551.276,742.592C421.6,754.373 374.127,677.484 374.127,677.484C420.463,696.009 471.695,692.134 502.851,672.928C534.251,653.503 553.245,639.101 568.661,644.78C583.861,650.433 595.961,634.024 585.103,617.013C567.995,590.663 536.647,577.013 505.703,582.44C474.27,587.549 445.477,612.449 404.291,588.334C401.625,586.787 399.045,585.097 396.562,583.272C393.847,581.487 405.388,585.989 402.695,583.96C394.68,579.606 380.495,570.118 376.815,566.743C376.202,566.181 383.034,568.922 382.421,568.359C343.911,536.647 348.721,515.225 349.931,501.789C350.9,491.04 357.895,477.266 369.682,471.679C375.375,474.786 378.922,477.158 378.922,477.158C378.922,477.158 376.494,472.197 375.181,469.582C375.641,469.382 376.081,469.435 376.539,469.24C381.203,471.491 391.516,477.34 396.946,480.907C404.018,485.895 406.272,490.343 406.272,490.343C406.272,490.343 408.134,489.318 406.757,484.968C406.257,483.184 404.11,477.515 397.105,471.794L397.543,471.843C401.736,474.232 405.707,476.99 409.41,480.084C411.385,472.903 414.937,465.405 414.156,451.992C413.679,442.561 413.899,440.119 412.237,436.477C410.749,433.349 413.071,432.129 415.655,435.377C415.213,432.832 414.472,430.348 413.447,427.977L413.469,427.733C416.694,416.497 481.717,387.272 486.45,383.856C494.226,378.354 500.747,371.264 505.582,363.056C509.199,357.293 511.919,349.208 512.582,336.944C512.937,328.1 508.823,322.21 443.075,315.326C425.094,313.555 414.544,300.526 408.549,288.503C407.455,285.913 406.34,283.566 405.224,281.221C404.159,278.48 403.304,275.661 402.666,272.79C413.415,241.917 431.476,215.813 458.033,196.09C459.48,194.772 452.251,196.428 453.697,195.11C455.384,193.572 466.403,189.133 468.484,188.133C471.026,186.933 457.602,181.233 445.752,182.621C433.683,183.981 431.12,185.421 424.679,188.152C427.352,185.491 435.852,182.003 433.859,182.026C420.848,184.021 404.68,191.584 390.859,200.15C390.832,198.658 391.116,197.177 391.694,195.802C385.253,198.534 369.434,209.59 364.829,218.944C365.027,217.151 365.116,215.348 365.095,213.544C360.188,217.636 355.762,222.272 351.9,227.362L351.659,227.581C314.301,212.531 281.426,211.557 253.606,218.305C247.52,212.193 244.547,216.661 230.699,186.236C229.758,184.404 231.421,188.045 230.699,186.236C228.421,180.336 232.088,194.108 230.699,186.236C207.415,204.608 176.779,225.429 162.073,240.126C161.891,240.712 179.229,235.226 162.073,240.126C156.065,241.842 156.473,245.407 155.56,277.626C155.34,280.069 155.535,282.805 155.337,285.004C143.589,299.972 135.588,312.647 132.562,319.215C117.369,345.395 100.636,386.207 84.416,450.766C91.57,433.267 100.196,416.406 110.2,400.365C96.712,434.632 83.673,488.443 81.066,571.31C84.329,554.21 88.513,537.299 93.599,520.65C90.415,589.397 102.271,658.018 128.339,721.711C137.668,744.532 153.099,779.166 179.368,817.111C261.901,903.95 378.313,958.011 507.22,958.011C641.792,958.012 762.635,899.133 845.675,805.636Z" style="fill:url(#_Linear3);fill-rule:nonzero;"/>
                    <path d="M746.1,868.708C908.97,849.848 981.069,682.008 888.481,678.708C804.848,676.035 668.954,877.608 746.1,868.708Z" style="fill:url(#_Radial4);fill-rule:nonzero;"/>
                    <path d="M900.207,644.424C1012.26,579.21 983.046,438.344 983.046,438.344C983.046,438.344 939.8,488.582 910.421,568.664C881.4,647.963 832.837,683.812 900.207,644.424Z" style="fill:url(#_Radial5);fill-rule:nonzero;"/>
                    <path d="M544.474,952.062C700.701,1001.91 834.974,878.842 752.207,837.742C676.956,800.676 470.324,928.49 544.474,952.062Z" style="fill:url(#_Radial6);fill-rule:nonzero;"/>
                    <path d="M911.849,704.234C915.649,698.871 920.789,681.699 925.329,674.023C952.911,629.5 953.106,594 953.106,593.187C969.765,509.968 968.254,475.987 958.006,413.144C949.755,362.544 913.684,290.052 882.436,255.144C850.236,219.179 872.922,230.897 841.744,204.626C814.417,174.333 787.921,144.335 773.491,132.271C669.215,45.094 671.571,26.577 673.579,23.42C673.24,23.791 672.742,24.342 672.107,25.063C670.872,20.14 670,16 670,16C670,16 613,73 601,168C593.166,230.021 616.383,294.676 650,336C667.505,357.416 687.288,376.863 709,394L709,393.974C734.4,430.451 748.38,475.463 748.38,523.883C748.38,645.127 650.039,743.414 528.728,743.414C512.195,743.423 495.713,741.571 479.594,737.895C422.358,726.987 389.306,698.114 372.822,678.513C363.375,667.279 359.358,659.09 359.358,659.09C410.641,677.461 467.344,673.618 501.826,654.572C536.575,635.307 557.6,621.026 574.663,626.657C591.483,632.263 604.874,615.99 592.863,599.121C581.092,582.276 550.463,558.151 504.985,564.835C470.196,569.902 438.328,594.595 392.745,570.68C389.809,569.155 386.954,567.479 384.191,565.66C381.186,563.889 393.959,568.355 390.978,566.342C382.108,562.024 366.405,552.614 362.335,549.268C361.656,548.711 369.218,551.429 368.535,550.868C325.914,519.419 331.235,498.175 332.576,484.85C333.649,474.19 341.39,460.53 354.435,454.99C360.735,458.071 364.661,460.423 364.661,460.423C364.661,460.423 361.973,455.503 360.52,452.91C361.029,452.716 361.514,452.765 362.02,452.571C367.182,454.803 378.596,460.6 384.606,464.141C392.433,469.088 394.928,473.499 394.928,473.499C394.928,473.499 396.989,472.483 395.464,468.169C394.907,466.4 392.535,460.778 384.782,455.104L385.267,455.153C389.869,457.499 394.263,460.233 398.401,463.326C400.587,456.205 404.519,448.769 403.654,435.467C403.126,426.115 403.37,423.692 401.53,420.081C399.883,416.981 402.454,415.769 405.312,418.993C404.817,416.45 403.996,413.982 402.868,411.65L402.893,411.408C406.463,400.265 478.428,371.283 483.666,367.895C492.106,362.597 499.325,355.564 504.841,347.265C508.841,341.55 511.855,333.532 512.589,321.37C512.835,315.89 511.148,311.553 492.089,307.405C480.65,304.915 462.953,302.492 435.656,299.931C415.756,298.175 404.079,285.255 397.444,273.331C396.233,270.762 394.999,268.431 393.764,266.109C392.59,263.406 391.643,260.609 390.933,257.749C402.839,226.58 424.291,199.953 452.212,181.686C453.812,180.378 445.812,182.021 447.412,180.714C449.28,179.189 461.475,174.787 463.779,173.795C466.592,172.609 451.735,166.955 438.62,168.329C425.263,169.678 422.426,171.105 415.297,173.815C418.256,171.176 427.663,167.715 425.458,167.74C411.058,169.718 393.158,177.219 377.858,185.713C377.83,184.224 378.146,182.748 378.782,181.401C371.653,184.11 354.145,195.075 349.048,204.351C349.267,202.575 349.365,200.786 349.342,198.997C343.974,202.998 339.076,207.594 334.742,212.697L334.475,212.915C293.128,197.99 256.743,197.024 225.953,203.715C219.217,197.654 208.387,188.489 193.061,158.315C192.02,156.498 191.461,162.07 190.661,160.276C184.706,146.463 181.108,123.832 181.699,108.23C181.699,108.23 169.381,113.844 159.186,137.29C157.293,141.505 156.079,143.83 154.866,146.155C154.308,146.833 156.131,138.455 155.84,138.911C154.068,141.911 149.484,146.103 147.469,151.529C146.085,155.55 144.144,157.802 142.905,162.817L142.614,163.277C142.514,161.799 142.981,157.196 142.641,158.14C137.862,167.795 133.75,177.765 130.333,187.981C124.844,206.027 118.454,230.591 117.441,262.546C117.197,264.969 117.414,267.682 117.194,269.863C104.194,284.707 95.336,297.276 91.987,303.791C75.18,329.762 56.66,370.236 38.707,434.259C46.694,416.77 56.246,400.039 67.245,384.27C52.316,418.253 37.885,471.618 35,553.8C38.624,536.793 43.256,520.017 48.872,503.56C46.294,558.36 52.677,626.3 87.321,702.953C107.891,748.04 155.242,839.602 270.941,911.053L270.931,911.06C270.931,911.06 310.291,940.36 377.948,962.319C382.948,964.133 388.013,965.919 393.182,967.652C391.56,966.997 389.991,966.308 388.467,965.6C433.5,979.093 480.256,985.965 527.267,986C702.447,986.149 754.113,915.8 754.113,915.8C754.113,915.8 753.931,915.937 753.6,916.177C756.072,913.85 758.453,911.431 760.743,908.92C733.104,935.02 670.028,936.752 646.443,934.869C686.666,923.056 713.134,913.063 764.618,893.35C770.643,891.117 776.803,888.57 783.1,885.71C783.781,885.41 784.468,885.085 785.152,884.774C786.401,884.192 787.638,883.642 788.899,883.03C813.983,871.209 837.57,856.443 859.161,839.043C910.861,797.743 922.11,757.486 927.99,730.943C927.17,733.487 924.615,739.418 922.82,743.259C909.505,771.741 879.979,789.218 847.912,804.207C863.171,784.186 877.322,763.343 890.3,741.773C900.767,731.39 904.033,715.148 911.849,704.234Z" style="fill:url(#_Radial7);fill-rule:nonzero;"/>
                    <path d="M848.921,802.982C870.001,779.741 888.931,753.158 903.27,723.014C940.17,645.432 997.222,516.434 952.288,381.708C916.775,275.225 868.016,217 806.107,160.122C705.563,67.756 677.482,26.521 677.482,2C677.482,2 561.393,131.409 611.74,266.381C662.087,401.353 765.2,396.405 833.419,537.255C913.694,703 768.47,883.869 648.375,934.493C655.728,932.86 915.345,874.11 928.989,725.611C928.68,728.342 922.83,769.414 848.921,802.982Z" style="fill:url(#_Radial8);fill-rule:nonzero;"/>
                    <path d="M512.592,321.373C512.985,312.603 508.436,306.713 435.91,299.91C406.071,297.155 394.645,269.576 391.162,257.969C380.552,285.534 376.171,314.459 378.526,349.446C380.136,372.366 395.535,396.967 402.896,411.411C402.896,411.411 404.532,409.285 405.287,408.499C419.148,394.068 477.223,372.08 482.679,368.958C488.693,365.159 511.582,348.435 512.592,321.373Z" style="fill:url(#_Linear9);fill-rule:nonzero;"/>
                    <path d="M193.314,158.471C192.273,156.653 191.714,162.225 190.914,160.432C184.959,146.619 181.336,124.232 182.194,108.41C182.194,108.41 169.876,114.024 159.681,137.47C157.788,141.685 156.574,144.01 155.361,146.335C154.803,147.013 156.626,138.635 156.335,139.091C154.564,142.091 149.98,146.283 147.989,151.466C146.338,155.705 144.64,157.981 143.376,163.238C142.987,164.667 143.768,156.915 143.428,157.859C119.717,203.684 115.191,272.973 117.69,270.043C168.168,216.143 226.015,203.36 226.015,203.36C219.86,198.826 206.487,185.735 193.315,158.471L193.314,158.471Z" style="fill:url(#_Linear10);fill-rule:nonzero;"/>
                    <path d="M384.844,722.1C315.12,692.331 235.852,650.345 238.844,554.962C242.919,429.343 355.989,454.171 355.989,454.171C351.722,455.21 340.314,463.333 336.271,471.991C331.998,482.818 324.202,507.267 347.822,532.891C384.911,573.083 271.622,628.247 446.485,732.458C450.895,734.858 405.494,731.028 384.846,722.1L384.844,722.1Z" style="fill:url(#_Linear11);fill-rule:nonzero;"/>
                    <path d="M360.074,659.5C409.516,676.707 467.114,673.689 501.597,654.642C524.682,641.791 554.297,621.208 572.519,626.289C556.742,620.053 544.793,617.139 530.419,616.427C527.971,616.427 525.037,616.375 522.371,616.107C517.106,616.09 511.845,616.378 506.614,616.97C497.714,617.788 487.848,623.403 478.879,622.502C478.394,622.453 487.579,618.728 486.832,618.897C482.08,619.888 476.917,620.102 471.462,620.778C467.995,621.164 465.013,621.598 461.571,621.741C358.589,630.474 271.554,565.928 271.554,565.928C264.146,590.878 304.72,640.228 360.075,659.5L360.074,659.5Z" style="fill:url(#_Linear12);fill-rule:nonzero;"/>
                    <path d="M848.738,803.646C952.9,701.376 1005.6,577.061 983.321,437.627C983.321,437.627 992.221,509.127 958.473,582.255C974.686,510.862 976.573,422.141 933.498,330.267C876.005,207.636 781.45,143.109 745.351,116.189C690.656,75.4 667.983,33.87 667.574,25.3C651.235,58.777 601.808,173.5 662.264,272.3C718.904,364.864 808.129,392.339 870.592,477.247C985.667,633.667 848.738,803.646 848.738,803.646Z" style="fill:url(#_Linear13);fill-rule:nonzero;"/>
                    <path d="M833.814,537.551C797.412,462.35 751.978,429.55 709,394C714,401 715.232,403.473 718,408C755.827,448.316 811.607,546.656 771.11,670.107C694.881,902.482 389.967,793.057 358,762.319C370.932,896.808 596.036,961.164 742.6,873.949C826,795 893.468,660.788 833.814,537.551Z" style="fill:url(#_Linear14);fill-rule:nonzero;"/>
                </g>
            </g>
        </g>
        <g>
            <g transform="matrix(2.71534,0,0,2.84781,856.574,490.695)">
                <g transform="matrix(1,0,0,1,-150,-150)">
                    <g transform="matrix(1.48258,0,0,1.54388,-162.61,-436.075)">
                        <g id="Layer1">
                            <path d="M210.855,302.652C262.958,302.652 305.259,333.952 305.259,372.504C305.259,411.056 262.958,442.356 210.855,442.356C201.496,442.356 192.453,441.346 183.915,439.465C181.009,438.825 141.873,456.573 141.873,456.573C141.873,456.573 169.575,435.375 166.793,434.285C136.863,422.564 116.452,399.284 116.452,372.504C116.452,333.952 158.752,302.652 210.855,302.652Z" style="fill:white;stroke:black;stroke-width:3.6px;"/>
                        </g>
                    </g>
                </g>
            </g>
            <g transform="matrix(7.0339,0,0,7.0339,-3939.08,-2984.11)">
                <path d="M648.645,482.113L650.262,482.113L651.164,485.799C651.254,486.127 651.326,486.586 651.381,487.176L651.416,487.176C651.42,487.082 651.438,486.915 651.469,486.675C651.5,486.435 651.525,486.246 651.545,486.109C651.564,485.973 651.834,484.641 652.354,482.113L653.994,482.113L652.125,489.109C651.898,489.969 651.598,490.586 651.223,490.961C650.848,491.336 650.348,491.523 649.723,491.523C649.414,491.523 649.139,491.49 648.896,491.424L648.896,490.117C649.057,490.164 649.236,490.187 649.436,490.187C649.959,490.187 650.303,489.844 650.467,489.156L650.578,488.746L648.645,482.113Z" style="fill-rule:nonzero;"/>
                <path d="M659.49,485.365C659.49,486.436 659.264,487.269 658.811,487.864C658.357,488.46 657.736,488.758 656.947,488.758C656.447,488.758 656.006,488.621 655.623,488.348C655.24,488.074 654.945,487.681 654.738,487.167C654.531,486.653 654.428,486.053 654.428,485.365C654.428,484.307 654.652,483.479 655.102,482.884C655.551,482.288 656.174,481.99 656.971,481.99C657.74,481.99 658.353,482.294 658.808,482.901C659.263,483.509 659.49,484.33 659.49,485.365ZM656.021,485.365C656.021,486.045 656.096,486.559 656.244,486.906C656.393,487.254 656.631,487.428 656.959,487.428C657.584,487.428 657.896,486.74 657.896,485.365C657.896,484.682 657.821,484.171 657.671,483.833C657.521,483.495 657.283,483.326 656.959,483.326C656.631,483.326 656.393,483.495 656.244,483.833C656.096,484.171 656.021,484.682 656.021,485.365Z" style="fill-rule:nonzero;"/>
                <path d="M662.443,487.381C662.24,488.17 661.896,489.105 661.412,490.187L660.223,490.187C660.477,489.148 660.674,488.168 660.814,487.246L662.361,487.246L662.443,487.381Z" style="fill-rule:nonzero;"/>
                <path d="M668.947,488.758C668.17,488.758 667.578,488.475 667.172,487.908C666.766,487.342 666.563,486.51 666.563,485.412C666.563,484.264 666.755,483.406 667.14,482.84C667.524,482.273 668.119,481.99 668.924,481.99C669.166,481.99 669.42,482.025 669.686,482.096C669.951,482.166 670.189,482.268 670.4,482.4L669.955,483.613C669.631,483.422 669.344,483.326 669.094,483.326C668.762,483.326 668.522,483.499 668.376,483.845C668.229,484.19 668.156,484.709 668.156,485.4C668.156,486.076 668.229,486.581 668.373,486.915C668.518,487.249 668.754,487.416 669.082,487.416C669.473,487.416 669.881,487.279 670.307,487.006L670.307,488.377C669.896,488.631 669.443,488.758 668.947,488.758Z" style="fill-rule:nonzero;"/>
                <path d="M674.443,488.641L674.133,487.75L674.098,487.75C673.867,488.133 673.629,488.396 673.383,488.541C673.137,488.686 672.826,488.758 672.451,488.758C671.971,488.758 671.593,488.578 671.317,488.219C671.042,487.859 670.904,487.359 670.904,486.719C670.904,486.031 671.093,485.521 671.47,485.187C671.847,484.853 672.41,484.668 673.16,484.633L674.027,484.598L674.027,484.129C674.027,483.52 673.764,483.215 673.236,483.215C672.846,483.215 672.396,483.367 671.889,483.672L671.35,482.594C671.998,482.184 672.703,481.979 673.465,481.979C674.156,481.979 674.683,482.177 675.044,482.573C675.405,482.97 675.586,483.531 675.586,484.258L675.586,488.641L674.443,488.641ZM673.09,487.539C673.375,487.539 673.603,487.411 673.772,487.155C673.942,486.899 674.027,486.559 674.027,486.133L674.027,485.582L673.547,485.605C673.191,485.625 672.931,485.727 672.765,485.91C672.599,486.094 672.516,486.367 672.516,486.73C672.516,487.27 672.707,487.539 673.09,487.539Z" style="fill-rule:nonzero;"/>
                <path d="M680.098,488.641L680.098,484.75C680.098,484.277 680.041,483.92 679.928,483.678C679.814,483.436 679.631,483.314 679.377,483.314C679.041,483.314 678.795,483.481 678.639,483.815C678.482,484.149 678.404,484.713 678.404,485.506L678.404,488.641L676.846,488.641L676.846,482.113L678.082,482.113L678.27,482.951L678.369,482.951C678.51,482.65 678.711,482.415 678.973,482.245C679.234,482.075 679.541,481.99 679.893,481.99C680.486,481.99 680.931,482.193 681.226,482.6C681.521,483.006 681.668,483.6 681.668,484.381L681.668,488.641L680.098,488.641Z" style="fill-rule:nonzero;"/>
                <rect x="686.273" y="480.074" width="1.5" height="8.566" style="fill-rule:nonzero;"/>
                <path d="M695.707,488.641L695.707,484.75C695.707,483.793 695.467,483.314 694.986,483.314C694.627,483.314 694.375,483.503 694.23,483.88C694.086,484.257 694.014,484.799 694.014,485.506L694.014,488.641L692.455,488.641L692.455,479.523L694.014,479.523L694.014,481.551C694.014,481.812 693.99,482.279 693.943,482.951L694.025,482.951C694.338,482.311 694.818,481.99 695.467,481.99C696.064,481.99 696.516,482.192 696.82,482.597C697.125,483.001 697.277,483.596 697.277,484.381L697.277,488.641L695.707,488.641Z" style="fill-rule:nonzero;"/>
                <path d="M701.736,488.641L701.426,487.75L701.391,487.75C701.16,488.133 700.922,488.396 700.676,488.541C700.43,488.686 700.119,488.758 699.744,488.758C699.264,488.758 698.886,488.578 698.61,488.219C698.335,487.859 698.197,487.359 698.197,486.719C698.197,486.031 698.386,485.521 698.763,485.187C699.14,484.853 699.703,484.668 700.453,484.633L701.32,484.598L701.32,484.129C701.32,483.52 701.057,483.215 700.529,483.215C700.139,483.215 699.689,483.367 699.182,483.672L698.643,482.594C699.291,482.184 699.996,481.979 700.758,481.979C701.449,481.979 701.976,482.177 702.337,482.573C702.698,482.97 702.879,483.531 702.879,484.258L702.879,488.641L701.736,488.641ZM700.383,487.539C700.668,487.539 700.896,487.411 701.065,487.155C701.235,486.899 701.32,486.559 701.32,486.133L701.32,485.582L700.84,485.605C700.484,485.625 700.224,485.727 700.058,485.91C699.892,486.094 699.809,486.367 699.809,486.73C699.809,487.27 700,487.539 700.383,487.539Z" style="fill-rule:nonzero;"/>
                <path d="M705.182,488.641L703.477,482.113L705.094,482.113L705.926,485.893C705.961,486.068 706.003,486.325 706.052,486.663C706.101,487.001 706.131,487.244 706.143,487.393L706.166,487.393C706.17,487.275 706.187,487.107 706.216,486.889C706.245,486.67 706.275,486.469 706.307,486.285C706.338,486.102 706.639,484.711 707.209,482.113L708.826,482.113L707.115,488.641L705.182,488.641Z" style="fill-rule:nonzero;"/>
                <path d="M711.896,488.758C711.08,488.758 710.437,488.468 709.966,487.888C709.495,487.308 709.26,486.486 709.26,485.424C709.26,484.346 709.473,483.504 709.898,482.898C710.324,482.293 710.918,481.99 711.68,481.99C712.391,481.99 712.951,482.249 713.361,482.767C713.771,483.284 713.977,484.01 713.977,484.943L713.977,485.775L710.842,485.775C710.854,486.357 710.973,486.79 711.199,487.073C711.426,487.356 711.738,487.498 712.137,487.498C712.645,487.498 713.164,487.34 713.695,487.023L713.695,488.307C713.195,488.607 712.596,488.758 711.896,488.758ZM711.668,483.191C711.445,483.191 711.262,483.31 711.117,483.546C710.973,483.782 710.889,484.148 710.865,484.645L712.447,484.645C712.439,484.168 712.367,483.807 712.23,483.561C712.094,483.314 711.906,483.191 711.668,483.191Z" style="fill-rule:nonzero;"/>
                <path d="M640.453,500.641L640.453,496.75C640.453,495.793 640.213,495.314 639.732,495.314C639.373,495.314 639.121,495.503 638.977,495.88C638.832,496.257 638.76,496.799 638.76,497.506L638.76,500.641L637.201,500.641L637.201,491.523L638.76,491.523L638.76,493.551C638.76,493.812 638.736,494.279 638.689,494.951L638.771,494.951C639.084,494.311 639.564,493.99 640.213,493.99C640.811,493.99 641.262,494.192 641.566,494.597C641.871,495.001 642.023,495.596 642.023,496.381L642.023,500.641L640.453,500.641Z" style="fill-rule:nonzero;"/>
                <path d="M645.551,499.439C645.77,499.439 646.006,499.385 646.26,499.275L646.26,500.494C646.006,500.67 645.625,500.758 645.117,500.758C644.551,500.758 644.131,500.589 643.857,500.251C643.584,499.913 643.447,499.406 643.447,498.73L643.447,495.35L642.814,495.35L642.814,494.652L643.629,494.09L644.027,492.707L645.023,492.707L645.023,494.113L646.207,494.113L646.207,495.35L645.023,495.35L645.023,498.783C645.023,499.221 645.199,499.439 645.551,499.439Z" style="fill-rule:nonzero;"/>
                <path d="M649.441,499.439C649.66,499.439 649.896,499.385 650.15,499.275L650.15,500.494C649.896,500.67 649.516,500.758 649.008,500.758C648.441,500.758 648.021,500.589 647.748,500.251C647.475,499.913 647.338,499.406 647.338,498.73L647.338,495.35L646.705,495.35L646.705,494.652L647.52,494.09L647.918,492.707L648.914,492.707L648.914,494.113L650.098,494.113L650.098,495.35L648.914,495.35L648.914,498.783C648.914,499.221 649.09,499.439 649.441,499.439Z" style="fill-rule:nonzero;"/>
                <path d="M653.977,500.758C653.695,500.758 653.446,500.694 653.229,500.567C653.013,500.44 652.811,500.217 652.623,499.896L652.541,499.896C652.604,500.428 652.635,500.748 652.635,500.857L652.635,503.523L651.064,503.523L651.064,494.113L652.271,494.113L652.541,494.963L652.611,494.963C652.936,494.314 653.406,493.99 654.023,493.99C654.617,493.99 655.082,494.284 655.418,494.872C655.754,495.46 655.922,496.291 655.922,497.365C655.922,498.424 655.748,499.254 655.4,499.855C655.053,500.457 654.578,500.758 653.977,500.758ZM653.496,495.314C653.191,495.314 652.972,495.456 652.837,495.739C652.702,496.022 652.631,496.492 652.623,497.148L652.623,497.354C652.623,498.072 652.691,498.596 652.828,498.924C652.965,499.252 653.191,499.416 653.508,499.416C654.055,499.416 654.328,498.725 654.328,497.342C654.328,496.662 654.261,496.154 654.126,495.818C653.991,495.482 653.781,495.314 653.496,495.314Z" style="fill-rule:nonzero;"/>
                <path d="M657.006,499.838C657.006,499.533 657.087,499.297 657.249,499.129C657.411,498.961 657.652,498.877 657.973,498.877C658.293,498.877 658.535,498.96 658.699,499.126C658.863,499.292 658.945,499.529 658.945,499.838C658.945,500.143 658.86,500.379 658.69,500.547C658.521,500.715 658.281,500.799 657.973,500.799C657.656,500.799 657.416,500.714 657.252,500.544C657.088,500.374 657.006,500.139 657.006,499.838ZM657.006,494.939C657.006,494.635 657.087,494.398 657.249,494.23C657.411,494.062 657.652,493.979 657.973,493.979C658.293,493.979 658.535,494.062 658.699,494.228C658.863,494.394 658.945,494.631 658.945,494.939C658.945,495.244 658.86,495.48 658.69,495.648C658.521,495.816 658.281,495.9 657.973,495.9C657.656,495.9 657.416,495.815 657.252,495.646C657.088,495.476 657.006,495.24 657.006,494.939Z" style="fill-rule:nonzero;"/>
                <path d="M664.383,492.074L661.189,500.641L659.689,500.641L662.883,492.074L664.383,492.074Z" style="fill-rule:nonzero;"/>
                <path d="M669.24,492.074L666.047,500.641L664.547,500.641L667.74,492.074L669.24,492.074Z" style="fill-rule:nonzero;"/>
                <path d="M672.92,493.99C673.514,493.99 673.98,494.285 674.32,494.875C674.66,495.465 674.83,496.295 674.83,497.365C674.83,498.447 674.659,499.283 674.317,499.873C673.976,500.463 673.502,500.758 672.896,500.758C672.604,500.758 672.345,500.694 672.12,500.567C671.896,500.44 671.684,500.217 671.484,499.896L671.385,499.896L671.121,500.641L669.973,500.641L669.973,491.523L671.531,491.523L671.531,493.656C671.531,493.746 671.529,493.84 671.525,493.937C671.521,494.035 671.496,494.377 671.449,494.963L671.531,494.963C671.723,494.604 671.93,494.352 672.152,494.207C672.375,494.062 672.631,493.99 672.92,493.99ZM672.381,495.314C672.084,495.314 671.87,495.453 671.739,495.73C671.608,496.008 671.539,496.496 671.531,497.195L671.531,497.354C671.531,498.111 671.599,498.645 671.733,498.953C671.868,499.262 672.088,499.416 672.393,499.416C672.955,499.416 673.236,498.725 673.236,497.342C673.236,495.99 672.951,495.314 672.381,495.314Z" style="fill-rule:nonzero;"/>
                <path d="M679.125,500.641L678.814,499.75L678.779,499.75C678.549,500.133 678.311,500.396 678.064,500.541C677.818,500.686 677.508,500.758 677.133,500.758C676.652,500.758 676.274,500.578 675.999,500.219C675.724,499.859 675.586,499.359 675.586,498.719C675.586,498.031 675.774,497.521 676.151,497.187C676.528,496.853 677.092,496.668 677.842,496.633L678.709,496.598L678.709,496.129C678.709,495.52 678.445,495.215 677.918,495.215C677.527,495.215 677.078,495.367 676.57,495.672L676.031,494.594C676.68,494.184 677.385,493.979 678.146,493.979C678.838,493.979 679.364,494.177 679.726,494.573C680.087,494.97 680.268,495.531 680.268,496.258L680.268,500.641L679.125,500.641ZM677.771,499.539C678.057,499.539 678.284,499.411 678.454,499.155C678.624,498.899 678.709,498.559 678.709,498.133L678.709,497.582L678.229,497.605C677.873,497.625 677.612,497.727 677.446,497.91C677.28,498.094 677.197,498.367 677.197,498.73C677.197,499.27 677.389,499.539 677.771,499.539Z" style="fill-rule:nonzero;"/>
                <path d="M683.244,500.758C682.643,500.758 682.168,500.461 681.82,499.867C681.473,499.273 681.299,498.447 681.299,497.389C681.299,496.326 681.469,495.494 681.809,494.893C682.148,494.291 682.617,493.99 683.215,493.99C683.512,493.99 683.769,494.063 683.985,494.21C684.202,494.356 684.402,494.604 684.586,494.951L684.68,494.951C684.633,494.357 684.609,493.941 684.609,493.703L684.609,491.523L686.168,491.523L686.168,500.641L685.008,500.641L684.744,499.791L684.691,499.791C684.359,500.436 683.877,500.758 683.244,500.758ZM683.748,499.439C684.037,499.439 684.248,499.308 684.381,499.044C684.514,498.78 684.586,498.301 684.598,497.605L684.598,497.4C684.598,496.643 684.53,496.109 684.396,495.801C684.261,495.492 684.039,495.338 683.73,495.338C683.441,495.338 683.231,495.515 683.101,495.868C682.97,496.222 682.904,496.736 682.904,497.412C682.904,498.088 682.971,498.595 683.104,498.933C683.236,499.271 683.451,499.439 683.748,499.439Z" style="fill-rule:nonzero;"/>
                <path d="M690.984,498.73C690.984,499.367 690.798,499.864 690.425,500.222C690.052,500.579 689.502,500.758 688.775,500.758C688.131,500.758 687.598,500.631 687.176,500.377L687.176,499.023C687.391,499.172 687.642,499.295 687.929,499.393C688.216,499.49 688.469,499.539 688.688,499.539C688.93,499.539 689.114,499.479 689.241,499.36C689.368,499.241 689.432,499.084 689.432,498.889C689.432,498.689 689.365,498.516 689.232,498.367C689.1,498.219 688.855,498.037 688.5,497.822C688.027,497.541 687.688,497.241 687.483,496.923C687.278,496.604 687.176,496.229 687.176,495.795C687.176,495.24 687.366,494.801 687.747,494.477C688.128,494.152 688.65,493.99 689.314,493.99C689.893,493.99 690.438,494.143 690.949,494.447L690.439,495.566C690.021,495.34 689.654,495.227 689.338,495.227C689.139,495.227 688.989,495.279 688.89,495.385C688.79,495.49 688.74,495.619 688.74,495.771C688.74,495.947 688.802,496.104 688.925,496.24C689.048,496.377 689.277,496.547 689.613,496.75C690.02,496.996 690.305,497.205 690.469,497.377C690.633,497.549 690.76,497.744 690.85,497.963C690.939,498.182 690.984,498.437 690.984,498.73Z" style="fill-rule:nonzero;"/>
                <path d="M695.473,498.73C695.473,499.367 695.286,499.864 694.913,500.222C694.54,500.579 693.99,500.758 693.264,500.758C692.619,500.758 692.086,500.631 691.664,500.377L691.664,499.023C691.879,499.172 692.13,499.295 692.417,499.393C692.704,499.49 692.957,499.539 693.176,499.539C693.418,499.539 693.603,499.479 693.729,499.36C693.856,499.241 693.92,499.084 693.92,498.889C693.92,498.689 693.854,498.516 693.721,498.367C693.588,498.219 693.344,498.037 692.988,497.822C692.516,497.541 692.177,497.241 691.972,496.923C691.767,496.604 691.664,496.229 691.664,495.795C691.664,495.24 691.854,494.801 692.235,494.477C692.616,494.152 693.139,493.99 693.803,493.99C694.381,493.99 694.926,494.143 695.438,494.447L694.928,495.566C694.51,495.34 694.143,495.227 693.826,495.227C693.627,495.227 693.478,495.279 693.378,495.385C693.278,495.49 693.229,495.619 693.229,495.771C693.229,495.947 693.29,496.104 693.413,496.24C693.536,496.377 693.766,496.547 694.102,496.75C694.508,496.996 694.793,497.205 694.957,497.377C695.121,497.549 695.248,497.744 695.338,497.963C695.428,498.182 695.473,498.437 695.473,498.73Z" style="fill-rule:nonzero;"/>
                <rect x="696.457" y="491.523" width="1.559" height="9.117" style="fill-rule:nonzero;"/>
                <path d="M699.311,499.838C699.311,499.533 699.392,499.297 699.554,499.129C699.716,498.961 699.957,498.877 700.277,498.877C700.598,498.877 700.84,498.96 701.004,499.126C701.168,499.292 701.25,499.529 701.25,499.838C701.25,500.143 701.165,500.379 700.995,500.547C700.825,500.715 700.586,500.799 700.277,500.799C699.961,500.799 699.721,500.714 699.557,500.544C699.393,500.374 699.311,500.139 699.311,499.838Z" style="fill-rule:nonzero;"/>
                <path d="M704.719,500.758C703.941,500.758 703.35,500.475 702.943,499.908C702.537,499.342 702.334,498.51 702.334,497.412C702.334,496.264 702.526,495.406 702.911,494.84C703.296,494.273 703.891,493.99 704.695,493.99C704.938,493.99 705.191,494.025 705.457,494.096C705.723,494.166 705.961,494.268 706.172,494.4L705.727,495.613C705.402,495.422 705.115,495.326 704.865,495.326C704.533,495.326 704.294,495.499 704.147,495.845C704.001,496.19 703.928,496.709 703.928,497.4C703.928,498.076 704,498.581 704.145,498.915C704.289,499.249 704.525,499.416 704.854,499.416C705.244,499.416 705.652,499.279 706.078,499.006L706.078,500.377C705.668,500.631 705.215,500.758 704.719,500.758Z" style="fill-rule:nonzero;"/>
                <path d="M711.85,497.365C711.85,498.436 711.623,499.269 711.17,499.864C710.717,500.46 710.096,500.758 709.307,500.758C708.807,500.758 708.365,500.621 707.982,500.348C707.6,500.074 707.305,499.681 707.098,499.167C706.891,498.653 706.787,498.053 706.787,497.365C706.787,496.307 707.012,495.479 707.461,494.884C707.91,494.288 708.533,493.99 709.33,493.99C710.1,493.99 710.712,494.294 711.167,494.901C711.622,495.509 711.85,496.33 711.85,497.365ZM708.381,497.365C708.381,498.045 708.455,498.559 708.604,498.906C708.752,499.254 708.99,499.428 709.318,499.428C709.943,499.428 710.256,498.74 710.256,497.365C710.256,496.682 710.181,496.171 710.03,495.833C709.88,495.495 709.643,495.326 709.318,495.326C708.99,495.326 708.752,495.495 708.604,495.833C708.455,496.171 708.381,496.682 708.381,497.365Z" style="fill-rule:nonzero;"/>
                <path d="M719.426,500.641L719.426,496.75C719.426,495.793 719.189,495.314 718.717,495.314C718.373,495.314 718.127,495.485 717.979,495.827C717.83,496.169 717.756,496.717 717.756,497.471L717.756,500.641L716.186,500.641L716.186,496.75C716.186,495.793 715.945,495.314 715.465,495.314C715.129,495.314 714.885,495.484 714.732,495.824C714.58,496.164 714.504,496.725 714.504,497.506L714.504,500.641L712.945,500.641L712.945,494.113L714.182,494.113L714.369,494.951L714.469,494.951C714.625,494.619 714.839,494.376 715.11,494.222C715.382,494.067 715.672,493.99 715.98,493.99C716.777,493.99 717.309,494.367 717.574,495.121L717.633,495.121C717.965,494.367 718.498,493.99 719.232,493.99C719.811,493.99 720.249,494.193 720.548,494.6C720.847,495.006 720.996,495.6 720.996,496.381L720.996,500.641L719.426,500.641Z" style="fill-rule:nonzero;"/>
                <path d="M726.381,492.074L723.188,500.641L721.688,500.641L724.881,492.074L726.381,492.074Z" style="fill-rule:nonzero;"/>
            </g>
        </g>
    </g>
    <g transform="matrix(1,0,0,1,-19.1484,-118.739)">
        <g transform="matrix(1,0,0,1,19.3906,0)">
            <g transform="matrix(1,0,0,1,-73.3125,122.918)">
                <rect x="2905.5" y="149.758" width="600" height="1614.65"/>
                <path d="M3505.5,1764.41L2905.5,1764.41L2905.5,149.758L3505.5,149.758L3505.5,1764.41ZM2919.5,163.758L2919.5,1750.41L3491.5,1750.41L3491.5,163.758L2919.5,163.758Z" style="fill:rgb(115,140,136);"/>
            </g>
            <g transform="matrix(7.0339,0,0,7.0339,-1580.36,-2325.54)">
                <path d="M641.121,481.967C641.895,481.967 642.5,482.269 642.938,482.872C643.375,483.476 643.594,484.303 643.594,485.354C643.594,486.436 643.368,487.273 642.917,487.867C642.466,488.461 641.852,488.758 641.074,488.758C640.305,488.758 639.701,488.479 639.264,487.92L639.141,487.92L638.842,488.641L637.477,488.641L637.477,479.523L639.264,479.523L639.264,481.645C639.264,481.914 639.24,482.346 639.193,482.939L639.264,482.939C639.682,482.291 640.301,481.967 641.121,481.967ZM640.547,483.396C640.105,483.396 639.783,483.532 639.58,483.804C639.377,484.075 639.271,484.523 639.264,485.148L639.264,485.342C639.264,486.045 639.368,486.549 639.577,486.854C639.786,487.158 640.117,487.311 640.57,487.311C640.938,487.311 641.229,487.142 641.446,486.804C641.663,486.466 641.771,485.975 641.771,485.33C641.771,484.686 641.662,484.202 641.443,483.88C641.225,483.558 640.926,483.396 640.547,483.396Z" style="fill:white;fill-rule:nonzero;"/>
                <path d="M649.23,488.641L648.885,487.75L648.838,487.75C648.537,488.129 648.228,488.392 647.909,488.538C647.591,488.685 647.176,488.758 646.664,488.758C646.035,488.758 645.54,488.578 645.179,488.219C644.817,487.859 644.637,487.348 644.637,486.684C644.637,485.988 644.88,485.476 645.366,485.146C645.853,484.815 646.586,484.633 647.566,484.598L648.703,484.562L648.703,484.275C648.703,483.611 648.363,483.279 647.684,483.279C647.16,483.279 646.545,483.437 645.838,483.754L645.246,482.547C646,482.152 646.836,481.955 647.754,481.955C648.633,481.955 649.307,482.146 649.775,482.529C650.244,482.912 650.479,483.494 650.479,484.275L650.479,488.641L649.23,488.641ZM648.703,485.605L648.012,485.629C647.492,485.645 647.105,485.738 646.852,485.91C646.598,486.082 646.471,486.344 646.471,486.695C646.471,487.199 646.76,487.451 647.338,487.451C647.752,487.451 648.083,487.332 648.331,487.094C648.579,486.855 648.703,486.539 648.703,486.145L648.703,485.605Z" style="fill:white;fill-rule:nonzero;"/>
                <path d="M654.393,488.758C653.623,488.758 653.019,488.459 652.579,487.861C652.14,487.264 651.92,486.436 651.92,485.377C651.92,484.303 652.144,483.466 652.591,482.866C653.038,482.267 653.654,481.967 654.439,481.967C655.264,481.967 655.893,482.287 656.326,482.928L656.385,482.928C656.295,482.439 656.25,482.004 656.25,481.621L656.25,479.523L658.043,479.523L658.043,488.641L656.672,488.641L656.326,487.791L656.25,487.791C655.844,488.436 655.225,488.758 654.393,488.758ZM655.02,487.334C655.477,487.334 655.812,487.201 656.024,486.936C656.237,486.67 656.354,486.219 656.373,485.582L656.373,485.389C656.373,484.686 656.265,484.182 656.048,483.877C655.831,483.572 655.479,483.42 654.99,483.42C654.592,483.42 654.282,483.589 654.062,483.927C653.841,484.265 653.73,484.756 653.73,485.4C653.73,486.045 653.842,486.528 654.064,486.851C654.287,487.173 654.605,487.334 655.02,487.334Z" style="fill:white;fill-rule:nonzero;"/>
                <path d="M664.482,486.695C664.482,487.367 664.249,487.879 663.782,488.23C663.315,488.582 662.617,488.758 661.688,488.758C661.211,488.758 660.805,488.726 660.469,488.661C660.133,488.597 659.818,488.502 659.525,488.377L659.525,486.9C659.857,487.057 660.231,487.187 660.647,487.293C661.063,487.398 661.43,487.451 661.746,487.451C662.395,487.451 662.719,487.264 662.719,486.889C662.719,486.748 662.676,486.634 662.59,486.546C662.504,486.458 662.355,486.358 662.145,486.247C661.934,486.136 661.652,486.006 661.301,485.857C660.797,485.646 660.427,485.451 660.19,485.271C659.954,485.092 659.782,484.886 659.675,484.653C659.567,484.421 659.514,484.135 659.514,483.795C659.514,483.213 659.739,482.763 660.19,482.444C660.642,482.126 661.281,481.967 662.109,481.967C662.898,481.967 663.666,482.139 664.412,482.482L663.873,483.771C663.545,483.631 663.238,483.516 662.953,483.426C662.668,483.336 662.377,483.291 662.08,483.291C661.553,483.291 661.289,483.434 661.289,483.719C661.289,483.879 661.374,484.018 661.544,484.135C661.714,484.252 662.086,484.426 662.66,484.656C663.172,484.863 663.547,485.057 663.785,485.236C664.023,485.416 664.199,485.623 664.313,485.857C664.426,486.092 664.482,486.371 664.482,486.695Z" style="fill:white;fill-rule:nonzero;"/>
                <path d="M670.447,486.695C670.447,487.367 670.214,487.879 669.747,488.23C669.28,488.582 668.582,488.758 667.652,488.758C667.176,488.758 666.77,488.726 666.434,488.661C666.098,488.597 665.783,488.502 665.49,488.377L665.49,486.9C665.822,487.057 666.196,487.187 666.612,487.293C667.028,487.398 667.395,487.451 667.711,487.451C668.359,487.451 668.684,487.264 668.684,486.889C668.684,486.748 668.641,486.634 668.555,486.546C668.469,486.458 668.32,486.358 668.109,486.247C667.898,486.136 667.617,486.006 667.266,485.857C666.762,485.646 666.392,485.451 666.155,485.271C665.919,485.092 665.747,484.886 665.64,484.653C665.532,484.421 665.479,484.135 665.479,483.795C665.479,483.213 665.704,482.763 666.155,482.444C666.606,482.126 667.246,481.967 668.074,481.967C668.863,481.967 669.631,482.139 670.377,482.482L669.838,483.771C669.51,483.631 669.203,483.516 668.918,483.426C668.633,483.336 668.342,483.291 668.045,483.291C667.518,483.291 667.254,483.434 667.254,483.719C667.254,483.879 667.339,484.018 667.509,484.135C667.679,484.252 668.051,484.426 668.625,484.656C669.137,484.863 669.512,485.057 669.75,485.236C669.988,485.416 670.164,485.623 670.277,485.857C670.391,486.092 670.447,486.371 670.447,486.695Z" style="fill:white;fill-rule:nonzero;"/>
                <rect x="671.842" y="479.523" width="1.787" height="9.117" style="fill:white;fill-rule:nonzero;"/>
                <path d="M675.252,487.803C675.252,487.475 675.34,487.227 675.516,487.059C675.691,486.891 675.947,486.807 676.283,486.807C676.607,486.807 676.858,486.893 677.036,487.064C677.214,487.236 677.303,487.482 677.303,487.803C677.303,488.111 677.213,488.354 677.033,488.532C676.854,488.71 676.604,488.799 676.283,488.799C675.955,488.799 675.701,488.712 675.521,488.538C675.342,488.364 675.252,488.119 675.252,487.803Z" style="fill:white;fill-rule:nonzero;"/>
                <path d="M681.586,488.758C679.547,488.758 678.527,487.639 678.527,485.4C678.527,484.287 678.805,483.437 679.359,482.849C679.914,482.261 680.709,481.967 681.744,481.967C682.502,481.967 683.182,482.115 683.783,482.412L683.256,483.795C682.975,483.682 682.713,483.589 682.471,483.517C682.229,483.444 681.986,483.408 681.744,483.408C680.814,483.408 680.35,484.068 680.35,485.389C680.35,486.67 680.814,487.311 681.744,487.311C682.088,487.311 682.406,487.265 682.699,487.173C682.992,487.081 683.285,486.937 683.578,486.742L683.578,488.271C683.289,488.455 682.997,488.582 682.702,488.652C682.407,488.723 682.035,488.758 681.586,488.758Z" style="fill:white;fill-rule:nonzero;"/>
                <path d="M686.52,485.354C686.52,486.002 686.626,486.492 686.839,486.824C687.052,487.156 687.398,487.322 687.879,487.322C688.355,487.322 688.698,487.157 688.907,486.827C689.116,486.497 689.221,486.006 689.221,485.354C689.221,484.705 689.115,484.219 688.904,483.895C688.693,483.57 688.348,483.408 687.867,483.408C687.391,483.408 687.047,483.569 686.836,483.892C686.625,484.214 686.52,484.701 686.52,485.354ZM691.049,485.354C691.049,486.42 690.768,487.254 690.205,487.855C689.643,488.457 688.859,488.758 687.855,488.758C687.227,488.758 686.672,488.62 686.191,488.345C685.711,488.069 685.342,487.674 685.084,487.158C684.826,486.643 684.697,486.041 684.697,485.354C684.697,484.283 684.977,483.451 685.535,482.857C686.094,482.264 686.879,481.967 687.891,481.967C688.52,481.967 689.074,482.104 689.555,482.377C690.035,482.65 690.404,483.043 690.662,483.555C690.92,484.066 691.049,484.666 691.049,485.354Z" style="fill:white;fill-rule:nonzero;"/>
                <path d="M698.391,488.641L696.604,488.641L696.604,484.814C696.604,484.342 696.524,483.987 696.366,483.751C696.208,483.515 695.959,483.396 695.619,483.396C695.162,483.396 694.83,483.564 694.623,483.9C694.416,484.236 694.313,484.789 694.313,485.559L694.313,488.641L692.525,488.641L692.525,482.09L693.891,482.09L694.131,482.928L694.23,482.928C694.406,482.627 694.66,482.392 694.992,482.222C695.324,482.052 695.705,481.967 696.135,481.967C697.115,481.967 697.779,482.287 698.127,482.928L698.285,482.928C698.461,482.623 698.72,482.387 699.062,482.219C699.403,482.051 699.789,481.967 700.219,481.967C700.961,481.967 701.522,482.157 701.903,482.538C702.284,482.919 702.475,483.529 702.475,484.369L702.475,488.641L700.682,488.641L700.682,484.814C700.682,484.342 700.603,483.987 700.444,483.751C700.286,483.515 700.037,483.396 699.697,483.396C699.26,483.396 698.933,483.553 698.716,483.865C698.499,484.178 698.391,484.674 698.391,485.354L698.391,488.641Z" style="fill:white;fill-rule:nonzero;"/>
            </g>
        </g>
        <g>
            <g id="_302-redirect" serif:id="302 redirect">
                <g transform="matrix(-4.28136,0,0,-4.28136,2082.95,1442.45)">
                    <g transform="matrix(1,0,0,1,-175,-150)">
                        <g transform="matrix(1.0659,0,0,1.02926,23.9591,-5.35586)">
                            <g id="Layer11" serif:id="Layer1">
                                <path d="M165.157,35.5C237.628,35.5 296.465,82.448 296.465,140.275C296.465,198.102 237.628,244.94 165.157,245.05C121.206,245.117 82.218,228.046 58.326,201.625C55.863,198.902 -7.972,216.545 -7.972,216.545C-7.972,216.545 46.025,185.192 43.812,180.98C37.246,168.488 33.707,154.726 33.849,140.275C34.417,82.451 92.686,35.5 165.157,35.5Z" style="fill:white;stroke:black;stroke-width:5.25px;"/>
                            </g>
                        </g>
                    </g>
                </g>
                <g transform="matrix(9.70715,0,0,9.70715,-4668.95,-3335.8)">
                    <path d="M657.223,486.73C657.223,487.367 657.036,487.864 656.663,488.222C656.29,488.579 655.74,488.758 655.014,488.758C654.369,488.758 653.836,488.631 653.414,488.377L653.414,487.023C653.629,487.172 653.88,487.295 654.167,487.393C654.454,487.49 654.707,487.539 654.926,487.539C655.168,487.539 655.353,487.479 655.479,487.36C655.606,487.241 655.67,487.084 655.67,486.889C655.67,486.689 655.604,486.516 655.471,486.367C655.338,486.219 655.094,486.037 654.738,485.822C654.266,485.541 653.927,485.241 653.722,484.923C653.517,484.604 653.414,484.229 653.414,483.795C653.414,483.24 653.604,482.801 653.985,482.477C654.366,482.152 654.889,481.99 655.553,481.99C656.131,481.99 656.676,482.143 657.188,482.447L656.678,483.566C656.26,483.34 655.893,483.227 655.576,483.227C655.377,483.227 655.228,483.279 655.128,483.385C655.028,483.49 654.979,483.619 654.979,483.771C654.979,483.947 655.04,484.104 655.163,484.24C655.286,484.377 655.516,484.547 655.852,484.75C656.258,484.996 656.543,485.205 656.707,485.377C656.871,485.549 656.998,485.744 657.088,485.963C657.178,486.182 657.223,486.437 657.223,486.73Z" style="fill-rule:nonzero;"/>
                    <path d="M661.734,488.641L661.541,487.803L661.459,487.803C661.314,488.1 661.108,488.333 660.841,488.503C660.573,488.673 660.268,488.758 659.924,488.758C659.338,488.758 658.895,488.559 658.594,488.16C658.293,487.762 658.143,487.166 658.143,486.373L658.143,482.113L659.719,482.113L659.719,485.998C659.719,486.475 659.775,486.834 659.889,487.076C660.002,487.318 660.186,487.439 660.439,487.439C660.775,487.439 661.021,487.271 661.175,486.936C661.329,486.6 661.406,486.035 661.406,485.242L661.406,482.113L662.982,482.113L662.982,488.641L661.734,488.641Z" style="fill-rule:nonzero;"/>
                    <path d="M667.072,481.99C667.264,481.99 667.451,482.02 667.635,482.078L667.453,483.59C667.344,483.551 667.201,483.531 667.025,483.531C666.646,483.531 666.355,483.681 666.152,483.979C665.949,484.278 665.848,484.713 665.848,485.283L665.848,488.641L664.289,488.641L664.289,482.113L665.572,482.113L665.748,483.133L665.801,483.133C665.973,482.723 666.16,482.43 666.363,482.254C666.566,482.078 666.803,481.99 667.072,481.99Z" style="fill-rule:nonzero;"/>
                    <path d="M670.74,488.758C669.924,488.758 669.28,488.468 668.81,487.888C668.339,487.308 668.104,486.486 668.104,485.424C668.104,484.346 668.316,483.504 668.742,482.898C669.168,482.293 669.762,481.99 670.523,481.99C671.234,481.99 671.795,482.249 672.205,482.767C672.615,483.284 672.82,484.01 672.82,484.943L672.82,485.775L669.686,485.775C669.697,486.357 669.816,486.79 670.043,487.073C670.27,487.356 670.582,487.498 670.98,487.498C671.488,487.498 672.008,487.34 672.539,487.023L672.539,488.307C672.039,488.607 671.439,488.758 670.74,488.758ZM670.512,483.191C670.289,483.191 670.105,483.31 669.961,483.546C669.816,483.782 669.732,484.148 669.709,484.645L671.291,484.645C671.283,484.168 671.211,483.807 671.074,483.561C670.938,483.314 670.75,483.191 670.512,483.191Z" style="fill-rule:nonzero;"/>
                    <path d="M675.709,487.381C675.506,488.17 675.162,489.105 674.678,490.187L673.488,490.187C673.742,489.148 673.939,488.168 674.08,487.246L675.627,487.246L675.709,487.381Z" style="fill-rule:nonzero;"/>
                    <path d="M683.004,481.99C683.598,481.99 684.064,482.285 684.404,482.875C684.744,483.465 684.914,484.295 684.914,485.365C684.914,486.447 684.743,487.283 684.401,487.873C684.06,488.463 683.586,488.758 682.98,488.758C682.688,488.758 682.429,488.694 682.204,488.567C681.979,488.44 681.768,488.217 681.568,487.896L681.469,487.896L681.205,488.641L680.057,488.641L680.057,479.523L681.615,479.523L681.615,481.656C681.615,481.746 681.613,481.84 681.609,481.937C681.605,482.035 681.58,482.377 681.533,482.963L681.615,482.963C681.807,482.604 682.014,482.352 682.236,482.207C682.459,482.062 682.715,481.99 683.004,481.99ZM682.465,483.314C682.168,483.314 681.954,483.453 681.823,483.73C681.692,484.008 681.623,484.496 681.615,485.195L681.615,485.354C681.615,486.111 681.683,486.645 681.817,486.953C681.952,487.262 682.172,487.416 682.477,487.416C683.039,487.416 683.32,486.725 683.32,485.342C683.32,483.99 683.035,483.314 682.465,483.314Z" style="fill-rule:nonzero;"/>
                    <path d="M689.537,488.641L689.344,487.803L689.262,487.803C689.117,488.1 688.911,488.333 688.644,488.503C688.376,488.673 688.07,488.758 687.727,488.758C687.141,488.758 686.697,488.559 686.396,488.16C686.096,487.762 685.945,487.166 685.945,486.373L685.945,482.113L687.521,482.113L687.521,485.998C687.521,486.475 687.578,486.834 687.691,487.076C687.805,487.318 687.988,487.439 688.242,487.439C688.578,487.439 688.823,487.271 688.978,486.936C689.132,486.6 689.209,486.035 689.209,485.242L689.209,482.113L690.785,482.113L690.785,488.641L689.537,488.641Z" style="fill-rule:nonzero;"/>
                    <path d="M694.359,487.439C694.578,487.439 694.814,487.385 695.068,487.275L695.068,488.494C694.814,488.67 694.434,488.758 693.926,488.758C693.359,488.758 692.939,488.589 692.666,488.251C692.393,487.913 692.256,487.406 692.256,486.73L692.256,483.35L691.623,483.35L691.623,482.652L692.438,482.09L692.836,480.707L693.832,480.707L693.832,482.113L695.016,482.113L695.016,483.35L693.832,483.35L693.832,486.783C693.832,487.221 694.008,487.439 694.359,487.439Z" style="fill-rule:nonzero;"/>
                    <path d="M701.104,488.758C700.326,488.758 699.734,488.475 699.328,487.908C698.922,487.342 698.719,486.51 698.719,485.412C698.719,484.264 698.911,483.406 699.296,482.84C699.681,482.273 700.275,481.99 701.08,481.99C701.322,481.99 701.576,482.025 701.842,482.096C702.107,482.166 702.346,482.268 702.557,482.4L702.111,483.613C701.787,483.422 701.5,483.326 701.25,483.326C700.918,483.326 700.679,483.499 700.532,483.845C700.386,484.19 700.313,484.709 700.313,485.4C700.313,486.076 700.385,486.581 700.529,486.915C700.674,487.249 700.91,487.416 701.238,487.416C701.629,487.416 702.037,487.279 702.463,487.006L702.463,488.377C702.053,488.631 701.6,488.758 701.104,488.758Z" style="fill-rule:nonzero;"/>
                    <path d="M706.6,488.641L706.289,487.75L706.254,487.75C706.023,488.133 705.785,488.396 705.539,488.541C705.293,488.686 704.982,488.758 704.607,488.758C704.127,488.758 703.749,488.578 703.474,488.219C703.198,487.859 703.061,487.359 703.061,486.719C703.061,486.031 703.249,485.521 703.626,485.187C704.003,484.853 704.566,484.668 705.316,484.633L706.184,484.598L706.184,484.129C706.184,483.52 705.92,483.215 705.393,483.215C705.002,483.215 704.553,483.367 704.045,483.672L703.506,482.594C704.154,482.184 704.859,481.979 705.621,481.979C706.313,481.979 706.839,482.177 707.2,482.573C707.562,482.97 707.742,483.531 707.742,484.258L707.742,488.641L706.6,488.641ZM705.246,487.539C705.531,487.539 705.759,487.411 705.929,487.155C706.099,486.899 706.184,486.559 706.184,486.133L706.184,485.582L705.703,485.605C705.348,485.625 705.087,485.727 704.921,485.91C704.755,486.094 704.672,486.367 704.672,486.73C704.672,487.27 704.863,487.539 705.246,487.539Z" style="fill-rule:nonzero;"/>
                    <path d="M712.254,488.641L712.254,484.75C712.254,484.277 712.197,483.92 712.084,483.678C711.971,483.436 711.787,483.314 711.533,483.314C711.197,483.314 710.951,483.481 710.795,483.815C710.639,484.149 710.561,484.713 710.561,485.506L710.561,488.641L709.002,488.641L709.002,482.113L710.238,482.113L710.426,482.951L710.525,482.951C710.666,482.65 710.867,482.415 711.129,482.245C711.391,482.075 711.697,481.99 712.049,481.99C712.643,481.99 713.087,482.193 713.382,482.6C713.677,483.006 713.824,483.6 713.824,484.381L713.824,488.641L712.254,488.641Z" style="fill-rule:nonzero;"/>
                    <path d="M634.081,494.113L635.698,494.113L636.601,497.799C636.69,498.127 636.763,498.586 636.817,499.176L636.853,499.176C636.856,499.082 636.874,498.915 636.905,498.675C636.937,498.435 636.962,498.246 636.981,498.109C637.001,497.973 637.271,496.641 637.79,494.113L639.431,494.113L637.562,501.109C637.335,501.969 637.034,502.586 636.659,502.961C636.284,503.336 635.784,503.523 635.159,503.523C634.851,503.523 634.575,503.49 634.333,503.424L634.333,502.117C634.493,502.164 634.673,502.187 634.872,502.187C635.396,502.187 635.739,501.844 635.903,501.156L636.015,500.746L634.081,494.113Z" style="fill-rule:nonzero;"/>
                    <path d="M644.927,497.365C644.927,498.436 644.7,499.269 644.247,499.864C643.794,500.46 643.173,500.758 642.384,500.758C641.884,500.758 641.442,500.621 641.06,500.348C640.677,500.074 640.382,499.681 640.175,499.167C639.968,498.653 639.864,498.053 639.864,497.365C639.864,496.307 640.089,495.479 640.538,494.884C640.987,494.288 641.61,493.99 642.407,493.99C643.177,493.99 643.789,494.294 644.244,494.901C644.699,495.509 644.927,496.33 644.927,497.365ZM641.458,497.365C641.458,498.045 641.532,498.559 641.681,498.906C641.829,499.254 642.067,499.428 642.396,499.428C643.021,499.428 643.333,498.74 643.333,497.365C643.333,496.682 643.258,496.171 643.107,495.833C642.957,495.495 642.72,495.326 642.396,495.326C642.067,495.326 641.829,495.495 641.681,495.833C641.532,496.171 641.458,496.682 641.458,497.365Z" style="fill-rule:nonzero;"/>
                    <path d="M649.55,500.641L649.356,499.803L649.274,499.803C649.13,500.1 648.924,500.333 648.656,500.503C648.389,500.673 648.083,500.758 647.739,500.758C647.153,500.758 646.71,500.559 646.409,500.16C646.108,499.762 645.958,499.166 645.958,498.373L645.958,494.113L647.534,494.113L647.534,497.998C647.534,498.475 647.591,498.834 647.704,499.076C647.817,499.318 648.001,499.439 648.255,499.439C648.591,499.439 648.836,499.271 648.99,498.936C649.145,498.6 649.222,498.035 649.222,497.242L649.222,494.113L650.798,494.113L650.798,500.641L649.55,500.641Z" style="fill-rule:nonzero;"/>
                    <path d="M657.981,500.758C657.7,500.758 657.451,500.694 657.234,500.567C657.018,500.44 656.815,500.217 656.628,499.896L656.546,499.896C656.608,500.428 656.64,500.748 656.64,500.857L656.64,503.523L655.069,503.523L655.069,494.113L656.276,494.113L656.546,494.963L656.616,494.963C656.94,494.314 657.411,493.99 658.028,493.99C658.622,493.99 659.087,494.284 659.423,494.872C659.759,495.46 659.927,496.291 659.927,497.365C659.927,498.424 659.753,499.254 659.405,499.855C659.058,500.457 658.583,500.758 657.981,500.758ZM657.501,495.314C657.196,495.314 656.977,495.456 656.842,495.739C656.707,496.022 656.636,496.492 656.628,497.148L656.628,497.354C656.628,498.072 656.696,498.596 656.833,498.924C656.97,499.252 657.196,499.416 657.513,499.416C658.06,499.416 658.333,498.725 658.333,497.342C658.333,496.662 658.266,496.154 658.131,495.818C657.996,495.482 657.786,495.314 657.501,495.314Z" style="fill-rule:nonzero;"/>
                    <rect x="661.022" y="491.523" width="1.559" height="9.117" style="fill-rule:nonzero;"/>
                    <path d="M666.296,500.758C665.479,500.758 664.836,500.468 664.365,499.888C663.895,499.308 663.659,498.486 663.659,497.424C663.659,496.346 663.872,495.504 664.298,494.898C664.724,494.293 665.317,493.99 666.079,493.99C666.79,493.99 667.351,494.249 667.761,494.767C668.171,495.284 668.376,496.01 668.376,496.943L668.376,497.775L665.241,497.775C665.253,498.357 665.372,498.79 665.599,499.073C665.825,499.356 666.138,499.498 666.536,499.498C667.044,499.498 667.563,499.34 668.095,499.023L668.095,500.307C667.595,500.607 666.995,500.758 666.296,500.758ZM666.067,495.191C665.845,495.191 665.661,495.31 665.517,495.546C665.372,495.782 665.288,496.148 665.265,496.645L666.847,496.645C666.839,496.168 666.767,495.807 666.63,495.561C666.493,495.314 666.306,495.191 666.067,495.191Z" style="fill-rule:nonzero;"/>
                    <path d="M672.606,500.641L672.296,499.75L672.261,499.75C672.03,500.133 671.792,500.396 671.546,500.541C671.3,500.686 670.989,500.758 670.614,500.758C670.134,500.758 669.756,500.578 669.48,500.219C669.205,499.859 669.067,499.359 669.067,498.719C669.067,498.031 669.256,497.521 669.633,497.187C670.01,496.853 670.573,496.668 671.323,496.633L672.19,496.598L672.19,496.129C672.19,495.52 671.927,495.215 671.399,495.215C671.009,495.215 670.56,495.367 670.052,495.672L669.513,494.594C670.161,494.184 670.866,493.979 671.628,493.979C672.319,493.979 672.846,494.177 673.207,494.573C673.568,494.97 673.749,495.531 673.749,496.258L673.749,500.641L672.606,500.641ZM671.253,499.539C671.538,499.539 671.766,499.411 671.936,499.155C672.105,498.899 672.19,498.559 672.19,498.133L672.19,497.582L671.71,497.605C671.354,497.625 671.094,497.727 670.928,497.91C670.762,498.094 670.679,498.367 670.679,498.73C670.679,499.27 670.87,499.539 671.253,499.539Z" style="fill-rule:nonzero;"/>
                    <path d="M678.513,498.73C678.513,499.367 678.326,499.864 677.953,500.222C677.58,500.579 677.03,500.758 676.304,500.758C675.659,500.758 675.126,500.631 674.704,500.377L674.704,499.023C674.919,499.172 675.17,499.295 675.457,499.393C675.744,499.49 675.997,499.539 676.216,499.539C676.458,499.539 676.643,499.479 676.77,499.36C676.896,499.241 676.96,499.084 676.96,498.889C676.96,498.689 676.894,498.516 676.761,498.367C676.628,498.219 676.384,498.037 676.028,497.822C675.556,497.541 675.217,497.241 675.012,496.923C674.807,496.604 674.704,496.229 674.704,495.795C674.704,495.24 674.895,494.801 675.275,494.477C675.656,494.152 676.179,493.99 676.843,493.99C677.421,493.99 677.966,494.143 678.478,494.447L677.968,495.566C677.55,495.34 677.183,495.227 676.866,495.227C676.667,495.227 676.518,495.279 676.418,495.385C676.318,495.49 676.269,495.619 676.269,495.771C676.269,495.947 676.33,496.104 676.453,496.24C676.576,496.377 676.806,496.547 677.142,496.75C677.548,496.996 677.833,497.205 677.997,497.377C678.161,497.549 678.288,497.744 678.378,497.963C678.468,498.182 678.513,498.437 678.513,498.73Z" style="fill-rule:nonzero;"/>
                    <path d="M681.905,500.758C681.089,500.758 680.445,500.468 679.975,499.888C679.504,499.308 679.269,498.486 679.269,497.424C679.269,496.346 679.481,495.504 679.907,494.898C680.333,494.293 680.927,493.99 681.688,493.99C682.399,493.99 682.96,494.249 683.37,494.767C683.78,495.284 683.985,496.01 683.985,496.943L683.985,497.775L680.851,497.775C680.862,498.357 680.981,498.79 681.208,499.073C681.435,499.356 681.747,499.498 682.146,499.498C682.653,499.498 683.173,499.34 683.704,499.023L683.704,500.307C683.204,500.607 682.604,500.758 681.905,500.758ZM681.677,495.191C681.454,495.191 681.271,495.31 681.126,495.546C680.981,495.782 680.897,496.148 680.874,496.645L682.456,496.645C682.448,496.168 682.376,495.807 682.239,495.561C682.103,495.314 681.915,495.191 681.677,495.191Z" style="fill-rule:nonzero;"/>
                    <path d="M690.882,495.35L689.804,495.35L689.804,500.641L688.245,500.641L688.245,495.35L687.489,495.35L687.489,494.57L688.245,494.102L688.245,493.609C688.245,492.883 688.396,492.343 688.696,491.989C688.997,491.636 689.481,491.459 690.149,491.459C690.571,491.459 690.964,491.547 691.327,491.723L690.917,492.912C690.722,492.818 690.522,492.771 690.319,492.771C690.14,492.771 690.009,492.842 689.927,492.982C689.845,493.123 689.804,493.34 689.804,493.633L689.804,494.113L690.882,494.113L690.882,495.35ZM693.138,500.641L691.579,500.641L691.579,494.113L693.138,494.113L693.138,500.641ZM691.515,492.408C691.515,492.15 691.59,491.946 691.74,491.796C691.891,491.646 692.101,491.57 692.37,491.57C692.624,491.57 692.827,491.646 692.979,491.796C693.132,491.946 693.208,492.15 693.208,492.408C693.208,492.674 693.13,492.88 692.974,493.026C692.817,493.173 692.616,493.246 692.37,493.246C692.112,493.246 691.905,493.173 691.749,493.026C691.593,492.88 691.515,492.674 691.515,492.408Z" style="fill-rule:nonzero;"/>
                    <path d="M697.257,493.99C697.448,493.99 697.636,494.02 697.819,494.078L697.638,495.59C697.528,495.551 697.386,495.531 697.21,495.531C696.831,495.531 696.54,495.681 696.337,495.979C696.134,496.278 696.032,496.713 696.032,497.283L696.032,500.641L694.474,500.641L694.474,494.113L695.757,494.113L695.933,495.133L695.985,495.133C696.157,494.723 696.345,494.43 696.548,494.254C696.751,494.078 696.987,493.99 697.257,493.99Z" style="fill-rule:nonzero;"/>
                    <path d="M702.021,498.73C702.021,499.367 701.834,499.864 701.461,500.222C701.088,500.579 700.538,500.758 699.812,500.758C699.167,500.758 698.634,500.631 698.212,500.377L698.212,499.023C698.427,499.172 698.678,499.295 698.965,499.393C699.252,499.49 699.505,499.539 699.724,499.539C699.966,499.539 700.15,499.479 700.277,499.36C700.404,499.241 700.468,499.084 700.468,498.889C700.468,498.689 700.401,498.516 700.269,498.367C700.136,498.219 699.892,498.037 699.536,497.822C699.063,497.541 698.725,497.241 698.52,496.923C698.314,496.604 698.212,496.229 698.212,495.795C698.212,495.24 698.402,494.801 698.783,494.477C699.164,494.152 699.687,493.99 700.351,493.99C700.929,493.99 701.474,494.143 701.985,494.447L701.476,495.566C701.058,495.34 700.69,495.227 700.374,495.227C700.175,495.227 700.025,495.279 699.926,495.385C699.826,495.49 699.776,495.619 699.776,495.771C699.776,495.947 699.838,496.104 699.961,496.24C700.084,496.377 700.313,496.547 700.649,496.75C701.056,496.996 701.341,497.205 701.505,497.377C701.669,497.549 701.796,497.744 701.886,497.963C701.976,498.182 702.021,498.437 702.021,498.73Z" style="fill-rule:nonzero;"/>
                    <path d="M705.272,499.439C705.491,499.439 705.728,499.385 705.981,499.275L705.981,500.494C705.728,500.67 705.347,500.758 704.839,500.758C704.272,500.758 703.853,500.589 703.579,500.251C703.306,499.913 703.169,499.406 703.169,498.73L703.169,495.35L702.536,495.35L702.536,494.652L703.351,494.09L703.749,492.707L704.745,492.707L704.745,494.113L705.929,494.113L705.929,495.35L704.745,495.35L704.745,498.783C704.745,499.221 704.921,499.439 705.272,499.439Z" style="fill-rule:nonzero;"/>
                    <path d="M714.56,494.125L714.56,495.039L713.78,495.215C713.933,495.488 714.009,495.832 714.009,496.246C714.009,496.937 713.821,497.479 713.446,497.869C713.071,498.26 712.548,498.455 711.876,498.455C711.681,498.455 711.536,498.439 711.442,498.408C711.368,498.475 711.298,498.549 711.231,498.631C711.165,498.713 711.132,498.814 711.132,498.936C711.132,499.209 711.368,499.346 711.841,499.346L712.784,499.346C713.339,499.346 713.766,499.495 714.064,499.794C714.363,500.093 714.513,500.543 714.513,501.145C714.513,501.902 714.259,502.488 713.751,502.902C713.243,503.316 712.513,503.523 711.56,503.523C710.837,503.523 710.28,503.366 709.89,503.052C709.499,502.737 709.304,502.289 709.304,501.707C709.304,501.344 709.415,501.024 709.638,500.749C709.86,500.474 710.169,500.273 710.563,500.148C710.364,500.07 710.201,499.949 710.074,499.785C709.947,499.621 709.884,499.43 709.884,499.211C709.884,499.078 709.903,498.958 709.942,498.851C709.981,498.743 710.037,498.642 710.109,498.546C710.182,498.45 710.329,498.309 710.552,498.121C710.282,497.957 710.069,497.705 709.913,497.365C709.757,497.025 709.679,496.648 709.679,496.234C709.679,495.52 709.866,494.967 710.241,494.576C710.616,494.186 711.153,493.99 711.853,493.99C711.985,493.99 712.138,494.005 712.31,494.034C712.481,494.063 712.612,494.094 712.702,494.125L714.56,494.125ZM710.722,501.59C710.722,501.848 710.803,502.046 710.965,502.185C711.127,502.323 711.358,502.393 711.659,502.393C712.132,502.393 712.486,502.303 712.723,502.123C712.959,501.943 713.077,501.697 713.077,501.385C713.077,501.139 713.014,500.965 712.887,500.863C712.76,500.762 712.522,500.711 712.175,500.711L711.419,500.711C711.208,500.711 711.039,500.79 710.912,500.948C710.785,501.106 710.722,501.32 710.722,501.59ZM711.202,496.246C711.202,497.016 711.419,497.4 711.853,497.4C712.274,497.4 712.485,497.012 712.485,496.234C712.485,495.437 712.274,495.039 711.853,495.039C711.419,495.039 711.202,495.441 711.202,496.246Z" style="fill-rule:nonzero;"/>
                    <path d="M720.179,497.365C720.179,498.436 719.952,499.269 719.499,499.864C719.046,500.46 718.425,500.758 717.636,500.758C717.136,500.758 716.694,500.621 716.312,500.348C715.929,500.074 715.634,499.681 715.427,499.167C715.22,498.653 715.116,498.053 715.116,497.365C715.116,496.307 715.341,495.479 715.79,494.884C716.239,494.288 716.862,493.99 717.659,493.99C718.429,493.99 719.041,494.294 719.496,494.901C719.951,495.509 720.179,496.33 720.179,497.365ZM716.71,497.365C716.71,498.045 716.784,498.559 716.933,498.906C717.081,499.254 717.319,499.428 717.647,499.428C718.272,499.428 718.585,498.74 718.585,497.365C718.585,496.682 718.51,496.171 718.359,495.833C718.209,495.495 717.972,495.326 717.647,495.326C717.319,495.326 717.081,495.495 716.933,495.833C716.784,496.171 716.71,496.682 716.71,497.365Z" style="fill-rule:nonzero;"/>
                    <path d="M726.507,499.439C726.726,499.439 726.962,499.385 727.216,499.275L727.216,500.494C726.962,500.67 726.581,500.758 726.073,500.758C725.507,500.758 725.087,500.589 724.813,500.251C724.54,499.913 724.403,499.406 724.403,498.73L724.403,495.35L723.771,495.35L723.771,494.652L724.585,494.09L724.983,492.707L725.979,492.707L725.979,494.113L727.163,494.113L727.163,495.35L725.979,495.35L725.979,498.783C725.979,499.221 726.155,499.439 726.507,499.439Z" style="fill-rule:nonzero;"/>
                    <path d="M732.964,497.365C732.964,498.436 732.737,499.269 732.284,499.864C731.831,500.46 731.21,500.758 730.421,500.758C729.921,500.758 729.479,500.621 729.097,500.348C728.714,500.074 728.419,499.681 728.212,499.167C728.005,498.653 727.901,498.053 727.901,497.365C727.901,496.307 728.126,495.479 728.575,494.884C729.024,494.288 729.647,493.99 730.444,493.99C731.214,493.99 731.826,494.294 732.281,494.901C732.736,495.509 732.964,496.33 732.964,497.365ZM729.495,497.365C729.495,498.045 729.569,498.559 729.718,498.906C729.866,499.254 730.104,499.428 730.433,499.428C731.058,499.428 731.37,498.74 731.37,497.365C731.37,496.682 731.295,496.171 731.145,495.833C730.994,495.495 730.757,495.326 730.433,495.326C730.104,495.326 729.866,495.495 729.718,495.833C729.569,496.171 729.495,496.682 729.495,497.365Z" style="fill-rule:nonzero;"/>
                    <path d="M640.453,512.641L640.453,508.75C640.453,507.793 640.213,507.314 639.732,507.314C639.373,507.314 639.121,507.503 638.977,507.88C638.832,508.257 638.76,508.799 638.76,509.506L638.76,512.641L637.201,512.641L637.201,503.523L638.76,503.523L638.76,505.551C638.76,505.812 638.736,506.279 638.689,506.951L638.771,506.951C639.084,506.311 639.564,505.99 640.213,505.99C640.811,505.99 641.262,506.192 641.566,506.597C641.871,507.001 642.023,507.596 642.023,508.381L642.023,512.641L640.453,512.641Z" style="fill-rule:nonzero;"/>
                    <path d="M645.551,511.439C645.77,511.439 646.006,511.385 646.26,511.275L646.26,512.494C646.006,512.67 645.625,512.758 645.117,512.758C644.551,512.758 644.131,512.589 643.857,512.251C643.584,511.913 643.447,511.406 643.447,510.73L643.447,507.35L642.814,507.35L642.814,506.652L643.629,506.09L644.027,504.707L645.023,504.707L645.023,506.113L646.207,506.113L646.207,507.35L645.023,507.35L645.023,510.783C645.023,511.221 645.199,511.439 645.551,511.439Z" style="fill-rule:nonzero;"/>
                    <path d="M649.441,511.439C649.66,511.439 649.896,511.385 650.15,511.275L650.15,512.494C649.896,512.67 649.516,512.758 649.008,512.758C648.441,512.758 648.021,512.589 647.748,512.251C647.475,511.913 647.338,511.406 647.338,510.73L647.338,507.35L646.705,507.35L646.705,506.652L647.52,506.09L647.918,504.707L648.914,504.707L648.914,506.113L650.098,506.113L650.098,507.35L648.914,507.35L648.914,510.783C648.914,511.221 649.09,511.439 649.441,511.439Z" style="fill-rule:nonzero;"/>
                    <path d="M653.977,512.758C653.695,512.758 653.446,512.694 653.229,512.567C653.013,512.44 652.811,512.217 652.623,511.896L652.541,511.896C652.604,512.428 652.635,512.748 652.635,512.857L652.635,515.523L651.064,515.523L651.064,506.113L652.271,506.113L652.541,506.963L652.611,506.963C652.936,506.314 653.406,505.99 654.023,505.99C654.617,505.99 655.082,506.284 655.418,506.872C655.754,507.46 655.922,508.291 655.922,509.365C655.922,510.424 655.748,511.254 655.4,511.855C655.053,512.457 654.578,512.758 653.977,512.758ZM653.496,507.314C653.191,507.314 652.972,507.456 652.837,507.739C652.702,508.022 652.631,508.492 652.623,509.148L652.623,509.354C652.623,510.072 652.691,510.596 652.828,510.924C652.965,511.252 653.191,511.416 653.508,511.416C654.055,511.416 654.328,510.725 654.328,509.342C654.328,508.662 654.261,508.154 654.126,507.818C653.991,507.482 653.781,507.314 653.496,507.314Z" style="fill-rule:nonzero;"/>
                    <path d="M660.521,510.73C660.521,511.367 660.335,511.864 659.962,512.222C659.589,512.579 659.039,512.758 658.313,512.758C657.668,512.758 657.135,512.631 656.713,512.377L656.713,511.023C656.928,511.172 657.179,511.295 657.466,511.393C657.753,511.49 658.006,511.539 658.225,511.539C658.467,511.539 658.651,511.479 658.778,511.36C658.905,511.241 658.969,511.084 658.969,510.889C658.969,510.689 658.902,510.516 658.77,510.367C658.637,510.219 658.393,510.037 658.037,509.822C657.564,509.541 657.226,509.241 657.021,508.923C656.815,508.604 656.713,508.229 656.713,507.795C656.713,507.24 656.903,506.801 657.284,506.477C657.665,506.152 658.188,505.99 658.852,505.99C659.43,505.99 659.975,506.143 660.486,506.447L659.977,507.566C659.559,507.34 659.191,507.227 658.875,507.227C658.676,507.227 658.526,507.279 658.427,507.385C658.327,507.49 658.277,507.619 658.277,507.771C658.277,507.947 658.339,508.104 658.462,508.24C658.585,508.377 658.814,508.547 659.15,508.75C659.557,508.996 659.842,509.205 660.006,509.377C660.17,509.549 660.297,509.744 660.387,509.963C660.477,510.182 660.521,510.437 660.521,510.73Z" style="fill-rule:nonzero;"/>
                    <path d="M661.494,511.838C661.494,511.533 661.575,511.297 661.737,511.129C661.899,510.961 662.141,510.877 662.461,510.877C662.781,510.877 663.023,510.96 663.188,511.126C663.352,511.292 663.434,511.529 663.434,511.838C663.434,512.143 663.349,512.379 663.179,512.547C663.009,512.715 662.77,512.799 662.461,512.799C662.145,512.799 661.904,512.714 661.74,512.544C661.576,512.374 661.494,512.139 661.494,511.838ZM661.494,506.939C661.494,506.635 661.575,506.398 661.737,506.23C661.899,506.062 662.141,505.979 662.461,505.979C662.781,505.979 663.023,506.062 663.188,506.228C663.352,506.394 663.434,506.631 663.434,506.939C663.434,507.244 663.349,507.48 663.179,507.648C663.009,507.816 662.77,507.9 662.461,507.9C662.145,507.9 661.904,507.815 661.74,507.646C661.576,507.476 661.494,507.24 661.494,506.939Z" style="fill-rule:nonzero;"/>
                    <path d="M668.871,504.074L665.678,512.641L664.178,512.641L667.371,504.074L668.871,504.074Z" style="fill-rule:nonzero;"/>
                    <path d="M673.729,504.074L670.535,512.641L669.035,512.641L672.229,504.074L673.729,504.074Z" style="fill-rule:nonzero;"/>
                    <path d="M677.408,505.99C678.002,505.99 678.469,506.285 678.809,506.875C679.148,507.465 679.318,508.295 679.318,509.365C679.318,510.447 679.147,511.283 678.806,511.873C678.464,512.463 677.99,512.758 677.385,512.758C677.092,512.758 676.833,512.694 676.608,512.567C676.384,512.44 676.172,512.217 675.973,511.896L675.873,511.896L675.609,512.641L674.461,512.641L674.461,503.523L676.02,503.523L676.02,505.656C676.02,505.746 676.018,505.84 676.014,505.937C676.01,506.035 675.984,506.377 675.938,506.963L676.02,506.963C676.211,506.604 676.418,506.352 676.641,506.207C676.863,506.062 677.119,505.99 677.408,505.99ZM676.869,507.314C676.572,507.314 676.358,507.453 676.228,507.73C676.097,508.008 676.027,508.496 676.02,509.195L676.02,509.354C676.02,510.111 676.087,510.645 676.222,510.953C676.356,511.262 676.576,511.416 676.881,511.416C677.443,511.416 677.725,510.725 677.725,509.342C677.725,507.99 677.439,507.314 676.869,507.314Z" style="fill-rule:nonzero;"/>
                    <path d="M683.613,512.641L683.303,511.75L683.268,511.75C683.037,512.133 682.799,512.396 682.553,512.541C682.307,512.686 681.996,512.758 681.621,512.758C681.141,512.758 680.763,512.578 680.487,512.219C680.212,511.859 680.074,511.359 680.074,510.719C680.074,510.031 680.263,509.521 680.64,509.187C681.017,508.853 681.58,508.668 682.33,508.633L683.197,508.598L683.197,508.129C683.197,507.52 682.934,507.215 682.406,507.215C682.016,507.215 681.566,507.367 681.059,507.672L680.52,506.594C681.168,506.184 681.873,505.979 682.635,505.979C683.326,505.979 683.853,506.177 684.214,506.573C684.575,506.97 684.756,507.531 684.756,508.258L684.756,512.641L683.613,512.641ZM682.26,511.539C682.545,511.539 682.772,511.411 682.942,511.155C683.112,510.899 683.197,510.559 683.197,510.133L683.197,509.582L682.717,509.605C682.361,509.625 682.101,509.727 681.935,509.91C681.769,510.094 681.686,510.367 681.686,510.73C681.686,511.27 681.877,511.539 682.26,511.539Z" style="fill-rule:nonzero;"/>
                    <path d="M687.732,512.758C687.131,512.758 686.656,512.461 686.309,511.867C685.961,511.273 685.787,510.447 685.787,509.389C685.787,508.326 685.957,507.494 686.297,506.893C686.637,506.291 687.105,505.99 687.703,505.99C688,505.99 688.257,506.063 688.474,506.21C688.69,506.356 688.891,506.604 689.074,506.951L689.168,506.951C689.121,506.357 689.098,505.941 689.098,505.703L689.098,503.523L690.656,503.523L690.656,512.641L689.496,512.641L689.232,511.791L689.18,511.791C688.848,512.436 688.365,512.758 687.732,512.758ZM688.236,511.439C688.525,511.439 688.736,511.308 688.869,511.044C689.002,510.78 689.074,510.301 689.086,509.605L689.086,509.4C689.086,508.643 689.019,508.109 688.884,507.801C688.749,507.492 688.527,507.338 688.219,507.338C687.93,507.338 687.72,507.515 687.589,507.868C687.458,508.222 687.393,508.736 687.393,509.412C687.393,510.088 687.459,510.595 687.592,510.933C687.725,511.271 687.939,511.439 688.236,511.439Z" style="fill-rule:nonzero;"/>
                    <path d="M695.473,510.73C695.473,511.367 695.286,511.864 694.913,512.222C694.54,512.579 693.99,512.758 693.264,512.758C692.619,512.758 692.086,512.631 691.664,512.377L691.664,511.023C691.879,511.172 692.13,511.295 692.417,511.393C692.704,511.49 692.957,511.539 693.176,511.539C693.418,511.539 693.603,511.479 693.729,511.36C693.856,511.241 693.92,511.084 693.92,510.889C693.92,510.689 693.854,510.516 693.721,510.367C693.588,510.219 693.344,510.037 692.988,509.822C692.516,509.541 692.177,509.241 691.972,508.923C691.767,508.604 691.664,508.229 691.664,507.795C691.664,507.24 691.854,506.801 692.235,506.477C692.616,506.152 693.139,505.99 693.803,505.99C694.381,505.99 694.926,506.143 695.438,506.447L694.928,507.566C694.51,507.34 694.143,507.227 693.826,507.227C693.627,507.227 693.478,507.279 693.378,507.385C693.278,507.49 693.229,507.619 693.229,507.771C693.229,507.947 693.29,508.104 693.413,508.24C693.536,508.377 693.766,508.547 694.102,508.75C694.508,508.996 694.793,509.205 694.957,509.377C695.121,509.549 695.248,509.744 695.338,509.963C695.428,510.182 695.473,510.437 695.473,510.73Z" style="fill-rule:nonzero;"/>
                    <path d="M699.961,510.73C699.961,511.367 699.774,511.864 699.401,512.222C699.028,512.579 698.479,512.758 697.752,512.758C697.107,512.758 696.574,512.631 696.152,512.377L696.152,511.023C696.367,511.172 696.618,511.295 696.905,511.393C697.192,511.49 697.445,511.539 697.664,511.539C697.906,511.539 698.091,511.479 698.218,511.36C698.345,511.241 698.408,511.084 698.408,510.889C698.408,510.689 698.342,510.516 698.209,510.367C698.076,510.219 697.832,510.037 697.477,509.822C697.004,509.541 696.665,509.241 696.46,508.923C696.255,508.604 696.152,508.229 696.152,507.795C696.152,507.24 696.343,506.801 696.724,506.477C697.104,506.152 697.627,505.99 698.291,505.99C698.869,505.99 699.414,506.143 699.926,506.447L699.416,507.566C698.998,507.34 698.631,507.227 698.314,507.227C698.115,507.227 697.966,507.279 697.866,507.385C697.767,507.49 697.717,507.619 697.717,507.771C697.717,507.947 697.778,508.104 697.901,508.24C698.024,508.377 698.254,508.547 698.59,508.75C698.996,508.996 699.281,509.205 699.445,509.377C699.609,509.549 699.736,509.744 699.826,509.963C699.916,510.182 699.961,510.437 699.961,510.73Z" style="fill-rule:nonzero;"/>
                    <rect x="700.945" y="503.523" width="1.559" height="9.117" style="fill-rule:nonzero;"/>
                    <path d="M703.799,511.838C703.799,511.533 703.88,511.297 704.042,511.129C704.204,510.961 704.445,510.877 704.766,510.877C705.086,510.877 705.328,510.96 705.492,511.126C705.656,511.292 705.738,511.529 705.738,511.838C705.738,512.143 705.653,512.379 705.483,512.547C705.313,512.715 705.074,512.799 704.766,512.799C704.449,512.799 704.209,512.714 704.045,512.544C703.881,512.374 703.799,512.139 703.799,511.838Z" style="fill-rule:nonzero;"/>
                    <path d="M709.207,512.758C708.43,512.758 707.838,512.475 707.432,511.908C707.025,511.342 706.822,510.51 706.822,509.412C706.822,508.264 707.015,507.406 707.399,506.84C707.784,506.273 708.379,505.99 709.184,505.99C709.426,505.99 709.68,506.025 709.945,506.096C710.211,506.166 710.449,506.268 710.66,506.4L710.215,507.613C709.891,507.422 709.604,507.326 709.354,507.326C709.021,507.326 708.782,507.499 708.636,507.845C708.489,508.19 708.416,508.709 708.416,509.4C708.416,510.076 708.488,510.581 708.633,510.915C708.777,511.249 709.014,511.416 709.342,511.416C709.732,511.416 710.141,511.279 710.566,511.006L710.566,512.377C710.156,512.631 709.703,512.758 709.207,512.758Z" style="fill-rule:nonzero;"/>
                    <path d="M716.338,509.365C716.338,510.436 716.111,511.269 715.658,511.864C715.205,512.46 714.584,512.758 713.795,512.758C713.295,512.758 712.854,512.621 712.471,512.348C712.088,512.074 711.793,511.681 711.586,511.167C711.379,510.653 711.275,510.053 711.275,509.365C711.275,508.307 711.5,507.479 711.949,506.884C712.398,506.288 713.021,505.99 713.818,505.99C714.588,505.99 715.2,506.294 715.655,506.901C716.11,507.509 716.338,508.33 716.338,509.365ZM712.869,509.365C712.869,510.045 712.943,510.559 713.092,510.906C713.24,511.254 713.479,511.428 713.807,511.428C714.432,511.428 714.744,510.74 714.744,509.365C714.744,508.682 714.669,508.171 714.519,507.833C714.368,507.495 714.131,507.326 713.807,507.326C713.479,507.326 713.24,507.495 713.092,507.833C712.943,508.171 712.869,508.682 712.869,509.365Z" style="fill-rule:nonzero;"/>
                    <path d="M723.914,512.641L723.914,508.75C723.914,507.793 723.678,507.314 723.205,507.314C722.861,507.314 722.615,507.485 722.467,507.827C722.318,508.169 722.244,508.717 722.244,509.471L722.244,512.641L720.674,512.641L720.674,508.75C720.674,507.793 720.434,507.314 719.953,507.314C719.617,507.314 719.373,507.484 719.221,507.824C719.068,508.164 718.992,508.725 718.992,509.506L718.992,512.641L717.434,512.641L717.434,506.113L718.67,506.113L718.857,506.951L718.957,506.951C719.113,506.619 719.327,506.376 719.599,506.222C719.87,506.067 720.16,505.99 720.469,505.99C721.266,505.99 721.797,506.367 722.063,507.121L722.121,507.121C722.453,506.367 722.986,505.99 723.721,505.99C724.299,505.99 724.737,506.193 725.036,506.6C725.335,507.006 725.484,507.6 725.484,508.381L725.484,512.641L723.914,512.641Z" style="fill-rule:nonzero;"/>
                    <path d="M730.869,504.074L727.676,512.641L726.176,512.641L729.369,504.074L730.869,504.074Z" style="fill-rule:nonzero;"/>
                </g>
            </g>
        </g>
    </g>
    <defs>
        <radialGradient id="_Radial1" cx="0" cy="0" r="1" gradientUnits="userSpaceOnUse" gradientTransform="matrix(343.567,15.3298,-22.5438,504.98,943.189,248.197)"><stop offset="0" style="stop-color:rgb(255,234,0);stop-opacity:1"/><stop offset="0.05" style="stop-color:rgb(255,234,0);stop-opacity:1"/><stop offset="0.12" style="stop-color:rgb(255,222,0);stop-opacity:1"/><stop offset="0.25" style="stop-color:rgb(255,191,0);stop-opacity:1"/><stop offset="0.43" style="stop-color:rgb(255,142,0);stop-opacity:1"/><stop offset="0.77" style="stop-color:rgb(255,39,45);stop-opacity:1"/><stop offset="0.87" style="stop-color:rgb(224,37,90);stop-opacity:1"/><stop offset="0.95" style="stop-color:rgb(204,36,119);stop-opacity:1"/><stop offset="1" style="stop-color:rgb(196,36,130);stop-opacity:1"/></radialGradient>
        <radialGradient id="_Radial2" cx="0" cy="0" r="1" gradientUnits="userSpaceOnUse" gradientTransform="matrix(969.256,0,0,969.256,698.118,195.133)"><stop offset="0" style="stop-color:rgb(0,204,218);stop-opacity:1"/><stop offset="0.22" style="stop-color:rgb(0,131,255);stop-opacity:1"/><stop offset="0.26" style="stop-color:rgb(0,122,249);stop-opacity:1"/><stop offset="0.33" style="stop-color:rgb(0,96,232);stop-opacity:1"/><stop offset="0.33" style="stop-color:rgb(0,95,231);stop-opacity:1"/><stop offset="0.44" style="stop-color:rgb(38,57,173);stop-opacity:1"/><stop offset="0.52" style="stop-color:rgb(64,30,132);stop-opacity:1"/><stop offset="0.57" style="stop-color:rgb(74,20,117);stop-opacity:1"/><stop offset="1" style="stop-color:rgb(74,20,117);stop-opacity:1"/></radialGradient>
        <linearGradient id="_Linear3" x1="0" y1="0" x2="1" y2="0" gradientUnits="userSpaceOnUse" gradientTransform="matrix(-191.438,-626.228,626.228,-191.438,575.669,731.188)"><stop offset="0" style="stop-color:rgb(0,15,67);stop-opacity:0.4"/><stop offset="0.49" style="stop-color:rgb(0,25,98);stop-opacity:0.172549"/><stop offset="1" style="stop-color:rgb(0,32,121);stop-opacity:0"/></linearGradient>
        <radialGradient id="_Radial4" cx="0" cy="0" r="1" gradientUnits="userSpaceOnUse" gradientTransform="matrix(325.334,32.827,-32.827,325.334,1027.72,637.453)"><stop offset="0" style="stop-color:rgb(255,234,0);stop-opacity:1"/><stop offset="0" style="stop-color:rgb(255,234,0);stop-opacity:1"/><stop offset="0.5" style="stop-color:rgb(255,39,45);stop-opacity:1"/><stop offset="1" style="stop-color:rgb(196,36,130);stop-opacity:1"/></radialGradient>
        <radialGradient id="_Radial5" cx="0" cy="0" r="1" gradientUnits="userSpaceOnUse" gradientTransform="matrix(543.281,54.8184,-54.8184,543.281,1029.76,322.526)"><stop offset="0" style="stop-color:rgb(255,233,0);stop-opacity:1"/><stop offset="0" style="stop-color:rgb(255,233,0);stop-opacity:1"/><stop offset="0.16" style="stop-color:rgb(255,175,14);stop-opacity:1"/><stop offset="0.32" style="stop-color:rgb(255,122,27);stop-opacity:1"/><stop offset="0.47" style="stop-color:rgb(255,78,38);stop-opacity:1"/><stop offset="0.62" style="stop-color:rgb(255,44,46);stop-opacity:1"/><stop offset="0.76" style="stop-color:rgb(255,20,52);stop-opacity:1"/><stop offset="0.89" style="stop-color:rgb(255,5,56);stop-opacity:1"/><stop offset="1" style="stop-color:rgb(255,0,57);stop-opacity:1"/></radialGradient>
        <radialGradient id="_Radial6" cx="0" cy="0" r="1" gradientUnits="userSpaceOnUse" gradientTransform="matrix(498.52,50.3018,-50.3018,498.52,1055.78,833.892)"><stop offset="0" style="stop-color:rgb(255,39,45);stop-opacity:1"/><stop offset="0" style="stop-color:rgb(255,39,45);stop-opacity:1"/><stop offset="0.5" style="stop-color:rgb(196,36,130);stop-opacity:1"/><stop offset="0.99" style="stop-color:rgb(98,7,0);stop-opacity:1"/><stop offset="1" style="stop-color:rgb(98,7,0);stop-opacity:1"/></radialGradient>
        <radialGradient id="_Radial7" cx="0" cy="0" r="1" gradientUnits="userSpaceOnUse" gradientTransform="matrix(782.18,0,0,782.18,750.189,396.041)"><stop offset="0" style="stop-color:rgb(255,234,0);stop-opacity:1"/><stop offset="0.16" style="stop-color:rgb(255,234,0);stop-opacity:1"/><stop offset="0.23" style="stop-color:rgb(255,222,0);stop-opacity:1"/><stop offset="0.37" style="stop-color:rgb(255,191,0);stop-opacity:1"/><stop offset="0.54" style="stop-color:rgb(255,142,0);stop-opacity:1"/><stop offset="0.76" style="stop-color:rgb(255,39,45);stop-opacity:1"/><stop offset="0.8" style="stop-color:rgb(249,36,51);stop-opacity:1"/><stop offset="0.84" style="stop-color:rgb(233,28,69);stop-opacity:1"/><stop offset="0.89" style="stop-color:rgb(207,14,98);stop-opacity:1"/><stop offset="0.94" style="stop-color:rgb(181,0,127);stop-opacity:1"/><stop offset="1" style="stop-color:rgb(181,0,127);stop-opacity:1"/></radialGradient>
        <radialGradient id="_Radial8" cx="0" cy="0" r="1" gradientUnits="userSpaceOnUse" gradientTransform="matrix(923.615,0,0,923.615,691.339,3.289)"><stop offset="0" style="stop-color:rgb(255,234,0);stop-opacity:1"/><stop offset="0.28" style="stop-color:rgb(255,234,0);stop-opacity:1"/><stop offset="0.4" style="stop-color:rgb(255,221,0);stop-opacity:1"/><stop offset="0.63" style="stop-color:rgb(255,186,0);stop-opacity:1"/><stop offset="0.86" style="stop-color:rgb(255,145,0);stop-opacity:1"/><stop offset="0.93" style="stop-color:rgb(255,103,17);stop-opacity:1"/><stop offset="0.99" style="stop-color:rgb(255,74,29);stop-opacity:1"/><stop offset="1" style="stop-color:rgb(255,74,29);stop-opacity:1"/></radialGradient>
        <linearGradient id="_Linear9" x1="0" y1="0" x2="1" y2="0" gradientUnits="userSpaceOnUse" gradientTransform="matrix(355.552,-53.3816,53.3816,355.552,214.099,356.871)"><stop offset="0" style="stop-color:rgb(196,36,130);stop-opacity:0.498039"/><stop offset="0.47" style="stop-color:rgb(255,39,45);stop-opacity:0.498039"/><stop offset="0.49" style="stop-color:rgb(255,44,44);stop-opacity:0.509804"/><stop offset="0.68" style="stop-color:rgb(255,122,26);stop-opacity:0.717647"/><stop offset="0.83" style="stop-color:rgb(255,178,13);stop-opacity:0.870588"/><stop offset="0.94" style="stop-color:rgb(255,214,5);stop-opacity:0.960784"/><stop offset="1" style="stop-color:rgb(255,227,2);stop-opacity:1"/></linearGradient>
        <linearGradient id="_Linear10" x1="0" y1="0" x2="1" y2="0" gradientUnits="userSpaceOnUse" gradientTransform="matrix(-40.3144,-144.605,144.605,-40.3144,178.625,261.874)"><stop offset="0" style="stop-color:rgb(137,21,81);stop-opacity:0.6"/><stop offset="1" style="stop-color:rgb(196,36,130);stop-opacity:0"/></linearGradient>
        <linearGradient id="_Linear11" x1="0" y1="0" x2="1" y2="0" gradientUnits="userSpaceOnUse" gradientTransform="matrix(82.9488,115.763,-115.763,82.9488,255.486,470.966)"><stop offset="0" style="stop-color:rgb(137,21,81);stop-opacity:0.498039"/><stop offset="0.01" style="stop-color:rgb(137,21,81);stop-opacity:0.498039"/><stop offset="0.48" style="stop-color:rgb(255,39,45);stop-opacity:0.498039"/><stop offset="1" style="stop-color:rgb(255,39,45);stop-opacity:0"/></linearGradient>
        <linearGradient id="_Linear12" x1="0" y1="0" x2="1" y2="0" gradientUnits="userSpaceOnUse" gradientTransform="matrix(7.54476,-74.4004,74.4004,7.54476,414.081,673.632)"><stop offset="0" style="stop-color:rgb(196,36,130);stop-opacity:1"/><stop offset="0.08" style="stop-color:rgb(196,36,130);stop-opacity:0.807843"/><stop offset="0.21" style="stop-color:rgb(196,36,130);stop-opacity:0.564706"/><stop offset="0.33" style="stop-color:rgb(196,36,130);stop-opacity:0.360784"/><stop offset="0.45" style="stop-color:rgb(196,36,130);stop-opacity:0.203922"/><stop offset="0.56" style="stop-color:rgb(196,36,130);stop-opacity:0.0901961"/><stop offset="0.67" style="stop-color:rgb(196,36,130);stop-opacity:0.0196078"/><stop offset="0.77" style="stop-color:rgb(196,36,130);stop-opacity:0"/><stop offset="1" style="stop-color:rgb(196,36,130);stop-opacity:0"/></linearGradient>
        <linearGradient id="_Linear13" x1="0" y1="0" x2="1" y2="0" gradientUnits="userSpaceOnUse" gradientTransform="matrix(305.656,683.495,-683.495,305.656,655.531,38.12)"><stop offset="0" style="stop-color:rgb(255,241,79);stop-opacity:1"/><stop offset="0.27" style="stop-color:rgb(255,238,76);stop-opacity:1"/><stop offset="0.45" style="stop-color:rgb(255,230,67);stop-opacity:1"/><stop offset="0.61" style="stop-color:rgb(255,216,52);stop-opacity:1"/><stop offset="0.76" style="stop-color:rgb(255,196,30);stop-opacity:1"/><stop offset="0.89" style="stop-color:rgb(255,171,2);stop-opacity:1"/><stop offset="0.9" style="stop-color:rgb(255,169,0);stop-opacity:1"/><stop offset="0.95" style="stop-color:rgb(255,160,0);stop-opacity:1"/><stop offset="1" style="stop-color:rgb(255,145,0);stop-opacity:1"/></linearGradient>
        <linearGradient id="_Linear14" x1="0" y1="0" x2="1" y2="0" gradientUnits="userSpaceOnUse" gradientTransform="matrix(-144.787,388.75,-388.75,-144.787,715.885,431.21)"><stop offset="0" style="stop-color:rgb(255,142,0);stop-opacity:1"/><stop offset="0.04" style="stop-color:rgb(255,142,0);stop-opacity:0.854902"/><stop offset="0.08" style="stop-color:rgb(255,142,0);stop-opacity:0.72549"/><stop offset="0.13" style="stop-color:rgb(255,142,0);stop-opacity:0.627451"/><stop offset="0.18" style="stop-color:rgb(255,142,0);stop-opacity:0.556863"/><stop offset="0.23" style="stop-color:rgb(255,142,0);stop-opacity:0.513725"/><stop offset="0.28" style="stop-color:rgb(255,142,0);stop-opacity:0.498039"/><stop offset="0.39" style="stop-color:rgb(255,142,0);stop-opacity:0.47451"/><stop offset="0.52" style="stop-color:rgb(255,142,0);stop-opacity:0.415686"/><stop offset="0.68" style="stop-color:rgb(255,142,0);stop-opacity:0.313725"/><stop offset="0.84" style="stop-color:rgb(255,142,0);stop-opacity:0.168627"/><stop offset="1" style="stop-color:rgb(255,142,0);stop-opacity:0"/></linearGradient>
    </defs>
</svg>
