<?xml version="1.0" encoding="UTF-8" standalone="no"?>
<!DOCTYPE svg PUBLIC "-//W3C//DTD SVG 1.1//EN" "http://www.w3.org/Graphics/SVG/1.1/DTD/svg11.dtd">
<svg width="100%" height="100%" viewBox="0 0 3450 1900" version="1.1" xmlns="http://www.w3.org/2000/svg" xmlns:xlink="http://www.w3.org/1999/xlink" xml:space="preserve" xmlns:serif="http://www.serif.com/" style="fill-rule:evenodd;clip-rule:evenodd;stroke-linecap:round;stroke-linejoin:round;stroke-miterlimit:1.41421;">
    <g transform="matrix(1,0,0,1,0,-118.739)">
        <g transform="matrix(0.54982,0,0,0.54982,281.508,1080)">
            <g transform="matrix(1,0,0,1,-512,-512)">
                <g>
                    <path d="M805.285,93.558C781.338,121.442 770.185,184.197 794.467,247.814C818.749,311.431 855.967,297.614 879.167,362.487C909.79,448.087 895.536,563.076 895.536,563.076C895.536,563.076 932.35,669.685 958.004,556.443C1014.79,343.74 805.285,145.937 805.285,93.558Z" style="fill:url(#_Radial1);fill-rule:nonzero;"/>
                    <path id="_Path_" d="M513.072,976.638C758.308,976.638 956.972,776.899 956.972,530.61C956.972,284.321 758.308,84.583 513.31,84.583C268.312,84.583 69.65,284.322 69.65,530.61C69.175,777.137 268.073,976.638 513.072,976.638Z" style="fill:url(#_Radial2);fill-rule:nonzero;"/>
                    <path d="M845.675,805.636C836.079,812.406 826.013,818.482 815.552,823.819C829.409,803.515 842.193,782.499 853.852,760.858C863.312,750.388 871.978,740.21 879.04,729.205C882.477,723.798 886.353,717.126 890.456,709.386C915.377,664.486 942.856,591.823 943.635,517.186L943.635,517.006C943.653,515.169 943.664,513.331 943.649,511.491C943.778,492.756 941.863,474.063 937.937,455.743C938.137,457.174 938.313,458.604 938.493,460.034C938.272,458.934 938.086,457.822 937.849,456.72C938.215,458.754 938.509,460.72 938.825,462.703C943.919,505.92 940.291,548.075 922.143,579.153C921.857,579.607 921.563,580.032 921.274,580.476C930.684,533.242 933.832,481.089 923.362,428.876C923.362,428.876 919.175,403.493 887.986,326.435C870.034,282.082 838.153,245.719 809.986,219.228C785.296,188.682 762.872,168.183 750.511,155.168C724.69,127.979 713.868,107.599 709.424,94.301C705.571,92.369 656.289,44.494 652.374,42.67C630.863,76.022 563.212,180.345 595.393,277.816C609.977,321.988 646.86,367.833 685.46,393.552C687.155,395.488 708.429,418.594 718.546,470.709C728.992,524.551 723.5,566.564 702,628.692C676.714,683.197 611.933,737.08 551.276,742.592C421.6,754.373 374.127,677.484 374.127,677.484C420.463,696.009 471.695,692.134 502.851,672.928C534.251,653.503 553.245,639.101 568.661,644.78C583.861,650.433 595.961,634.024 585.103,617.013C567.995,590.663 536.647,577.013 505.703,582.44C474.27,587.549 445.477,612.449 404.291,588.334C401.625,586.787 399.045,585.097 396.562,583.272C393.847,581.487 405.388,585.989 402.695,583.96C394.68,579.606 380.495,570.118 376.815,566.743C376.202,566.181 383.034,568.922 382.421,568.359C343.911,536.647 348.721,515.225 349.931,501.789C350.9,491.04 357.895,477.266 369.682,471.679C375.375,474.786 378.922,477.158 378.922,477.158C378.922,477.158 376.494,472.197 375.181,469.582C375.641,469.382 376.081,469.435 376.539,469.24C381.203,471.491 391.516,477.34 396.946,480.907C404.018,485.895 406.272,490.343 406.272,490.343C406.272,490.343 408.134,489.318 406.757,484.968C406.257,483.184 404.11,477.515 397.105,471.794L397.543,471.843C401.736,474.232 405.707,476.99 409.41,480.084C411.385,472.903 414.937,465.405 414.156,451.992C413.679,442.561 413.899,440.119 412.237,436.477C410.749,433.349 413.071,432.129 415.655,435.377C415.213,432.832 414.472,430.348 413.447,427.977L413.469,427.733C416.694,416.497 481.717,387.272 486.45,383.856C494.226,378.354 500.747,371.264 505.582,363.056C509.199,357.293 511.919,349.208 512.582,336.944C512.937,328.1 508.823,322.21 443.075,315.326C425.094,313.555 414.544,300.526 408.549,288.503C407.455,285.913 406.34,283.566 405.224,281.221C404.159,278.48 403.304,275.661 402.666,272.79C413.415,241.917 431.476,215.813 458.033,196.09C459.48,194.772 452.251,196.428 453.697,195.11C455.384,193.572 466.403,189.133 468.484,188.133C471.026,186.933 457.602,181.233 445.752,182.621C433.683,183.981 431.12,185.421 424.679,188.152C427.352,185.491 435.852,182.003 433.859,182.026C420.848,184.021 404.68,191.584 390.859,200.15C390.832,198.658 391.116,197.177 391.694,195.802C385.253,198.534 369.434,209.59 364.829,218.944C365.027,217.151 365.116,215.348 365.095,213.544C360.188,217.636 355.762,222.272 351.9,227.362L351.659,227.581C314.301,212.531 281.426,211.557 253.606,218.305C247.52,212.193 244.547,216.661 230.699,186.236C229.758,184.404 231.421,188.045 230.699,186.236C228.421,180.336 232.088,194.108 230.699,186.236C207.415,204.608 176.779,225.429 162.073,240.126C161.891,240.712 179.229,235.226 162.073,240.126C156.065,241.842 156.473,245.407 155.56,277.626C155.34,280.069 155.535,282.805 155.337,285.004C143.589,299.972 135.588,312.647 132.562,319.215C117.369,345.395 100.636,386.207 84.416,450.766C91.57,433.267 100.196,416.406 110.2,400.365C96.712,434.632 83.673,488.443 81.066,571.31C84.329,554.21 88.513,537.299 93.599,520.65C90.415,589.397 102.271,658.018 128.339,721.711C137.668,744.532 153.099,779.166 179.368,817.111C261.901,903.95 378.313,958.011 507.22,958.011C641.792,958.012 762.635,899.133 845.675,805.636Z" style="fill:url(#_Linear3);fill-rule:nonzero;"/>
                    <path d="M746.1,868.708C908.97,849.848 981.069,682.008 888.481,678.708C804.848,676.035 668.954,877.608 746.1,868.708Z" style="fill:url(#_Radial4);fill-rule:nonzero;"/>
                    <path d="M900.207,644.424C1012.26,579.21 983.046,438.344 983.046,438.344C983.046,438.344 939.8,488.582 910.421,568.664C881.4,647.963 832.837,683.812 900.207,644.424Z" style="fill:url(#_Radial5);fill-rule:nonzero;"/>
                    <path d="M544.474,952.062C700.701,1001.91 834.974,878.842 752.207,837.742C676.956,800.676 470.324,928.49 544.474,952.062Z" style="fill:url(#_Radial6);fill-rule:nonzero;"/>
                    <path d="M911.849,704.234C915.649,698.871 920.789,681.699 925.329,674.023C952.911,629.5 953.106,594 953.106,593.187C969.765,509.968 968.254,475.987 958.006,413.144C949.755,362.544 913.684,290.052 882.436,255.144C850.236,219.179 872.922,230.897 841.744,204.626C814.417,174.333 787.921,144.335 773.491,132.271C669.215,45.094 671.571,26.577 673.579,23.42C673.24,23.791 672.742,24.342 672.107,25.063C670.872,20.14 670,16 670,16C670,16 613,73 601,168C593.166,230.021 616.383,294.676 650,336C667.505,357.416 687.288,376.863 709,394L709,393.974C734.4,430.451 748.38,475.463 748.38,523.883C748.38,645.127 650.039,743.414 528.728,743.414C512.195,743.423 495.713,741.571 479.594,737.895C422.358,726.987 389.306,698.114 372.822,678.513C363.375,667.279 359.358,659.09 359.358,659.09C410.641,677.461 467.344,673.618 501.826,654.572C536.575,635.307 557.6,621.026 574.663,626.657C591.483,632.263 604.874,615.99 592.863,599.121C581.092,582.276 550.463,558.151 504.985,564.835C470.196,569.902 438.328,594.595 392.745,570.68C389.809,569.155 386.954,567.479 384.191,565.66C381.186,563.889 393.959,568.355 390.978,566.342C382.108,562.024 366.405,552.614 362.335,549.268C361.656,548.711 369.218,551.429 368.535,550.868C325.914,519.419 331.235,498.175 332.576,484.85C333.649,474.19 341.39,460.53 354.435,454.99C360.735,458.071 364.661,460.423 364.661,460.423C364.661,460.423 361.973,455.503 360.52,452.91C361.029,452.716 361.514,452.765 362.02,452.571C367.182,454.803 378.596,460.6 384.606,464.141C392.433,469.088 394.928,473.499 394.928,473.499C394.928,473.499 396.989,472.483 395.464,468.169C394.907,466.4 392.535,460.778 384.782,455.104L385.267,455.153C389.869,457.499 394.263,460.233 398.401,463.326C400.587,456.205 404.519,448.769 403.654,435.467C403.126,426.115 403.37,423.692 401.53,420.081C399.883,416.981 402.454,415.769 405.312,418.993C404.817,416.45 403.996,413.982 402.868,411.65L402.893,411.408C406.463,400.265 478.428,371.283 483.666,367.895C492.106,362.597 499.325,355.564 504.841,347.265C508.841,341.55 511.855,333.532 512.589,321.37C512.835,315.89 511.148,311.553 492.089,307.405C480.65,304.915 462.953,302.492 435.656,299.931C415.756,298.175 404.079,285.255 397.444,273.331C396.233,270.762 394.999,268.431 393.764,266.109C392.59,263.406 391.643,260.609 390.933,257.749C402.839,226.58 424.291,199.953 452.212,181.686C453.812,180.378 445.812,182.021 447.412,180.714C449.28,179.189 461.475,174.787 463.779,173.795C466.592,172.609 451.735,166.955 438.62,168.329C425.263,169.678 422.426,171.105 415.297,173.815C418.256,171.176 427.663,167.715 425.458,167.74C411.058,169.718 393.158,177.219 377.858,185.713C377.83,184.224 378.146,182.748 378.782,181.401C371.653,184.11 354.145,195.075 349.048,204.351C349.267,202.575 349.365,200.786 349.342,198.997C343.974,202.998 339.076,207.594 334.742,212.697L334.475,212.915C293.128,197.99 256.743,197.024 225.953,203.715C219.217,197.654 208.387,188.489 193.061,158.315C192.02,156.498 191.461,162.07 190.661,160.276C184.706,146.463 181.108,123.832 181.699,108.23C181.699,108.23 169.381,113.844 159.186,137.29C157.293,141.505 156.079,143.83 154.866,146.155C154.308,146.833 156.131,138.455 155.84,138.911C154.068,141.911 149.484,146.103 147.469,151.529C146.085,155.55 144.144,157.802 142.905,162.817L142.614,163.277C142.514,161.799 142.981,157.196 142.641,158.14C137.862,167.795 133.75,177.765 130.333,187.981C124.844,206.027 118.454,230.591 117.441,262.546C117.197,264.969 117.414,267.682 117.194,269.863C104.194,284.707 95.336,297.276 91.987,303.791C75.18,329.762 56.66,370.236 38.707,434.259C46.694,416.77 56.246,400.039 67.245,384.27C52.316,418.253 37.885,471.618 35,553.8C38.624,536.793 43.256,520.017 48.872,503.56C46.294,558.36 52.677,626.3 87.321,702.953C107.891,748.04 155.242,839.602 270.941,911.053L270.931,911.06C270.931,911.06 310.291,940.36 377.948,962.319C382.948,964.133 388.013,965.919 393.182,967.652C391.56,966.997 389.991,966.308 388.467,965.6C433.5,979.093 480.256,985.965 527.267,986C702.447,986.149 754.113,915.8 754.113,915.8C754.113,915.8 753.931,915.937 753.6,916.177C756.072,913.85 758.453,911.431 760.743,908.92C733.104,935.02 670.028,936.752 646.443,934.869C686.666,923.056 713.134,913.063 764.618,893.35C770.643,891.117 776.803,888.57 783.1,885.71C783.781,885.41 784.468,885.085 785.152,884.774C786.401,884.192 787.638,883.642 788.899,883.03C813.983,871.209 837.57,856.443 859.161,839.043C910.861,797.743 922.11,757.486 927.99,730.943C927.17,733.487 924.615,739.418 922.82,743.259C909.505,771.741 879.979,789.218 847.912,804.207C863.171,784.186 877.322,763.343 890.3,741.773C900.767,731.39 904.033,715.148 911.849,704.234Z" style="fill:url(#_Radial7);fill-rule:nonzero;"/>
                    <path d="M848.921,802.982C870.001,779.741 888.931,753.158 903.27,723.014C940.17,645.432 997.222,516.434 952.288,381.708C916.775,275.225 868.016,217 806.107,160.122C705.563,67.756 677.482,26.521 677.482,2C677.482,2 561.393,131.409 611.74,266.381C662.087,401.353 765.2,396.405 833.419,537.255C913.694,703 768.47,883.869 648.375,934.493C655.728,932.86 915.345,874.11 928.989,725.611C928.68,728.342 922.83,769.414 848.921,802.982Z" style="fill:url(#_Radial8);fill-rule:nonzero;"/>
                    <path d="M512.592,321.373C512.985,312.603 508.436,306.713 435.91,299.91C406.071,297.155 394.645,269.576 391.162,257.969C380.552,285.534 376.171,314.459 378.526,349.446C380.136,372.366 395.535,396.967 402.896,411.411C402.896,411.411 404.532,409.285 405.287,408.499C419.148,394.068 477.223,372.08 482.679,368.958C488.693,365.159 511.582,348.435 512.592,321.373Z" style="fill:url(#_Linear9);fill-rule:nonzero;"/>
                    <path d="M193.314,158.471C192.273,156.653 191.714,162.225 190.914,160.432C184.959,146.619 181.336,124.232 182.194,108.41C182.194,108.41 169.876,114.024 159.681,137.47C157.788,141.685 156.574,144.01 155.361,146.335C154.803,147.013 156.626,138.635 156.335,139.091C154.564,142.091 149.98,146.283 147.989,151.466C146.338,155.705 144.64,157.981 143.376,163.238C142.987,164.667 143.768,156.915 143.428,157.859C119.717,203.684 115.191,272.973 117.69,270.043C168.168,216.143 226.015,203.36 226.015,203.36C219.86,198.826 206.487,185.735 193.315,158.471L193.314,158.471Z" style="fill:url(#_Linear10);fill-rule:nonzero;"/>
                    <path d="M384.844,722.1C315.12,692.331 235.852,650.345 238.844,554.962C242.919,429.343 355.989,454.171 355.989,454.171C351.722,455.21 340.314,463.333 336.271,471.991C331.998,482.818 324.202,507.267 347.822,532.891C384.911,573.083 271.622,628.247 446.485,732.458C450.895,734.858 405.494,731.028 384.846,722.1L384.844,722.1Z" style="fill:url(#_Linear11);fill-rule:nonzero;"/>
                    <path d="M360.074,659.5C409.516,676.707 467.114,673.689 501.597,654.642C524.682,641.791 554.297,621.208 572.519,626.289C556.742,620.053 544.793,617.139 530.419,616.427C527.971,616.427 525.037,616.375 522.371,616.107C517.106,616.09 511.845,616.378 506.614,616.97C497.714,617.788 487.848,623.403 478.879,622.502C478.394,622.453 487.579,618.728 486.832,618.897C482.08,619.888 476.917,620.102 471.462,620.778C467.995,621.164 465.013,621.598 461.571,621.741C358.589,630.474 271.554,565.928 271.554,565.928C264.146,590.878 304.72,640.228 360.075,659.5L360.074,659.5Z" style="fill:url(#_Linear12);fill-rule:nonzero;"/>
                    <path d="M848.738,803.646C952.9,701.376 1005.6,577.061 983.321,437.627C983.321,437.627 992.221,509.127 958.473,582.255C974.686,510.862 976.573,422.141 933.498,330.267C876.005,207.636 781.45,143.109 745.351,116.189C690.656,75.4 667.983,33.87 667.574,25.3C651.235,58.777 601.808,173.5 662.264,272.3C718.904,364.864 808.129,392.339 870.592,477.247C985.667,633.667 848.738,803.646 848.738,803.646Z" style="fill:url(#_Linear13);fill-rule:nonzero;"/>
                    <path d="M833.814,537.551C797.412,462.35 751.978,429.55 709,394C714,401 715.232,403.473 718,408C755.827,448.316 811.607,546.656 771.11,670.107C694.881,902.482 389.967,793.057 358,762.319C370.932,896.808 596.036,961.164 742.6,873.949C826,795 893.468,660.788 833.814,537.551Z" style="fill:url(#_Linear14);fill-rule:nonzero;"/>
                </g>
            </g>
        </g>
        <g>
            <g transform="matrix(2.71534,0,0,2.84781,856.574,490.695)">
                <g transform="matrix(1,0,0,1,-150,-150)">
                    <g transform="matrix(1.48258,0,0,1.54388,-162.61,-436.075)">
                        <g id="Layer1">
                            <path d="M210.855,302.652C262.958,302.652 305.259,333.952 305.259,372.504C305.259,411.056 262.958,442.356 210.855,442.356C201.496,442.356 192.453,441.346 183.915,439.465C181.009,438.825 141.873,456.573 141.873,456.573C141.873,456.573 169.575,435.375 166.793,434.285C136.863,422.564 116.452,399.284 116.452,372.504C116.452,333.952 158.752,302.652 210.855,302.652Z" style="fill:white;stroke:black;stroke-width:3.6px;"/>
                        </g>
                    </g>
                </g>
            </g>
            <g transform="matrix(7.0339,0,0,7.0339,-3939.08,-2984.11)">
                <path d="M648.645,482.113L650.262,482.113L651.164,485.799C651.254,486.127 651.326,486.586 651.381,487.176L651.416,487.176C651.42,487.082 651.438,486.915 651.469,486.675C651.5,486.435 651.525,486.246 651.545,486.109C651.564,485.973 651.834,484.641 652.354,482.113L653.994,482.113L652.125,489.109C651.898,489.969 651.598,490.586 651.223,490.961C650.848,491.336 650.348,491.523 649.723,491.523C649.414,491.523 649.139,491.49 648.896,491.424L648.896,490.117C649.057,490.164 649.236,490.187 649.436,490.187C649.959,490.187 650.303,489.844 650.467,489.156L650.578,488.746L648.645,482.113Z" style="fill-rule:nonzero;"/>
                <path d="M659.49,485.365C659.49,486.436 659.264,487.269 658.811,487.864C658.357,488.46 657.736,488.758 656.947,488.758C656.447,488.758 656.006,488.621 655.623,488.348C655.24,488.074 654.945,487.681 654.738,487.167C654.531,486.653 654.428,486.053 654.428,485.365C654.428,484.307 654.652,483.479 655.102,482.884C655.551,482.288 656.174,481.99 656.971,481.99C657.74,481.99 658.353,482.294 658.808,482.901C659.263,483.509 659.49,484.33 659.49,485.365ZM656.021,485.365C656.021,486.045 656.096,486.559 656.244,486.906C656.393,487.254 656.631,487.428 656.959,487.428C657.584,487.428 657.896,486.74 657.896,485.365C657.896,484.682 657.821,484.171 657.671,483.833C657.521,483.495 657.283,483.326 656.959,483.326C656.631,483.326 656.393,483.495 656.244,483.833C656.096,484.171 656.021,484.682 656.021,485.365Z" style="fill-rule:nonzero;"/>
                <path d="M662.443,487.381C662.24,488.17 661.896,489.105 661.412,490.187L660.223,490.187C660.477,489.148 660.674,488.168 660.814,487.246L662.361,487.246L662.443,487.381Z" style="fill-rule:nonzero;"/>
                <path d="M668.947,488.758C668.17,488.758 667.578,488.475 667.172,487.908C666.766,487.342 666.563,486.51 666.563,485.412C666.563,484.264 666.755,483.406 667.14,482.84C667.524,482.273 668.119,481.99 668.924,481.99C669.166,481.99 669.42,482.025 669.686,482.096C669.951,482.166 670.189,482.268 670.4,482.4L669.955,483.613C669.631,483.422 669.344,483.326 669.094,483.326C668.762,483.326 668.522,483.499 668.376,483.845C668.229,484.19 668.156,484.709 668.156,485.4C668.156,486.076 668.229,486.581 668.373,486.915C668.518,487.249 668.754,487.416 669.082,487.416C669.473,487.416 669.881,487.279 670.307,487.006L670.307,488.377C669.896,488.631 669.443,488.758 668.947,488.758Z" style="fill-rule:nonzero;"/>
                <path d="M674.443,488.641L674.133,487.75L674.098,487.75C673.867,488.133 673.629,488.396 673.383,488.541C673.137,488.686 672.826,488.758 672.451,488.758C671.971,488.758 671.593,488.578 671.317,488.219C671.042,487.859 670.904,487.359 670.904,486.719C670.904,486.031 671.093,485.521 671.47,485.187C671.847,484.853 672.41,484.668 673.16,484.633L674.027,484.598L674.027,484.129C674.027,483.52 673.764,483.215 673.236,483.215C672.846,483.215 672.396,483.367 671.889,483.672L671.35,482.594C671.998,482.184 672.703,481.979 673.465,481.979C674.156,481.979 674.683,482.177 675.044,482.573C675.405,482.97 675.586,483.531 675.586,484.258L675.586,488.641L674.443,488.641ZM673.09,487.539C673.375,487.539 673.603,487.411 673.772,487.155C673.942,486.899 674.027,486.559 674.027,486.133L674.027,485.582L673.547,485.605C673.191,485.625 672.931,485.727 672.765,485.91C672.599,486.094 672.516,486.367 672.516,486.73C672.516,487.27 672.707,487.539 673.09,487.539Z" style="fill-rule:nonzero;"/>
                <path d="M680.098,488.641L680.098,484.75C680.098,484.277 680.041,483.92 679.928,483.678C679.814,483.436 679.631,483.314 679.377,483.314C679.041,483.314 678.795,483.481 678.639,483.815C678.482,484.149 678.404,484.713 678.404,485.506L678.404,488.641L676.846,488.641L676.846,482.113L678.082,482.113L678.27,482.951L678.369,482.951C678.51,482.65 678.711,482.415 678.973,482.245C679.234,482.075 679.541,481.99 679.893,481.99C680.486,481.99 680.931,482.193 681.226,482.6C681.521,483.006 681.668,483.6 681.668,484.381L681.668,488.641L680.098,488.641Z" style="fill-rule:nonzero;"/>
                <rect x="686.273" y="480.074" width="1.5" height="8.566" style="fill-rule:nonzero;"/>
                <path d="M695.707,488.641L695.707,484.75C695.707,483.793 695.467,483.314 694.986,483.314C694.627,483.314 694.375,483.503 694.23,483.88C694.086,484.257 694.014,484.799 694.014,485.506L694.014,488.641L692.455,488.641L692.455,479.523L694.014,479.523L694.014,481.551C694.014,481.812 693.99,482.279 693.943,482.951L694.025,482.951C694.338,482.311 694.818,481.99 695.467,481.99C696.064,481.99 696.516,482.192 696.82,482.597C697.125,483.001 697.277,483.596 697.277,484.381L697.277,488.641L695.707,488.641Z" style="fill-rule:nonzero;"/>
                <path d="M701.736,488.641L701.426,487.75L701.391,487.75C701.16,488.133 700.922,488.396 700.676,488.541C700.43,488.686 700.119,488.758 699.744,488.758C699.264,488.758 698.886,488.578 698.61,488.219C698.335,487.859 698.197,487.359 698.197,486.719C698.197,486.031 698.386,485.521 698.763,485.187C699.14,484.853 699.703,484.668 700.453,484.633L701.32,484.598L701.32,484.129C701.32,483.52 701.057,483.215 700.529,483.215C700.139,483.215 699.689,483.367 699.182,483.672L698.643,482.594C699.291,482.184 699.996,481.979 700.758,481.979C701.449,481.979 701.976,482.177 702.337,482.573C702.698,482.97 702.879,483.531 702.879,484.258L702.879,488.641L701.736,488.641ZM700.383,487.539C700.668,487.539 700.896,487.411 701.065,487.155C701.235,486.899 701.32,486.559 701.32,486.133L701.32,485.582L700.84,485.605C700.484,485.625 700.224,485.727 700.058,485.91C699.892,486.094 699.809,486.367 699.809,486.73C699.809,487.27 700,487.539 700.383,487.539Z" style="fill-rule:nonzero;"/>
                <path d="M705.182,488.641L703.477,482.113L705.094,482.113L705.926,485.893C705.961,486.068 706.003,486.325 706.052,486.663C706.101,487.001 706.131,487.244 706.143,487.393L706.166,487.393C706.17,487.275 706.187,487.107 706.216,486.889C706.245,486.67 706.275,486.469 706.307,486.285C706.338,486.102 706.639,484.711 707.209,482.113L708.826,482.113L707.115,488.641L705.182,488.641Z" style="fill-rule:nonzero;"/>
                <path d="M711.896,488.758C711.08,488.758 710.437,488.468 709.966,487.888C709.495,487.308 709.26,486.486 709.26,485.424C709.26,484.346 709.473,483.504 709.898,482.898C710.324,482.293 710.918,481.99 711.68,481.99C712.391,481.99 712.951,482.249 713.361,482.767C713.771,483.284 713.977,484.01 713.977,484.943L713.977,485.775L710.842,485.775C710.854,486.357 710.973,486.79 711.199,487.073C711.426,487.356 711.738,487.498 712.137,487.498C712.645,487.498 713.164,487.34 713.695,487.023L713.695,488.307C713.195,488.607 712.596,488.758 711.896,488.758ZM711.668,483.191C711.445,483.191 711.262,483.31 711.117,483.546C710.973,483.782 710.889,484.148 710.865,484.645L712.447,484.645C712.439,484.168 712.367,483.807 712.23,483.561C712.094,483.314 711.906,483.191 711.668,483.191Z" style="fill-rule:nonzero;"/>
                <path d="M640.453,500.641L640.453,496.75C640.453,495.793 640.213,495.314 639.732,495.314C639.373,495.314 639.121,495.503 638.977,495.88C638.832,496.257 638.76,496.799 638.76,497.506L638.76,500.641L637.201,500.641L637.201,491.523L638.76,491.523L638.76,493.551C638.76,493.812 638.736,494.279 638.689,494.951L638.771,494.951C639.084,494.311 639.564,493.99 640.213,493.99C640.811,493.99 641.262,494.192 641.566,494.597C641.871,495.001 642.023,495.596 642.023,496.381L642.023,500.641L640.453,500.641Z" style="fill-rule:nonzero;"/>
                <path d="M645.551,499.439C645.77,499.439 646.006,499.385 646.26,499.275L646.26,500.494C646.006,500.67 645.625,500.758 645.117,500.758C644.551,500.758 644.131,500.589 643.857,500.251C643.584,499.913 643.447,499.406 643.447,498.73L643.447,495.35L642.814,495.35L642.814,494.652L643.629,494.09L644.027,492.707L645.023,492.707L645.023,494.113L646.207,494.113L646.207,495.35L645.023,495.35L645.023,498.783C645.023,499.221 645.199,499.439 645.551,499.439Z" style="fill-rule:nonzero;"/>
                <path d="M649.441,499.439C649.66,499.439 649.896,499.385 650.15,499.275L650.15,500.494C649.896,500.67 649.516,500.758 649.008,500.758C648.441,500.758 648.021,500.589 647.748,500.251C647.475,499.913 647.338,499.406 647.338,498.73L647.338,495.35L646.705,495.35L646.705,494.652L647.52,494.09L647.918,492.707L648.914,492.707L648.914,494.113L650.098,494.113L650.098,495.35L648.914,495.35L648.914,498.783C648.914,499.221 649.09,499.439 649.441,499.439Z" style="fill-rule:nonzero;"/>
                <path d="M653.977,500.758C653.695,500.758 653.446,500.694 653.229,500.567C653.013,500.44 652.811,500.217 652.623,499.896L652.541,499.896C652.604,500.428 652.635,500.748 652.635,500.857L652.635,503.523L651.064,503.523L651.064,494.113L652.271,494.113L652.541,494.963L652.611,494.963C652.936,494.314 653.406,493.99 654.023,493.99C654.617,493.99 655.082,494.284 655.418,494.872C655.754,495.46 655.922,496.291 655.922,497.365C655.922,498.424 655.748,499.254 655.4,499.855C655.053,500.457 654.578,500.758 653.977,500.758ZM653.496,495.314C653.191,495.314 652.972,495.456 652.837,495.739C652.702,496.022 652.631,496.492 652.623,497.148L652.623,497.354C652.623,498.072 652.691,498.596 652.828,498.924C652.965,499.252 653.191,499.416 653.508,499.416C654.055,499.416 654.328,498.725 654.328,497.342C654.328,496.662 654.261,496.154 654.126,495.818C653.991,495.482 653.781,495.314 653.496,495.314Z" style="fill-rule:nonzero;"/>
                <path d="M657.006,499.838C657.006,499.533 657.087,499.297 657.249,499.129C657.411,498.961 657.652,498.877 657.973,498.877C658.293,498.877 658.535,498.96 658.699,499.126C658.863,499.292 658.945,499.529 658.945,499.838C658.945,500.143 658.86,500.379 658.69,500.547C658.521,500.715 658.281,500.799 657.973,500.799C657.656,500.799 657.416,500.714 657.252,500.544C657.088,500.374 657.006,500.139 657.006,499.838ZM657.006,494.939C657.006,494.635 657.087,494.398 657.249,494.23C657.411,494.062 657.652,493.979 657.973,493.979C658.293,493.979 658.535,494.062 658.699,494.228C658.863,494.394 658.945,494.631 658.945,494.939C658.945,495.244 658.86,495.48 658.69,495.648C658.521,495.816 658.281,495.9 657.973,495.9C657.656,495.9 657.416,495.815 657.252,495.646C657.088,495.476 657.006,495.24 657.006,494.939Z" style="fill-rule:nonzero;"/>
                <path d="M664.383,492.074L661.189,500.641L659.689,500.641L662.883,492.074L664.383,492.074Z" style="fill-rule:nonzero;"/>
                <path d="M669.24,492.074L666.047,500.641L664.547,500.641L667.74,492.074L669.24,492.074Z" style="fill-rule:nonzero;"/>
                <path d="M672.92,493.99C673.514,493.99 673.98,494.285 674.32,494.875C674.66,495.465 674.83,496.295 674.83,497.365C674.83,498.447 674.659,499.283 674.317,499.873C673.976,500.463 673.502,500.758 672.896,500.758C672.604,500.758 672.345,500.694 672.12,500.567C671.896,500.44 671.684,500.217 671.484,499.896L671.385,499.896L671.121,500.641L669.973,500.641L669.973,491.523L671.531,491.523L671.531,493.656C671.531,493.746 671.529,493.84 671.525,493.937C671.521,494.035 671.496,494.377 671.449,494.963L671.531,494.963C671.723,494.604 671.93,494.352 672.152,494.207C672.375,494.062 672.631,493.99 672.92,493.99ZM672.381,495.314C672.084,495.314 671.87,495.453 671.739,495.73C671.608,496.008 671.539,496.496 671.531,497.195L671.531,497.354C671.531,498.111 671.599,498.645 671.733,498.953C671.868,499.262 672.088,499.416 672.393,499.416C672.955,499.416 673.236,498.725 673.236,497.342C673.236,495.99 672.951,495.314 672.381,495.314Z" style="fill-rule:nonzero;"/>
                <path d="M679.125,500.641L678.814,499.75L678.779,499.75C678.549,500.133 678.311,500.396 678.064,500.541C677.818,500.686 677.508,500.758 677.133,500.758C676.652,500.758 676.274,500.578 675.999,500.219C675.724,499.859 675.586,499.359 675.586,498.719C675.586,498.031 675.774,497.521 676.151,497.187C676.528,496.853 677.092,496.668 677.842,496.633L678.709,496.598L678.709,496.129C678.709,495.52 678.445,495.215 677.918,495.215C677.527,495.215 677.078,495.367 676.57,495.672L676.031,494.594C676.68,494.184 677.385,493.979 678.146,493.979C678.838,493.979 679.364,494.177 679.726,494.573C680.087,494.97 680.268,495.531 680.268,496.258L680.268,500.641L679.125,500.641ZM677.771,499.539C678.057,499.539 678.284,499.411 678.454,499.155C678.624,498.899 678.709,498.559 678.709,498.133L678.709,497.582L678.229,497.605C677.873,497.625 677.612,497.727 677.446,497.91C677.28,498.094 677.197,498.367 677.197,498.73C677.197,499.27 677.389,499.539 677.771,499.539Z" style="fill-rule:nonzero;"/>
                <path d="M683.244,500.758C682.643,500.758 682.168,500.461 681.82,499.867C681.473,499.273 681.299,498.447 681.299,497.389C681.299,496.326 681.469,495.494 681.809,494.893C682.148,494.291 682.617,493.99 683.215,493.99C683.512,493.99 683.769,494.063 683.985,494.21C684.202,494.356 684.402,494.604 684.586,494.951L684.68,494.951C684.633,494.357 684.609,493.941 684.609,493.703L684.609,491.523L686.168,491.523L686.168,500.641L685.008,500.641L684.744,499.791L684.691,499.791C684.359,500.436 683.877,500.758 683.244,500.758ZM683.748,499.439C684.037,499.439 684.248,499.308 684.381,499.044C684.514,498.78 684.586,498.301 684.598,497.605L684.598,497.4C684.598,496.643 684.53,496.109 684.396,495.801C684.261,495.492 684.039,495.338 683.73,495.338C683.441,495.338 683.231,495.515 683.101,495.868C682.97,496.222 682.904,496.736 682.904,497.412C682.904,498.088 682.971,498.595 683.104,498.933C683.236,499.271 683.451,499.439 683.748,499.439Z" style="fill-rule:nonzero;"/>
                <path d="M690.984,498.73C690.984,499.367 690.798,499.864 690.425,500.222C690.052,500.579 689.502,500.758 688.775,500.758C688.131,500.758 687.598,500.631 687.176,500.377L687.176,499.023C687.391,499.172 687.642,499.295 687.929,499.393C688.216,499.49 688.469,499.539 688.688,499.539C688.93,499.539 689.114,499.479 689.241,499.36C689.368,499.241 689.432,499.084 689.432,498.889C689.432,498.689 689.365,498.516 689.232,498.367C689.1,498.219 688.855,498.037 688.5,497.822C688.027,497.541 687.688,497.241 687.483,496.923C687.278,496.604 687.176,496.229 687.176,495.795C687.176,495.24 687.366,494.801 687.747,494.477C688.128,494.152 688.65,493.99 689.314,493.99C689.893,493.99 690.438,494.143 690.949,494.447L690.439,495.566C690.021,495.34 689.654,495.227 689.338,495.227C689.139,495.227 688.989,495.279 688.89,495.385C688.79,495.49 688.74,495.619 688.74,495.771C688.74,495.947 688.802,496.104 688.925,496.24C689.048,496.377 689.277,496.547 689.613,496.75C690.02,496.996 690.305,497.205 690.469,497.377C690.633,497.549 690.76,497.744 690.85,497.963C690.939,498.182 690.984,498.437 690.984,498.73Z" style="fill-rule:nonzero;"/>
                <path d="M695.473,498.73C695.473,499.367 695.286,499.864 694.913,500.222C694.54,500.579 693.99,500.758 693.264,500.758C692.619,500.758 692.086,500.631 691.664,500.377L691.664,499.023C691.879,499.172 692.13,499.295 692.417,499.393C692.704,499.49 692.957,499.539 693.176,499.539C693.418,499.539 693.603,499.479 693.729,499.36C693.856,499.241 693.92,499.084 693.92,498.889C693.92,498.689 693.854,498.516 693.721,498.367C693.588,498.219 693.344,498.037 692.988,497.822C692.516,497.541 692.177,497.241 691.972,496.923C691.767,496.604 691.664,496.229 691.664,495.795C691.664,495.24 691.854,494.801 692.235,494.477C692.616,494.152 693.139,493.99 693.803,493.99C694.381,493.99 694.926,494.143 695.438,494.447L694.928,495.566C694.51,495.34 694.143,495.227 693.826,495.227C693.627,495.227 693.478,495.279 693.378,495.385C693.278,495.49 693.229,495.619 693.229,495.771C693.229,495.947 693.29,496.104 693.413,496.24C693.536,496.377 693.766,496.547 694.102,496.75C694.508,496.996 694.793,497.205 694.957,497.377C695.121,497.549 695.248,497.744 695.338,497.963C695.428,498.182 695.473,498.437 695.473,498.73Z" style="fill-rule:nonzero;"/>
                <rect x="696.457" y="491.523" width="1.559" height="9.117" style="fill-rule:nonzero;"/>
                <path d="M699.311,499.838C699.311,499.533 699.392,499.297 699.554,499.129C699.716,498.961 699.957,498.877 700.277,498.877C700.598,498.877 700.84,498.96 701.004,499.126C701.168,499.292 701.25,499.529 701.25,499.838C701.25,500.143 701.165,500.379 700.995,500.547C700.825,500.715 700.586,500.799 700.277,500.799C699.961,500.799 699.721,500.714 699.557,500.544C699.393,500.374 699.311,500.139 699.311,499.838Z" style="fill-rule:nonzero;"/>
                <path d="M704.719,500.758C703.941,500.758 703.35,500.475 702.943,499.908C702.537,499.342 702.334,498.51 702.334,497.412C702.334,496.264 702.526,495.406 702.911,494.84C703.296,494.273 703.891,493.99 704.695,493.99C704.938,493.99 705.191,494.025 705.457,494.096C705.723,494.166 705.961,494.268 706.172,494.4L705.727,495.613C705.402,495.422 705.115,495.326 704.865,495.326C704.533,495.326 704.294,495.499 704.147,495.845C704.001,496.19 703.928,496.709 703.928,497.4C703.928,498.076 704,498.581 704.145,498.915C704.289,499.249 704.525,499.416 704.854,499.416C705.244,499.416 705.652,499.279 706.078,499.006L706.078,500.377C705.668,500.631 705.215,500.758 704.719,500.758Z" style="fill-rule:nonzero;"/>
                <path d="M711.85,497.365C711.85,498.436 711.623,499.269 711.17,499.864C710.717,500.46 710.096,500.758 709.307,500.758C708.807,500.758 708.365,500.621 707.982,500.348C707.6,500.074 707.305,499.681 707.098,499.167C706.891,498.653 706.787,498.053 706.787,497.365C706.787,496.307 707.012,495.479 707.461,494.884C707.91,494.288 708.533,493.99 709.33,493.99C710.1,493.99 710.712,494.294 711.167,494.901C711.622,495.509 711.85,496.33 711.85,497.365ZM708.381,497.365C708.381,498.045 708.455,498.559 708.604,498.906C708.752,499.254 708.99,499.428 709.318,499.428C709.943,499.428 710.256,498.74 710.256,497.365C710.256,496.682 710.181,496.171 710.03,495.833C709.88,495.495 709.643,495.326 709.318,495.326C708.99,495.326 708.752,495.495 708.604,495.833C708.455,496.171 708.381,496.682 708.381,497.365Z" style="fill-rule:nonzero;"/>
                <path d="M719.426,500.641L719.426,496.75C719.426,495.793 719.189,495.314 718.717,495.314C718.373,495.314 718.127,495.485 717.979,495.827C717.83,496.169 717.756,496.717 717.756,497.471L717.756,500.641L716.186,500.641L716.186,496.75C716.186,495.793 715.945,495.314 715.465,495.314C715.129,495.314 714.885,495.484 714.732,495.824C714.58,496.164 714.504,496.725 714.504,497.506L714.504,500.641L712.945,500.641L712.945,494.113L714.182,494.113L714.369,494.951L714.469,494.951C714.625,494.619 714.839,494.376 715.11,494.222C715.382,494.067 715.672,493.99 715.98,493.99C716.777,493.99 717.309,494.367 717.574,495.121L717.633,495.121C717.965,494.367 718.498,493.99 719.232,493.99C719.811,493.99 720.249,494.193 720.548,494.6C720.847,495.006 720.996,495.6 720.996,496.381L720.996,500.641L719.426,500.641Z" style="fill-rule:nonzero;"/>
                <path d="M726.381,492.074L723.188,500.641L721.688,500.641L724.881,492.074L726.381,492.074Z" style="fill-rule:nonzero;"/>
            </g>
        </g>
    </g>
    <g id="SSL-Strip" serif:id="SSL Strip" transform="matrix(1,0,0,1,-17.3359,-118.739)">
        <g transform="matrix(1,0,0,1,1563.88,1080)">
            <g transform="matrix(1,0,0,1,-300,-600)">
                <g id="Layer11" serif:id="Layer1" transform="matrix(1,0,0,1,-300,0)">
                    <g id="Lower-Body" serif:id="Lower Body" transform="matrix(1,0,0,1,-24.1963,-5.71544)">
                        <path d="M817.41,956.715C683.698,922.876 559.017,923.37 422.531,956.715C429.851,1102.1 459.272,1137.71 459.272,1137.71C520.339,1180.7 723.954,1178.54 782.956,1137.71C782.956,1137.71 810.366,1102.29 817.41,956.715Z" style="fill:url(#_Radial15);stroke:black;stroke-width:14px;"/>
                    </g>
                    <g id="Upper-Body" serif:id="Upper Body" transform="matrix(1,0,0,1,-10.2123,-3.0085)">
                        <path d="M832.229,617.008C732.175,517.955 483.317,515.559 387.249,617.008C304.053,704.864 368.402,933.008 368.402,933.008C417.245,1033.87 784.962,1033.83 845.245,933.008C845.245,933.008 910.671,694.667 832.229,617.008Z" style="fill:url(#_Radial16);stroke:black;stroke-width:14px;"/>
                    </g>
                    <g id="Hair" transform="matrix(1,0,0,1,-30.6286,29.4039)">
                        <path d="M399.034,501.403C241.94,-107.205 1013.39,-104.336 864.184,497.061L399.034,501.403Z" style="fill:url(#_Radial17);stroke:black;stroke-width:14px;"/>
                    </g>
                    <g id="Face" transform="matrix(1,0,0,1,-28.8457,55.9892)">
                        <path d="M446.436,246.856C413.491,535.999 619.431,543.703 619.431,543.703C619.431,543.703 851.684,529.962 808.015,246.856L446.436,246.856Z" style="fill:url(#_Radial18);stroke:black;stroke-width:14px;"/>
                    </g>
                    <g id="Nose" transform="matrix(1,0,0,0.741416,-28.051,183.068)">
                        <path d="M590.695,354.89C613.771,319.813 637.115,316.95 662.908,354.89" style="fill:none;stroke:black;stroke-width:15.9px;"/>
                    </g>
                    <g id="Lower-Smile" serif:id="Lower Smile" transform="matrix(1,0,0,-1,-28.8457,959.887)">
                        <path d="M547.68,428.971C586.194,457.001 670.803,467.158 691.468,450.692" style="fill:none;stroke:black;stroke-width:14px;"/>
                    </g>
                    <g id="Left-Eye" serif:id="Left Eye" transform="matrix(0.96847,-0.249131,0.249131,0.96847,-95.9061,200.401)">
                        <ellipse cx="539.705" cy="311.029" rx="20.928" ry="27.361" style="stroke:black;stroke-width:14px;"/>
                    </g>
                    <g id="Right-Eye" serif:id="Right Eye" transform="matrix(0.94865,0.316329,-0.316329,0.94865,273.281,-98.8348)">
                        <ellipse cx="539.705" cy="311.029" rx="20.928" ry="27.361" style="stroke:black;stroke-width:14px;"/>
                    </g>
                    <g id="Left-Eyebrow" serif:id="Left Eyebrow" transform="matrix(1,0,0,1,281.806,0)">
                        <path d="M201.076,280.795L220.863,270.32L280.838,340.155L201.076,280.795Z" style="stroke:black;stroke-width:14px;"/>
                    </g>
                    <g id="Right-Eyebrow" serif:id="Right Eyebrow" transform="matrix(1.07707,0,0,1,254.595,0)">
                        <path d="M353.051,340.155L413.937,270.32L428.879,282.999L353.051,340.155Z" style="stroke:black;stroke-width:13.47px;"/>
                    </g>
                    <g id="Freckle" transform="matrix(0.693127,0,0,0.755628,362.384,110.38)">
                        <ellipse cx="159.899" cy="434.439" rx="8.678" ry="8.718"/>
                    </g>
                    <g id="Freckle1" serif:id="Freckle" transform="matrix(0.693127,0,0,0.755628,390.521,117.629)">
                        <ellipse cx="159.899" cy="434.439" rx="8.678" ry="8.718"/>
                    </g>
                    <g id="Freckle2" serif:id="Freckle" transform="matrix(0.693127,0,0,0.755628,368.591,153.454)">
                        <ellipse cx="159.899" cy="434.439" rx="8.678" ry="8.718"/>
                    </g>
                    <g id="Freckle3" serif:id="Freckle" transform="matrix(0.693127,0,0,0.755628,578.63,138.077)">
                        <ellipse cx="159.899" cy="434.439" rx="8.678" ry="8.718"/>
                    </g>
                    <g id="Freckle4" serif:id="Freckle" transform="matrix(0.693127,0,0,0.755628,598.87,95.585)">
                        <ellipse cx="159.899" cy="434.439" rx="8.678" ry="8.718"/>
                    </g>
                    <g id="Freckle5" serif:id="Freckle" transform="matrix(0.693127,0,0,0.755628,615.914,130.62)">
                        <ellipse cx="159.899" cy="434.439" rx="8.678" ry="8.718"/>
                    </g>
                </g>
            </g>
        </g>
        <g transform="matrix(7.0339,0,0,7.0339,-3095.13,-1692.92)">
            <path d="M642.674,486.262C642.674,487.035 642.396,487.645 641.839,488.09C641.282,488.535 640.508,488.758 639.516,488.758C638.602,488.758 637.793,488.586 637.09,488.242L637.09,486.555C637.668,486.812 638.157,486.994 638.558,487.1C638.958,487.205 639.324,487.258 639.656,487.258C640.055,487.258 640.36,487.182 640.573,487.029C640.786,486.877 640.893,486.65 640.893,486.35C640.893,486.182 640.846,486.032 640.752,485.901C640.658,485.771 640.521,485.645 640.339,485.523C640.157,485.402 639.787,485.209 639.229,484.943C638.705,484.697 638.313,484.461 638.051,484.234C637.789,484.008 637.58,483.744 637.424,483.443C637.268,483.143 637.189,482.791 637.189,482.389C637.189,481.631 637.446,481.035 637.96,480.602C638.474,480.168 639.184,479.951 640.09,479.951C640.535,479.951 640.96,480.004 641.364,480.109C641.769,480.215 642.191,480.363 642.633,480.555L642.047,481.967C641.59,481.779 641.212,481.648 640.913,481.574C640.614,481.5 640.32,481.463 640.031,481.463C639.688,481.463 639.424,481.543 639.24,481.703C639.057,481.863 638.965,482.072 638.965,482.33C638.965,482.49 639.002,482.63 639.076,482.749C639.15,482.868 639.269,482.983 639.431,483.095C639.593,483.206 639.977,483.406 640.582,483.695C641.383,484.078 641.932,484.462 642.229,484.847C642.525,485.231 642.674,485.703 642.674,486.262Z" style="fill-rule:nonzero;"/>
            <path d="M649.283,486.262C649.283,487.035 649.005,487.645 648.448,488.09C647.892,488.535 647.117,488.758 646.125,488.758C645.211,488.758 644.402,488.586 643.699,488.242L643.699,486.555C644.277,486.812 644.767,486.994 645.167,487.1C645.567,487.205 645.934,487.258 646.266,487.258C646.664,487.258 646.97,487.182 647.183,487.029C647.396,486.877 647.502,486.65 647.502,486.35C647.502,486.182 647.455,486.032 647.361,485.901C647.268,485.771 647.13,485.645 646.948,485.523C646.767,485.402 646.396,485.209 645.838,484.943C645.314,484.697 644.922,484.461 644.66,484.234C644.398,484.008 644.189,483.744 644.033,483.443C643.877,483.143 643.799,482.791 643.799,482.389C643.799,481.631 644.056,481.035 644.569,480.602C645.083,480.168 645.793,479.951 646.699,479.951C647.145,479.951 647.569,480.004 647.974,480.109C648.378,480.215 648.801,480.363 649.242,480.555L648.656,481.967C648.199,481.779 647.821,481.648 647.522,481.574C647.224,481.5 646.93,481.463 646.641,481.463C646.297,481.463 646.033,481.543 645.85,481.703C645.666,481.863 645.574,482.072 645.574,482.33C645.574,482.49 645.611,482.63 645.686,482.749C645.76,482.868 645.878,482.983 646.04,483.095C646.202,483.206 646.586,483.406 647.191,483.695C647.992,484.078 648.541,484.462 648.838,484.847C649.135,485.231 649.283,485.703 649.283,486.262Z" style="fill-rule:nonzero;"/>
            <path d="M650.836,488.641L650.836,480.074L652.652,480.074L652.652,487.141L656.127,487.141L656.127,488.641L650.836,488.641Z" style="fill-rule:nonzero;"/>
            <path d="M665.789,486.262C665.789,487.035 665.511,487.645 664.954,488.09C664.397,488.535 663.623,488.758 662.631,488.758C661.717,488.758 660.908,488.586 660.205,488.242L660.205,486.555C660.783,486.812 661.272,486.994 661.673,487.1C662.073,487.205 662.439,487.258 662.771,487.258C663.17,487.258 663.476,487.182 663.688,487.029C663.901,486.877 664.008,486.65 664.008,486.35C664.008,486.182 663.961,486.032 663.867,485.901C663.773,485.771 663.636,485.645 663.454,485.523C663.272,485.402 662.902,485.209 662.344,484.943C661.82,484.697 661.428,484.461 661.166,484.234C660.904,484.008 660.695,483.744 660.539,483.443C660.383,483.143 660.305,482.791 660.305,482.389C660.305,481.631 660.562,481.035 661.075,480.602C661.589,480.168 662.299,479.951 663.205,479.951C663.65,479.951 664.075,480.004 664.479,480.109C664.884,480.215 665.307,480.363 665.748,480.555L665.162,481.967C664.705,481.779 664.327,481.648 664.028,481.574C663.729,481.5 663.436,481.463 663.146,481.463C662.803,481.463 662.539,481.543 662.355,481.703C662.172,481.863 662.08,482.072 662.08,482.33C662.08,482.49 662.117,482.63 662.191,482.749C662.266,482.868 662.384,482.983 662.546,483.095C662.708,483.206 663.092,483.406 663.697,483.695C664.498,484.078 665.047,484.462 665.344,484.847C665.641,485.231 665.789,485.703 665.789,486.262Z" style="fill-rule:nonzero;"/>
            <path d="M669.961,487.334C670.273,487.334 670.648,487.266 671.086,487.129L671.086,488.459C670.641,488.658 670.094,488.758 669.445,488.758C668.73,488.758 668.21,488.577 667.884,488.216C667.558,487.854 667.395,487.312 667.395,486.59L667.395,483.432L666.539,483.432L666.539,482.676L667.523,482.078L668.039,480.695L669.182,480.695L669.182,482.09L671.016,482.09L671.016,483.432L669.182,483.432L669.182,486.59C669.182,486.844 669.253,487.031 669.396,487.152C669.538,487.273 669.727,487.334 669.961,487.334Z" style="fill-rule:nonzero;"/>
            <path d="M676.066,481.967C676.309,481.967 676.51,481.984 676.67,482.02L676.535,483.695C676.391,483.656 676.215,483.637 676.008,483.637C675.438,483.637 674.993,483.783 674.675,484.076C674.356,484.369 674.197,484.779 674.197,485.307L674.197,488.641L672.41,488.641L672.41,482.09L673.764,482.09L674.027,483.191L674.115,483.191C674.318,482.824 674.593,482.528 674.938,482.304C675.284,482.079 675.66,481.967 676.066,481.967Z" style="fill-rule:nonzero;"/>
            <path d="M677.783,480.396C677.783,479.814 678.107,479.523 678.756,479.523C679.404,479.523 679.729,479.814 679.729,480.396C679.729,480.674 679.647,480.89 679.485,481.044C679.323,481.198 679.08,481.275 678.756,481.275C678.107,481.275 677.783,480.982 677.783,480.396ZM679.646,488.641L677.859,488.641L677.859,482.09L679.646,482.09L679.646,488.641Z" style="fill-rule:nonzero;"/>
            <path d="M685.119,488.758C684.35,488.758 683.746,488.479 683.309,487.92L683.215,487.92C683.277,488.467 683.309,488.783 683.309,488.869L683.309,491.523L681.521,491.523L681.521,482.09L682.975,482.09L683.227,482.939L683.309,482.939C683.727,482.291 684.346,481.967 685.166,481.967C685.939,481.967 686.545,482.266 686.982,482.863C687.42,483.461 687.639,484.291 687.639,485.354C687.639,486.053 687.536,486.66 687.331,487.176C687.126,487.691 686.834,488.084 686.455,488.354C686.076,488.623 685.631,488.758 685.119,488.758ZM684.592,483.396C684.15,483.396 683.828,483.532 683.625,483.804C683.422,484.075 683.316,484.523 683.309,485.148L683.309,485.342C683.309,486.045 683.413,486.549 683.622,486.854C683.831,487.158 684.162,487.311 684.615,487.311C685.416,487.311 685.816,486.65 685.816,485.33C685.816,484.686 685.718,484.202 685.521,483.88C685.323,483.558 685.014,483.396 684.592,483.396Z" style="fill-rule:nonzero;"/>
        </g>
        <g transform="matrix(1,0,0,1,1414.6,-10.6953)">
            <g transform="matrix(2.71534,0,0,2.84781,856.574,490.695)">
                <g transform="matrix(1,0,0,1,-150,-150)">
                    <g transform="matrix(1.48258,0,0,1.54388,-162.61,-436.075)">
                        <g id="Layer12" serif:id="Layer1">
                            <path d="M210.855,302.652C262.958,302.652 305.259,333.952 305.259,372.504C305.259,411.056 262.958,442.356 210.855,442.356C201.496,442.356 192.453,441.346 183.915,439.465C181.009,438.825 141.873,456.573 141.873,456.573C141.873,456.573 169.575,435.375 166.793,434.285C136.863,422.564 116.452,399.284 116.452,372.504C116.452,333.952 158.752,302.652 210.855,302.652Z" style="fill:white;stroke:black;stroke-width:3.6px;"/>
                        </g>
                    </g>
                </g>
            </g>
            <g transform="matrix(7.0339,0,0,7.0339,-3951.94,-3022.19)">
                <path d="M653.584,488.641L652.025,488.641L652.025,482.113L653.584,482.113L653.584,488.641ZM651.961,480.408C651.961,480.15 652.036,479.946 652.187,479.796C652.337,479.646 652.547,479.57 652.816,479.57C653.07,479.57 653.273,479.646 653.426,479.796C653.578,479.946 653.654,480.15 653.654,480.408C653.654,480.674 653.576,480.88 653.42,481.026C653.264,481.173 653.063,481.246 652.816,481.246C652.559,481.246 652.352,481.173 652.195,481.026C652.039,480.88 651.961,480.674 651.961,480.408Z" style="fill-rule:nonzero;"/>
                <path d="M662.584,482.125L662.584,483.039L661.805,483.215C661.957,483.488 662.033,483.832 662.033,484.246C662.033,484.937 661.846,485.479 661.471,485.869C661.096,486.26 660.572,486.455 659.9,486.455C659.705,486.455 659.561,486.439 659.467,486.408C659.393,486.475 659.322,486.549 659.256,486.631C659.189,486.713 659.156,486.814 659.156,486.936C659.156,487.209 659.393,487.346 659.865,487.346L660.809,487.346C661.363,487.346 661.79,487.495 662.089,487.794C662.388,488.093 662.537,488.543 662.537,489.145C662.537,489.902 662.283,490.488 661.775,490.902C661.268,491.316 660.537,491.523 659.584,491.523C658.861,491.523 658.305,491.366 657.914,491.052C657.523,490.737 657.328,490.289 657.328,489.707C657.328,489.344 657.439,489.024 657.662,488.749C657.885,488.474 658.193,488.273 658.588,488.148C658.389,488.07 658.226,487.949 658.099,487.785C657.972,487.621 657.908,487.43 657.908,487.211C657.908,487.078 657.928,486.958 657.967,486.851C658.006,486.743 658.062,486.642 658.134,486.546C658.206,486.45 658.354,486.309 658.576,486.121C658.307,485.957 658.094,485.705 657.938,485.365C657.781,485.025 657.703,484.648 657.703,484.234C657.703,483.52 657.891,482.967 658.266,482.576C658.641,482.186 659.178,481.99 659.877,481.99C660.01,481.99 660.162,482.005 660.334,482.034C660.506,482.063 660.637,482.094 660.727,482.125L662.584,482.125ZM658.746,489.59C658.746,489.848 658.827,490.046 658.989,490.185C659.151,490.323 659.383,490.393 659.684,490.393C660.156,490.393 660.511,490.303 660.747,490.123C660.983,489.943 661.102,489.697 661.102,489.385C661.102,489.139 661.038,488.965 660.911,488.863C660.784,488.762 660.547,488.711 660.199,488.711L659.443,488.711C659.232,488.711 659.063,488.79 658.937,488.948C658.81,489.106 658.746,489.32 658.746,489.59ZM659.227,484.246C659.227,485.016 659.443,485.4 659.877,485.4C660.299,485.4 660.51,485.012 660.51,484.234C660.51,483.437 660.299,483.039 659.877,483.039C659.443,483.039 659.227,483.441 659.227,484.246Z" style="fill-rule:nonzero;"/>
                <path d="M666.896,488.641L666.703,487.803L666.621,487.803C666.477,488.1 666.271,488.333 666.003,488.503C665.735,488.673 665.43,488.758 665.086,488.758C664.5,488.758 664.057,488.559 663.756,488.16C663.455,487.762 663.305,487.166 663.305,486.373L663.305,482.113L664.881,482.113L664.881,485.998C664.881,486.475 664.938,486.834 665.051,487.076C665.164,487.318 665.348,487.439 665.602,487.439C665.938,487.439 666.183,487.271 666.337,486.936C666.491,486.6 666.568,486.035 666.568,485.242L666.568,482.113L668.145,482.113L668.145,488.641L666.896,488.641Z" style="fill-rule:nonzero;"/>
                <path d="M671.859,488.758C671.043,488.758 670.399,488.468 669.929,487.888C669.458,487.308 669.223,486.486 669.223,485.424C669.223,484.346 669.436,483.504 669.861,482.898C670.287,482.293 670.881,481.99 671.643,481.99C672.354,481.99 672.914,482.249 673.324,482.767C673.734,483.284 673.939,484.01 673.939,484.943L673.939,485.775L670.805,485.775C670.816,486.357 670.936,486.79 671.162,487.073C671.389,487.356 671.701,487.498 672.1,487.498C672.607,487.498 673.127,487.34 673.658,487.023L673.658,488.307C673.158,488.607 672.559,488.758 671.859,488.758ZM671.631,483.191C671.408,483.191 671.225,483.31 671.08,483.546C670.936,483.782 670.852,484.148 670.828,484.645L672.41,484.645C672.402,484.168 672.33,483.807 672.193,483.561C672.057,483.314 671.869,483.191 671.631,483.191Z" style="fill-rule:nonzero;"/>
                <path d="M678.475,486.73C678.475,487.367 678.288,487.864 677.915,488.222C677.542,488.579 676.992,488.758 676.266,488.758C675.621,488.758 675.088,488.631 674.666,488.377L674.666,487.023C674.881,487.172 675.132,487.295 675.419,487.393C675.706,487.49 675.959,487.539 676.178,487.539C676.42,487.539 676.604,487.479 676.731,487.36C676.858,487.241 676.922,487.084 676.922,486.889C676.922,486.689 676.855,486.516 676.723,486.367C676.59,486.219 676.346,486.037 675.99,485.822C675.518,485.541 675.179,485.241 674.974,484.923C674.769,484.604 674.666,484.229 674.666,483.795C674.666,483.24 674.856,482.801 675.237,482.477C675.618,482.152 676.141,481.99 676.805,481.99C677.383,481.99 677.928,482.143 678.439,482.447L677.93,483.566C677.512,483.34 677.145,483.227 676.828,483.227C676.629,483.227 676.479,483.279 676.38,483.385C676.28,483.49 676.23,483.619 676.23,483.771C676.23,483.947 676.292,484.104 676.415,484.24C676.538,484.377 676.768,484.547 677.104,484.75C677.51,484.996 677.795,485.205 677.959,485.377C678.123,485.549 678.25,485.744 678.34,485.963C678.43,486.182 678.475,486.437 678.475,486.73Z" style="fill-rule:nonzero;"/>
                <path d="M682.963,486.73C682.963,487.367 682.776,487.864 682.403,488.222C682.03,488.579 681.48,488.758 680.754,488.758C680.109,488.758 679.576,488.631 679.154,488.377L679.154,487.023C679.369,487.172 679.62,487.295 679.907,487.393C680.194,487.49 680.447,487.539 680.666,487.539C680.908,487.539 681.093,487.479 681.22,487.36C681.347,487.241 681.41,487.084 681.41,486.889C681.41,486.689 681.344,486.516 681.211,486.367C681.078,486.219 680.834,486.037 680.479,485.822C680.006,485.541 679.667,485.241 679.462,484.923C679.257,484.604 679.154,484.229 679.154,483.795C679.154,483.24 679.345,482.801 679.726,482.477C680.106,482.152 680.629,481.99 681.293,481.99C681.871,481.99 682.416,482.143 682.928,482.447L682.418,483.566C682,483.34 681.633,483.227 681.316,483.227C681.117,483.227 680.968,483.279 680.868,483.385C680.769,483.49 680.719,483.619 680.719,483.771C680.719,483.947 680.78,484.104 680.903,484.24C681.026,484.377 681.256,484.547 681.592,484.75C681.998,484.996 682.283,485.205 682.447,485.377C682.611,485.549 682.738,485.744 682.828,485.963C682.918,486.182 682.963,486.437 682.963,486.73Z" style="fill-rule:nonzero;"/>
                <path d="M686.25,482.113L687.867,482.113L688.77,485.799C688.859,486.127 688.932,486.586 688.986,487.176L689.021,487.176C689.025,487.082 689.043,486.915 689.074,486.675C689.105,486.435 689.131,486.246 689.15,486.109C689.17,485.973 689.439,484.641 689.959,482.113L691.6,482.113L689.73,489.109C689.504,489.969 689.203,490.586 688.828,490.961C688.453,491.336 687.953,491.523 687.328,491.523C687.02,491.523 686.744,491.49 686.502,491.424L686.502,490.117C686.662,490.164 686.842,490.187 687.041,490.187C687.564,490.187 687.908,489.844 688.072,489.156L688.184,488.746L686.25,482.113Z" style="fill-rule:nonzero;"/>
                <path d="M697.096,485.365C697.096,486.436 696.869,487.269 696.416,487.864C695.963,488.46 695.342,488.758 694.553,488.758C694.053,488.758 693.611,488.621 693.229,488.348C692.846,488.074 692.551,487.681 692.344,487.167C692.137,486.653 692.033,486.053 692.033,485.365C692.033,484.307 692.258,483.479 692.707,482.884C693.156,482.288 693.779,481.99 694.576,481.99C695.346,481.99 695.958,482.294 696.413,482.901C696.868,483.509 697.096,484.33 697.096,485.365ZM693.627,485.365C693.627,486.045 693.701,486.559 693.85,486.906C693.998,487.254 694.236,487.428 694.564,487.428C695.189,487.428 695.502,486.74 695.502,485.365C695.502,484.682 695.427,484.171 695.276,483.833C695.126,483.495 694.889,483.326 694.564,483.326C694.236,483.326 693.998,483.495 693.85,483.833C693.701,484.171 693.627,484.682 693.627,485.365Z" style="fill-rule:nonzero;"/>
                <path d="M701.719,488.641L701.525,487.803L701.443,487.803C701.299,488.1 701.093,488.333 700.825,488.503C700.558,488.673 700.252,488.758 699.908,488.758C699.322,488.758 698.879,488.559 698.578,488.16C698.277,487.762 698.127,487.166 698.127,486.373L698.127,482.113L699.703,482.113L699.703,485.998C699.703,486.475 699.76,486.834 699.873,487.076C699.986,487.318 700.17,487.439 700.424,487.439C700.76,487.439 701.005,487.271 701.159,486.936C701.313,486.6 701.391,486.035 701.391,485.242L701.391,482.113L702.967,482.113L702.967,488.641L701.719,488.641Z" style="fill-rule:nonzero;"/>
                <path d="M705.855,480.074L705.615,483.168L704.561,483.168L704.32,480.074L705.855,480.074Z" style="fill-rule:nonzero;"/>
                <path d="M710.01,481.99C710.201,481.99 710.389,482.02 710.572,482.078L710.391,483.59C710.281,483.551 710.139,483.531 709.963,483.531C709.584,483.531 709.293,483.681 709.09,483.979C708.887,484.278 708.785,484.713 708.785,485.283L708.785,488.641L707.227,488.641L707.227,482.113L708.51,482.113L708.686,483.133L708.738,483.133C708.91,482.723 709.098,482.43 709.301,482.254C709.504,482.078 709.74,481.99 710.01,481.99Z" style="fill-rule:nonzero;"/>
                <path d="M713.678,488.758C712.861,488.758 712.218,488.468 711.747,487.888C711.276,487.308 711.041,486.486 711.041,485.424C711.041,484.346 711.254,483.504 711.68,482.898C712.105,482.293 712.699,481.99 713.461,481.99C714.172,481.99 714.732,482.249 715.143,482.767C715.553,483.284 715.758,484.01 715.758,484.943L715.758,485.775L712.623,485.775C712.635,486.357 712.754,486.79 712.98,487.073C713.207,487.356 713.52,487.498 713.918,487.498C714.426,487.498 714.945,487.34 715.477,487.023L715.477,488.307C714.977,488.607 714.377,488.758 713.678,488.758ZM713.449,483.191C713.227,483.191 713.043,483.31 712.898,483.546C712.754,483.782 712.67,484.148 712.646,484.645L714.229,484.645C714.221,484.168 714.148,483.807 714.012,483.561C713.875,483.314 713.688,483.191 713.449,483.191Z" style="fill-rule:nonzero;"/>
                <path d="M647.827,498.73C647.827,499.367 647.641,499.864 647.268,500.222C646.895,500.579 646.345,500.758 645.618,500.758C644.974,500.758 644.44,500.631 644.019,500.377L644.019,499.023C644.233,499.172 644.484,499.295 644.771,499.393C645.059,499.49 645.312,499.539 645.53,499.539C645.772,499.539 645.957,499.479 646.084,499.36C646.211,499.241 646.274,499.084 646.274,498.889C646.274,498.689 646.208,498.516 646.075,498.367C645.942,498.219 645.698,498.037 645.343,497.822C644.87,497.541 644.531,497.241 644.326,496.923C644.121,496.604 644.019,496.229 644.019,495.795C644.019,495.24 644.209,494.801 644.59,494.477C644.971,494.152 645.493,493.99 646.157,493.99C646.735,493.99 647.28,494.143 647.792,494.447L647.282,495.566C646.864,495.34 646.497,495.227 646.181,495.227C645.981,495.227 645.832,495.279 645.732,495.385C645.633,495.49 645.583,495.619 645.583,495.771C645.583,495.947 645.645,496.104 645.768,496.24C645.891,496.377 646.12,496.547 646.456,496.75C646.862,496.996 647.147,497.205 647.312,497.377C647.476,497.549 647.603,497.744 647.692,497.963C647.782,498.182 647.827,498.437 647.827,498.73Z" style="fill-rule:nonzero;"/>
                <path d="M652.339,500.641L652.146,499.803L652.063,499.803C651.919,500.1 651.713,500.333 651.445,500.503C651.178,500.673 650.872,500.758 650.528,500.758C649.942,500.758 649.499,500.559 649.198,500.16C648.897,499.762 648.747,499.166 648.747,498.373L648.747,494.113L650.323,494.113L650.323,497.998C650.323,498.475 650.38,498.834 650.493,499.076C650.606,499.318 650.79,499.439 651.044,499.439C651.38,499.439 651.625,499.271 651.779,498.936C651.934,498.6 652.011,498.035 652.011,497.242L652.011,494.113L653.587,494.113L653.587,500.641L652.339,500.641Z" style="fill-rule:nonzero;"/>
                <path d="M657.806,500.758C657.524,500.758 657.275,500.694 657.059,500.567C656.842,500.44 656.64,500.217 656.452,499.896L656.37,499.896C656.433,500.428 656.464,500.748 656.464,500.857L656.464,503.523L654.894,503.523L654.894,494.113L656.101,494.113L656.37,494.963L656.44,494.963C656.765,494.314 657.235,493.99 657.853,493.99C658.446,493.99 658.911,494.284 659.247,494.872C659.583,495.46 659.751,496.291 659.751,497.365C659.751,498.424 659.577,499.254 659.229,499.855C658.882,500.457 658.407,500.758 657.806,500.758ZM657.325,495.314C657.021,495.314 656.801,495.456 656.666,495.739C656.531,496.022 656.46,496.492 656.452,497.148L656.452,497.354C656.452,498.072 656.521,498.596 656.657,498.924C656.794,499.252 657.021,499.416 657.337,499.416C657.884,499.416 658.157,498.725 658.157,497.342C658.157,496.662 658.09,496.154 657.955,495.818C657.82,495.482 657.61,495.314 657.325,495.314Z" style="fill-rule:nonzero;"/>
                <path d="M663.759,500.758C663.478,500.758 663.229,500.694 663.012,500.567C662.795,500.44 662.593,500.217 662.405,499.896L662.323,499.896C662.386,500.428 662.417,500.748 662.417,500.857L662.417,503.523L660.847,503.523L660.847,494.113L662.054,494.113L662.323,494.963L662.394,494.963C662.718,494.314 663.188,493.99 663.806,493.99C664.399,493.99 664.864,494.284 665.2,494.872C665.536,495.46 665.704,496.291 665.704,497.365C665.704,498.424 665.53,499.254 665.183,499.855C664.835,500.457 664.36,500.758 663.759,500.758ZM663.278,495.314C662.974,495.314 662.754,495.456 662.619,495.739C662.484,496.022 662.413,496.492 662.405,497.148L662.405,497.354C662.405,498.072 662.474,498.596 662.61,498.924C662.747,499.252 662.974,499.416 663.29,499.416C663.837,499.416 664.11,498.725 664.11,497.342C664.11,496.662 664.043,496.154 663.908,495.818C663.773,495.482 663.563,495.314 663.278,495.314Z" style="fill-rule:nonzero;"/>
                <path d="M671.634,497.365C671.634,498.436 671.407,499.269 670.954,499.864C670.501,500.46 669.88,500.758 669.091,500.758C668.591,500.758 668.149,500.621 667.767,500.348C667.384,500.074 667.089,499.681 666.882,499.167C666.675,498.653 666.571,498.053 666.571,497.365C666.571,496.307 666.796,495.479 667.245,494.884C667.694,494.288 668.317,493.99 669.114,493.99C669.884,493.99 670.496,494.294 670.951,494.901C671.406,495.509 671.634,496.33 671.634,497.365ZM668.165,497.365C668.165,498.045 668.239,498.559 668.388,498.906C668.536,499.254 668.774,499.428 669.103,499.428C669.728,499.428 670.04,498.74 670.04,497.365C670.04,496.682 669.965,496.171 669.814,495.833C669.664,495.495 669.427,495.326 669.103,495.326C668.774,495.326 668.536,495.495 668.388,495.833C668.239,496.171 668.165,496.682 668.165,497.365Z" style="fill-rule:nonzero;"/>
                <path d="M676.233,498.73C676.233,499.367 676.047,499.864 675.674,500.222C675.301,500.579 674.751,500.758 674.024,500.758C673.38,500.758 672.847,500.631 672.425,500.377L672.425,499.023C672.64,499.172 672.891,499.295 673.178,499.393C673.465,499.49 673.718,499.539 673.937,499.539C674.179,499.539 674.363,499.479 674.49,499.36C674.617,499.241 674.681,499.084 674.681,498.889C674.681,498.689 674.614,498.516 674.481,498.367C674.349,498.219 674.104,498.037 673.749,497.822C673.276,497.541 672.938,497.241 672.732,496.923C672.527,496.604 672.425,496.229 672.425,495.795C672.425,495.24 672.615,494.801 672.996,494.477C673.377,494.152 673.899,493.99 674.563,493.99C675.142,493.99 675.687,494.143 676.198,494.447L675.688,495.566C675.271,495.34 674.903,495.227 674.587,495.227C674.388,495.227 674.238,495.279 674.139,495.385C674.039,495.49 673.989,495.619 673.989,495.771C673.989,495.947 674.051,496.104 674.174,496.24C674.297,496.377 674.526,496.547 674.862,496.75C675.269,496.996 675.554,497.205 675.718,497.377C675.882,497.549 676.009,497.744 676.099,497.963C676.188,498.182 676.233,498.437 676.233,498.73Z" style="fill-rule:nonzero;"/>
                <path d="M679.626,500.758C678.81,500.758 678.166,500.468 677.695,499.888C677.225,499.308 676.989,498.486 676.989,497.424C676.989,496.346 677.202,495.504 677.628,494.898C678.054,494.293 678.647,493.99 679.409,493.99C680.12,493.99 680.681,494.249 681.091,494.767C681.501,495.284 681.706,496.01 681.706,496.943L681.706,497.775L678.571,497.775C678.583,498.357 678.702,498.79 678.929,499.073C679.155,499.356 679.468,499.498 679.866,499.498C680.374,499.498 680.894,499.34 681.425,499.023L681.425,500.307C680.925,500.607 680.325,500.758 679.626,500.758ZM679.397,495.191C679.175,495.191 678.991,495.31 678.847,495.546C678.702,495.782 678.618,496.148 678.595,496.645L680.177,496.645C680.169,496.168 680.097,495.807 679.96,495.561C679.823,495.314 679.636,495.191 679.397,495.191Z" style="fill-rule:nonzero;"/>
                <path d="M684.454,500.758C683.853,500.758 683.378,500.461 683.03,499.867C682.683,499.273 682.509,498.447 682.509,497.389C682.509,496.326 682.679,495.494 683.019,494.893C683.358,494.291 683.827,493.99 684.425,493.99C684.722,493.99 684.979,494.063 685.195,494.21C685.412,494.356 685.612,494.604 685.796,494.951L685.89,494.951C685.843,494.357 685.819,493.941 685.819,493.703L685.819,491.523L687.378,491.523L687.378,500.641L686.218,500.641L685.954,499.791L685.901,499.791C685.569,500.436 685.087,500.758 684.454,500.758ZM684.958,499.439C685.247,499.439 685.458,499.308 685.591,499.044C685.724,498.78 685.796,498.301 685.808,497.605L685.808,497.4C685.808,496.643 685.74,496.109 685.605,495.801C685.471,495.492 685.249,495.338 684.94,495.338C684.651,495.338 684.441,495.515 684.311,495.868C684.18,496.222 684.114,496.736 684.114,497.412C684.114,498.088 684.181,498.595 684.313,498.933C684.446,499.271 684.661,499.439 684.958,499.439Z" style="fill-rule:nonzero;"/>
                <path d="M693.923,499.439C694.142,499.439 694.378,499.385 694.632,499.275L694.632,500.494C694.378,500.67 693.997,500.758 693.489,500.758C692.923,500.758 692.503,500.589 692.229,500.251C691.956,499.913 691.819,499.406 691.819,498.73L691.819,495.35L691.187,495.35L691.187,494.652L692.001,494.09L692.399,492.707L693.396,492.707L693.396,494.113L694.579,494.113L694.579,495.35L693.396,495.35L693.396,498.783C693.396,499.221 693.571,499.439 693.923,499.439Z" style="fill-rule:nonzero;"/>
                <path d="M700.38,497.365C700.38,498.436 700.153,499.269 699.7,499.864C699.247,500.46 698.626,500.758 697.837,500.758C697.337,500.758 696.896,500.621 696.513,500.348C696.13,500.074 695.835,499.681 695.628,499.167C695.421,498.653 695.317,498.053 695.317,497.365C695.317,496.307 695.542,495.479 695.991,494.884C696.44,494.288 697.063,493.99 697.86,493.99C698.63,493.99 699.242,494.294 699.697,494.901C700.152,495.509 700.38,496.33 700.38,497.365ZM696.911,497.365C696.911,498.045 696.985,498.559 697.134,498.906C697.282,499.254 697.521,499.428 697.849,499.428C698.474,499.428 698.786,498.74 698.786,497.365C698.786,496.682 698.711,496.171 698.561,495.833C698.41,495.495 698.173,495.326 697.849,495.326C697.521,495.326 697.282,495.495 697.134,495.833C696.985,496.171 696.911,496.682 696.911,497.365Z" style="fill-rule:nonzero;"/>
                <path d="M707.388,493.99C707.981,493.99 708.448,494.285 708.788,494.875C709.128,495.465 709.298,496.295 709.298,497.365C709.298,498.447 709.127,499.283 708.785,499.873C708.443,500.463 707.97,500.758 707.364,500.758C707.071,500.758 706.813,500.694 706.588,500.567C706.363,500.44 706.151,500.217 705.952,499.896L705.853,499.896L705.589,500.641L704.44,500.641L704.44,491.523L705.999,491.523L705.999,493.656C705.999,493.746 705.997,493.84 705.993,493.937C705.989,494.035 705.964,494.377 705.917,494.963L705.999,494.963C706.19,494.604 706.397,494.352 706.62,494.207C706.843,494.062 707.099,493.99 707.388,493.99ZM706.849,495.314C706.552,495.314 706.338,495.453 706.207,495.73C706.076,496.008 706.007,496.496 705.999,497.195L705.999,497.354C705.999,498.111 706.066,498.645 706.201,498.953C706.336,499.262 706.556,499.416 706.86,499.416C707.423,499.416 707.704,498.725 707.704,497.342C707.704,495.99 707.419,495.314 706.849,495.314Z" style="fill-rule:nonzero;"/>
                <path d="M712.802,500.758C711.985,500.758 711.342,500.468 710.871,499.888C710.4,499.308 710.165,498.486 710.165,497.424C710.165,496.346 710.378,495.504 710.804,494.898C711.229,494.293 711.823,493.99 712.585,493.99C713.296,493.99 713.856,494.249 714.267,494.767C714.677,495.284 714.882,496.01 714.882,496.943L714.882,497.775L711.747,497.775C711.759,498.357 711.878,498.79 712.104,499.073C712.331,499.356 712.644,499.498 713.042,499.498C713.55,499.498 714.069,499.34 714.601,499.023L714.601,500.307C714.101,500.607 713.501,500.758 712.802,500.758ZM712.573,495.191C712.351,495.191 712.167,495.31 712.022,495.546C711.878,495.782 711.794,496.148 711.771,496.645L713.353,496.645C713.345,496.168 713.272,495.807 713.136,495.561C712.999,495.314 712.812,495.191 712.573,495.191Z" style="fill-rule:nonzero;"/>
                <path d="M722.077,500.641L721.767,499.75L721.731,499.75C721.501,500.133 721.263,500.396 721.017,500.541C720.771,500.686 720.46,500.758 720.085,500.758C719.604,500.758 719.227,500.578 718.951,500.219C718.676,499.859 718.538,499.359 718.538,498.719C718.538,498.031 718.727,497.521 719.104,497.187C719.48,496.853 720.044,496.668 720.794,496.633L721.661,496.598L721.661,496.129C721.661,495.52 721.397,495.215 720.87,495.215C720.479,495.215 720.03,495.367 719.522,495.672L718.983,494.594C719.632,494.184 720.337,493.979 721.099,493.979C721.79,493.979 722.316,494.177 722.678,494.573C723.039,494.97 723.22,495.531 723.22,496.258L723.22,500.641L722.077,500.641ZM720.724,499.539C721.009,499.539 721.236,499.411 721.406,499.155C721.576,498.899 721.661,498.559 721.661,498.133L721.661,497.582L721.181,497.605C720.825,497.625 720.564,497.727 720.398,497.91C720.232,498.094 720.149,498.367 720.149,498.73C720.149,499.27 720.341,499.539 720.724,499.539Z" style="fill-rule:nonzero;"/>
                <path d="M671.133,510.73C671.133,511.367 670.946,511.864 670.573,512.222C670.2,512.579 669.65,512.758 668.924,512.758C668.279,512.758 667.746,512.631 667.324,512.377L667.324,511.023C667.539,511.172 667.79,511.295 668.077,511.393C668.364,511.49 668.617,511.539 668.836,511.539C669.078,511.539 669.263,511.479 669.39,511.36C669.517,511.241 669.58,511.084 669.58,510.889C669.58,510.689 669.514,510.516 669.381,510.367C669.248,510.219 669.004,510.037 668.648,509.822C668.176,509.541 667.837,509.241 667.632,508.923C667.427,508.604 667.324,508.229 667.324,507.795C667.324,507.24 667.515,506.801 667.896,506.477C668.276,506.152 668.799,505.99 669.463,505.99C670.041,505.99 670.586,506.143 671.098,506.447L670.588,507.566C670.17,507.34 669.803,507.227 669.486,507.227C669.287,507.227 669.138,507.279 669.038,507.385C668.938,507.49 668.889,507.619 668.889,507.771C668.889,507.947 668.95,508.104 669.073,508.24C669.196,508.377 669.426,508.547 669.762,508.75C670.168,508.996 670.453,509.205 670.617,509.377C670.781,509.549 670.908,509.744 670.998,509.963C671.088,510.182 671.133,510.437 671.133,510.73Z" style="fill-rule:nonzero;"/>
                <path d="M674.525,512.758C673.709,512.758 673.065,512.468 672.595,511.888C672.124,511.308 671.889,510.486 671.889,509.424C671.889,508.346 672.102,507.504 672.527,506.898C672.953,506.293 673.547,505.99 674.309,505.99C675.02,505.99 675.58,506.249 675.99,506.767C676.4,507.284 676.605,508.01 676.605,508.943L676.605,509.775L673.471,509.775C673.482,510.357 673.602,510.79 673.828,511.073C674.055,511.356 674.367,511.498 674.766,511.498C675.273,511.498 675.793,511.34 676.324,511.023L676.324,512.307C675.824,512.607 675.225,512.758 674.525,512.758ZM674.297,507.191C674.074,507.191 673.891,507.31 673.746,507.546C673.602,507.782 673.518,508.148 673.494,508.645L675.076,508.645C675.068,508.168 674.996,507.807 674.859,507.561C674.723,507.314 674.535,507.191 674.297,507.191Z" style="fill-rule:nonzero;"/>
                <path d="M680.42,505.99C680.611,505.99 680.799,506.02 680.982,506.078L680.801,507.59C680.691,507.551 680.549,507.531 680.373,507.531C679.994,507.531 679.703,507.681 679.5,507.979C679.297,508.278 679.195,508.713 679.195,509.283L679.195,512.641L677.637,512.641L677.637,506.113L678.92,506.113L679.096,507.133L679.148,507.133C679.32,506.723 679.508,506.43 679.711,506.254C679.914,506.078 680.15,505.99 680.42,505.99Z" style="fill-rule:nonzero;"/>
                <path d="M682.723,512.641L681.018,506.113L682.635,506.113L683.467,509.893C683.502,510.068 683.544,510.325 683.593,510.663C683.642,511.001 683.672,511.244 683.684,511.393L683.707,511.393C683.711,511.275 683.728,511.107 683.757,510.889C683.786,510.67 683.816,510.469 683.848,510.285C683.879,510.102 684.18,508.711 684.75,506.113L686.367,506.113L684.656,512.641L682.723,512.641Z" style="fill-rule:nonzero;"/>
                <path d="M689.438,512.758C688.621,512.758 687.978,512.468 687.507,511.888C687.036,511.308 686.801,510.486 686.801,509.424C686.801,508.346 687.014,507.504 687.439,506.898C687.865,506.293 688.459,505.99 689.221,505.99C689.932,505.99 690.492,506.249 690.902,506.767C691.313,507.284 691.518,508.01 691.518,508.943L691.518,509.775L688.383,509.775C688.395,510.357 688.514,510.79 688.74,511.073C688.967,511.356 689.279,511.498 689.678,511.498C690.186,511.498 690.705,511.34 691.236,511.023L691.236,512.307C690.736,512.607 690.137,512.758 689.438,512.758ZM689.209,507.191C688.986,507.191 688.803,507.31 688.658,507.546C688.514,507.782 688.43,508.148 688.406,508.645L689.988,508.645C689.98,508.168 689.908,507.807 689.771,507.561C689.635,507.314 689.447,507.191 689.209,507.191Z" style="fill-rule:nonzero;"/>
                <path d="M695.332,505.99C695.523,505.99 695.711,506.02 695.895,506.078L695.713,507.59C695.604,507.551 695.461,507.531 695.285,507.531C694.906,507.531 694.615,507.681 694.412,507.979C694.209,508.278 694.107,508.713 694.107,509.283L694.107,512.641L692.549,512.641L692.549,506.113L693.832,506.113L694.008,507.133L694.061,507.133C694.232,506.723 694.42,506.43 694.623,506.254C694.826,506.078 695.063,505.99 695.332,505.99Z" style="fill-rule:nonzero;"/>
                <path d="M697.213,509.881L697.213,509.471C697.213,509.096 697.271,508.769 697.386,508.489C697.501,508.21 697.711,507.91 698.016,507.59C698.305,507.273 698.489,507.025 698.569,506.846C698.649,506.666 698.689,506.437 698.689,506.16C698.689,505.906 698.631,505.699 698.514,505.539C698.396,505.379 698.211,505.299 697.957,505.299C697.535,505.299 697.092,505.449 696.627,505.75L696.076,504.578C696.689,504.16 697.369,503.951 698.115,503.951C698.76,503.951 699.269,504.13 699.642,504.487C700.015,504.845 700.201,505.342 700.201,505.979C700.201,506.424 700.137,506.802 700.008,507.112C699.879,507.423 699.611,507.797 699.205,508.234C698.943,508.52 698.776,508.739 698.704,508.894C698.632,509.048 698.596,509.258 698.596,509.523L698.596,509.881L697.213,509.881ZM696.938,511.838C696.938,511.529 697.021,511.292 697.187,511.126C697.353,510.96 697.594,510.877 697.91,510.877C698.23,510.877 698.473,510.962 698.637,511.132C698.801,511.302 698.883,511.537 698.883,511.838C698.883,512.135 698.799,512.369 698.631,512.541C698.463,512.713 698.223,512.799 697.91,512.799C697.598,512.799 697.357,512.715 697.189,512.547C697.021,512.379 696.938,512.143 696.938,511.838Z" style="fill-rule:nonzero;"/>
            </g>
        </g>
    </g>
    <g transform="matrix(1,0,0,1,-19.1484,-118.739)">
        <g transform="matrix(1,0,0,1,19.3906,0)">
            <g transform="matrix(1,0,0,1,-73.3125,122.918)">
                <rect x="2905.5" y="149.758" width="600" height="1614.65"/>
                <path d="M3505.5,1764.41L2905.5,1764.41L2905.5,149.758L3505.5,149.758L3505.5,1764.41ZM2919.5,163.758L2919.5,1750.41L3491.5,1750.41L3491.5,163.758L2919.5,163.758Z" style="fill:rgb(115,140,136);"/>
            </g>
            <g transform="matrix(7.0339,0,0,7.0339,-1580.36,-2325.54)">
                <path d="M641.121,481.967C641.895,481.967 642.5,482.269 642.938,482.872C643.375,483.476 643.594,484.303 643.594,485.354C643.594,486.436 643.368,487.273 642.917,487.867C642.466,488.461 641.852,488.758 641.074,488.758C640.305,488.758 639.701,488.479 639.264,487.92L639.141,487.92L638.842,488.641L637.477,488.641L637.477,479.523L639.264,479.523L639.264,481.645C639.264,481.914 639.24,482.346 639.193,482.939L639.264,482.939C639.682,482.291 640.301,481.967 641.121,481.967ZM640.547,483.396C640.105,483.396 639.783,483.532 639.58,483.804C639.377,484.075 639.271,484.523 639.264,485.148L639.264,485.342C639.264,486.045 639.368,486.549 639.577,486.854C639.786,487.158 640.117,487.311 640.57,487.311C640.938,487.311 641.229,487.142 641.446,486.804C641.663,486.466 641.771,485.975 641.771,485.33C641.771,484.686 641.662,484.202 641.443,483.88C641.225,483.558 640.926,483.396 640.547,483.396Z" style="fill:white;fill-rule:nonzero;"/>
                <path d="M649.23,488.641L648.885,487.75L648.838,487.75C648.537,488.129 648.228,488.392 647.909,488.538C647.591,488.685 647.176,488.758 646.664,488.758C646.035,488.758 645.54,488.578 645.179,488.219C644.817,487.859 644.637,487.348 644.637,486.684C644.637,485.988 644.88,485.476 645.366,485.146C645.853,484.815 646.586,484.633 647.566,484.598L648.703,484.562L648.703,484.275C648.703,483.611 648.363,483.279 647.684,483.279C647.16,483.279 646.545,483.437 645.838,483.754L645.246,482.547C646,482.152 646.836,481.955 647.754,481.955C648.633,481.955 649.307,482.146 649.775,482.529C650.244,482.912 650.479,483.494 650.479,484.275L650.479,488.641L649.23,488.641ZM648.703,485.605L648.012,485.629C647.492,485.645 647.105,485.738 646.852,485.91C646.598,486.082 646.471,486.344 646.471,486.695C646.471,487.199 646.76,487.451 647.338,487.451C647.752,487.451 648.083,487.332 648.331,487.094C648.579,486.855 648.703,486.539 648.703,486.145L648.703,485.605Z" style="fill:white;fill-rule:nonzero;"/>
                <path d="M654.393,488.758C653.623,488.758 653.019,488.459 652.579,487.861C652.14,487.264 651.92,486.436 651.92,485.377C651.92,484.303 652.144,483.466 652.591,482.866C653.038,482.267 653.654,481.967 654.439,481.967C655.264,481.967 655.893,482.287 656.326,482.928L656.385,482.928C656.295,482.439 656.25,482.004 656.25,481.621L656.25,479.523L658.043,479.523L658.043,488.641L656.672,488.641L656.326,487.791L656.25,487.791C655.844,488.436 655.225,488.758 654.393,488.758ZM655.02,487.334C655.477,487.334 655.812,487.201 656.024,486.936C656.237,486.67 656.354,486.219 656.373,485.582L656.373,485.389C656.373,484.686 656.265,484.182 656.048,483.877C655.831,483.572 655.479,483.42 654.99,483.42C654.592,483.42 654.282,483.589 654.062,483.927C653.841,484.265 653.73,484.756 653.73,485.4C653.73,486.045 653.842,486.528 654.064,486.851C654.287,487.173 654.605,487.334 655.02,487.334Z" style="fill:white;fill-rule:nonzero;"/>
                <path d="M664.482,486.695C664.482,487.367 664.249,487.879 663.782,488.23C663.315,488.582 662.617,488.758 661.688,488.758C661.211,488.758 660.805,488.726 660.469,488.661C660.133,488.597 659.818,488.502 659.525,488.377L659.525,486.9C659.857,487.057 660.231,487.187 660.647,487.293C661.063,487.398 661.43,487.451 661.746,487.451C662.395,487.451 662.719,487.264 662.719,486.889C662.719,486.748 662.676,486.634 662.59,486.546C662.504,486.458 662.355,486.358 662.145,486.247C661.934,486.136 661.652,486.006 661.301,485.857C660.797,485.646 660.427,485.451 660.19,485.271C659.954,485.092 659.782,484.886 659.675,484.653C659.567,484.421 659.514,484.135 659.514,483.795C659.514,483.213 659.739,482.763 660.19,482.444C660.642,482.126 661.281,481.967 662.109,481.967C662.898,481.967 663.666,482.139 664.412,482.482L663.873,483.771C663.545,483.631 663.238,483.516 662.953,483.426C662.668,483.336 662.377,483.291 662.08,483.291C661.553,483.291 661.289,483.434 661.289,483.719C661.289,483.879 661.374,484.018 661.544,484.135C661.714,484.252 662.086,484.426 662.66,484.656C663.172,484.863 663.547,485.057 663.785,485.236C664.023,485.416 664.199,485.623 664.313,485.857C664.426,486.092 664.482,486.371 664.482,486.695Z" style="fill:white;fill-rule:nonzero;"/>
                <path d="M670.447,486.695C670.447,487.367 670.214,487.879 669.747,488.23C669.28,488.582 668.582,488.758 667.652,488.758C667.176,488.758 666.77,488.726 666.434,488.661C666.098,488.597 665.783,488.502 665.49,488.377L665.49,486.9C665.822,487.057 666.196,487.187 666.612,487.293C667.028,487.398 667.395,487.451 667.711,487.451C668.359,487.451 668.684,487.264 668.684,486.889C668.684,486.748 668.641,486.634 668.555,486.546C668.469,486.458 668.32,486.358 668.109,486.247C667.898,486.136 667.617,486.006 667.266,485.857C666.762,485.646 666.392,485.451 666.155,485.271C665.919,485.092 665.747,484.886 665.64,484.653C665.532,484.421 665.479,484.135 665.479,483.795C665.479,483.213 665.704,482.763 666.155,482.444C666.606,482.126 667.246,481.967 668.074,481.967C668.863,481.967 669.631,482.139 670.377,482.482L669.838,483.771C669.51,483.631 669.203,483.516 668.918,483.426C668.633,483.336 668.342,483.291 668.045,483.291C667.518,483.291 667.254,483.434 667.254,483.719C667.254,483.879 667.339,484.018 667.509,484.135C667.679,484.252 668.051,484.426 668.625,484.656C669.137,484.863 669.512,485.057 669.75,485.236C669.988,485.416 670.164,485.623 670.277,485.857C670.391,486.092 670.447,486.371 670.447,486.695Z" style="fill:white;fill-rule:nonzero;"/>
                <rect x="671.842" y="479.523" width="1.787" height="9.117" style="fill:white;fill-rule:nonzero;"/>
                <path d="M675.252,487.803C675.252,487.475 675.34,487.227 675.516,487.059C675.691,486.891 675.947,486.807 676.283,486.807C676.607,486.807 676.858,486.893 677.036,487.064C677.214,487.236 677.303,487.482 677.303,487.803C677.303,488.111 677.213,488.354 677.033,488.532C676.854,488.71 676.604,488.799 676.283,488.799C675.955,488.799 675.701,488.712 675.521,488.538C675.342,488.364 675.252,488.119 675.252,487.803Z" style="fill:white;fill-rule:nonzero;"/>
                <path d="M681.586,488.758C679.547,488.758 678.527,487.639 678.527,485.4C678.527,484.287 678.805,483.437 679.359,482.849C679.914,482.261 680.709,481.967 681.744,481.967C682.502,481.967 683.182,482.115 683.783,482.412L683.256,483.795C682.975,483.682 682.713,483.589 682.471,483.517C682.229,483.444 681.986,483.408 681.744,483.408C680.814,483.408 680.35,484.068 680.35,485.389C680.35,486.67 680.814,487.311 681.744,487.311C682.088,487.311 682.406,487.265 682.699,487.173C682.992,487.081 683.285,486.937 683.578,486.742L683.578,488.271C683.289,488.455 682.997,488.582 682.702,488.652C682.407,488.723 682.035,488.758 681.586,488.758Z" style="fill:white;fill-rule:nonzero;"/>
                <path d="M686.52,485.354C686.52,486.002 686.626,486.492 686.839,486.824C687.052,487.156 687.398,487.322 687.879,487.322C688.355,487.322 688.698,487.157 688.907,486.827C689.116,486.497 689.221,486.006 689.221,485.354C689.221,484.705 689.115,484.219 688.904,483.895C688.693,483.57 688.348,483.408 687.867,483.408C687.391,483.408 687.047,483.569 686.836,483.892C686.625,484.214 686.52,484.701 686.52,485.354ZM691.049,485.354C691.049,486.42 690.768,487.254 690.205,487.855C689.643,488.457 688.859,488.758 687.855,488.758C687.227,488.758 686.672,488.62 686.191,488.345C685.711,488.069 685.342,487.674 685.084,487.158C684.826,486.643 684.697,486.041 684.697,485.354C684.697,484.283 684.977,483.451 685.535,482.857C686.094,482.264 686.879,481.967 687.891,481.967C688.52,481.967 689.074,482.104 689.555,482.377C690.035,482.65 690.404,483.043 690.662,483.555C690.92,484.066 691.049,484.666 691.049,485.354Z" style="fill:white;fill-rule:nonzero;"/>
                <path d="M698.391,488.641L696.604,488.641L696.604,484.814C696.604,484.342 696.524,483.987 696.366,483.751C696.208,483.515 695.959,483.396 695.619,483.396C695.162,483.396 694.83,483.564 694.623,483.9C694.416,484.236 694.313,484.789 694.313,485.559L694.313,488.641L692.525,488.641L692.525,482.09L693.891,482.09L694.131,482.928L694.23,482.928C694.406,482.627 694.66,482.392 694.992,482.222C695.324,482.052 695.705,481.967 696.135,481.967C697.115,481.967 697.779,482.287 698.127,482.928L698.285,482.928C698.461,482.623 698.72,482.387 699.062,482.219C699.403,482.051 699.789,481.967 700.219,481.967C700.961,481.967 701.522,482.157 701.903,482.538C702.284,482.919 702.475,483.529 702.475,484.369L702.475,488.641L700.682,488.641L700.682,484.814C700.682,484.342 700.603,483.987 700.444,483.751C700.286,483.515 700.037,483.396 699.697,483.396C699.26,483.396 698.933,483.553 698.716,483.865C698.499,484.178 698.391,484.674 698.391,485.354L698.391,488.641Z" style="fill:white;fill-rule:nonzero;"/>
            </g>
        </g>
    </g>
    <defs>
        <radialGradient id="_Radial1" cx="0" cy="0" r="1" gradientUnits="userSpaceOnUse" gradientTransform="matrix(343.567,15.3298,-22.5438,504.98,943.189,248.197)"><stop offset="0" style="stop-color:rgb(255,234,0);stop-opacity:1"/><stop offset="0.05" style="stop-color:rgb(255,234,0);stop-opacity:1"/><stop offset="0.12" style="stop-color:rgb(255,222,0);stop-opacity:1"/><stop offset="0.25" style="stop-color:rgb(255,191,0);stop-opacity:1"/><stop offset="0.43" style="stop-color:rgb(255,142,0);stop-opacity:1"/><stop offset="0.77" style="stop-color:rgb(255,39,45);stop-opacity:1"/><stop offset="0.87" style="stop-color:rgb(224,37,90);stop-opacity:1"/><stop offset="0.95" style="stop-color:rgb(204,36,119);stop-opacity:1"/><stop offset="1" style="stop-color:rgb(196,36,130);stop-opacity:1"/></radialGradient>
        <radialGradient id="_Radial2" cx="0" cy="0" r="1" gradientUnits="userSpaceOnUse" gradientTransform="matrix(969.256,0,0,969.256,698.118,195.133)"><stop offset="0" style="stop-color:rgb(0,204,218);stop-opacity:1"/><stop offset="0.22" style="stop-color:rgb(0,131,255);stop-opacity:1"/><stop offset="0.26" style="stop-color:rgb(0,122,249);stop-opacity:1"/><stop offset="0.33" style="stop-color:rgb(0,96,232);stop-opacity:1"/><stop offset="0.33" style="stop-color:rgb(0,95,231);stop-opacity:1"/><stop offset="0.44" style="stop-color:rgb(38,57,173);stop-opacity:1"/><stop offset="0.52" style="stop-color:rgb(64,30,132);stop-opacity:1"/><stop offset="0.57" style="stop-color:rgb(74,20,117);stop-opacity:1"/><stop offset="1" style="stop-color:rgb(74,20,117);stop-opacity:1"/></radialGradient>
        <linearGradient id="_Linear3" x1="0" y1="0" x2="1" y2="0" gradientUnits="userSpaceOnUse" gradientTransform="matrix(-191.438,-626.228,626.228,-191.438,575.669,731.188)"><stop offset="0" style="stop-color:rgb(0,15,67);stop-opacity:0.4"/><stop offset="0.49" style="stop-color:rgb(0,25,98);stop-opacity:0.172549"/><stop offset="1" style="stop-color:rgb(0,32,121);stop-opacity:0"/></linearGradient>
        <radialGradient id="_Radial4" cx="0" cy="0" r="1" gradientUnits="userSpaceOnUse" gradientTransform="matrix(325.334,32.827,-32.827,325.334,1027.72,637.453)"><stop offset="0" style="stop-color:rgb(255,234,0);stop-opacity:1"/><stop offset="0" style="stop-color:rgb(255,234,0);stop-opacity:1"/><stop offset="0.5" style="stop-color:rgb(255,39,45);stop-opacity:1"/><stop offset="1" style="stop-color:rgb(196,36,130);stop-opacity:1"/></radialGradient>
        <radialGradient id="_Radial5" cx="0" cy="0" r="1" gradientUnits="userSpaceOnUse" gradientTransform="matrix(543.281,54.8184,-54.8184,543.281,1029.76,322.526)"><stop offset="0" style="stop-color:rgb(255,233,0);stop-opacity:1"/><stop offset="0" style="stop-color:rgb(255,233,0);stop-opacity:1"/><stop offset="0.16" style="stop-color:rgb(255,175,14);stop-opacity:1"/><stop offset="0.32" style="stop-color:rgb(255,122,27);stop-opacity:1"/><stop offset="0.47" style="stop-color:rgb(255,78,38);stop-opacity:1"/><stop offset="0.62" style="stop-color:rgb(255,44,46);stop-opacity:1"/><stop offset="0.76" style="stop-color:rgb(255,20,52);stop-opacity:1"/><stop offset="0.89" style="stop-color:rgb(255,5,56);stop-opacity:1"/><stop offset="1" style="stop-color:rgb(255,0,57);stop-opacity:1"/></radialGradient>
        <radialGradient id="_Radial6" cx="0" cy="0" r="1" gradientUnits="userSpaceOnUse" gradientTransform="matrix(498.52,50.3018,-50.3018,498.52,1055.78,833.892)"><stop offset="0" style="stop-color:rgb(255,39,45);stop-opacity:1"/><stop offset="0" style="stop-color:rgb(255,39,45);stop-opacity:1"/><stop offset="0.5" style="stop-color:rgb(196,36,130);stop-opacity:1"/><stop offset="0.99" style="stop-color:rgb(98,7,0);stop-opacity:1"/><stop offset="1" style="stop-color:rgb(98,7,0);stop-opacity:1"/></radialGradient>
        <radialGradient id="_Radial7" cx="0" cy="0" r="1" gradientUnits="userSpaceOnUse" gradientTransform="matrix(782.18,0,0,782.18,750.189,396.041)"><stop offset="0" style="stop-color:rgb(255,234,0);stop-opacity:1"/><stop offset="0.16" style="stop-color:rgb(255,234,0);stop-opacity:1"/><stop offset="0.23" style="stop-color:rgb(255,222,0);stop-opacity:1"/><stop offset="0.37" style="stop-color:rgb(255,191,0);stop-opacity:1"/><stop offset="0.54" style="stop-color:rgb(255,142,0);stop-opacity:1"/><stop offset="0.76" style="stop-color:rgb(255,39,45);stop-opacity:1"/><stop offset="0.8" style="stop-color:rgb(249,36,51);stop-opacity:1"/><stop offset="0.84" style="stop-color:rgb(233,28,69);stop-opacity:1"/><stop offset="0.89" style="stop-color:rgb(207,14,98);stop-opacity:1"/><stop offset="0.94" style="stop-color:rgb(181,0,127);stop-opacity:1"/><stop offset="1" style="stop-color:rgb(181,0,127);stop-opacity:1"/></radialGradient>
        <radialGradient id="_Radial8" cx="0" cy="0" r="1" gradientUnits="userSpaceOnUse" gradientTransform="matrix(923.615,0,0,923.615,691.339,3.289)"><stop offset="0" style="stop-color:rgb(255,234,0);stop-opacity:1"/><stop offset="0.28" style="stop-color:rgb(255,234,0);stop-opacity:1"/><stop offset="0.4" style="stop-color:rgb(255,221,0);stop-opacity:1"/><stop offset="0.63" style="stop-color:rgb(255,186,0);stop-opacity:1"/><stop offset="0.86" style="stop-color:rgb(255,145,0);stop-opacity:1"/><stop offset="0.93" style="stop-color:rgb(255,103,17);stop-opacity:1"/><stop offset="0.99" style="stop-color:rgb(255,74,29);stop-opacity:1"/><stop offset="1" style="stop-color:rgb(255,74,29);stop-opacity:1"/></radialGradient>
        <linearGradient id="_Linear9" x1="0" y1="0" x2="1" y2="0" gradientUnits="userSpaceOnUse" gradientTransform="matrix(355.552,-53.3816,53.3816,355.552,214.099,356.871)"><stop offset="0" style="stop-color:rgb(196,36,130);stop-opacity:0.498039"/><stop offset="0.47" style="stop-color:rgb(255,39,45);stop-opacity:0.498039"/><stop offset="0.49" style="stop-color:rgb(255,44,44);stop-opacity:0.509804"/><stop offset="0.68" style="stop-color:rgb(255,122,26);stop-opacity:0.717647"/><stop offset="0.83" style="stop-color:rgb(255,178,13);stop-opacity:0.870588"/><stop offset="0.94" style="stop-color:rgb(255,214,5);stop-opacity:0.960784"/><stop offset="1" style="stop-color:rgb(255,227,2);stop-opacity:1"/></linearGradient>
        <linearGradient id="_Linear10" x1="0" y1="0" x2="1" y2="0" gradientUnits="userSpaceOnUse" gradientTransform="matrix(-40.3144,-144.605,144.605,-40.3144,178.625,261.874)"><stop offset="0" style="stop-color:rgb(137,21,81);stop-opacity:0.6"/><stop offset="1" style="stop-color:rgb(196,36,130);stop-opacity:0"/></linearGradient>
        <linearGradient id="_Linear11" x1="0" y1="0" x2="1" y2="0" gradientUnits="userSpaceOnUse" gradientTransform="matrix(82.9488,115.763,-115.763,82.9488,255.486,470.966)"><stop offset="0" style="stop-color:rgb(137,21,81);stop-opacity:0.498039"/><stop offset="0.01" style="stop-color:rgb(137,21,81);stop-opacity:0.498039"/><stop offset="0.48" style="stop-color:rgb(255,39,45);stop-opacity:0.498039"/><stop offset="1" style="stop-color:rgb(255,39,45);stop-opacity:0"/></linearGradient>
        <linearGradient id="_Linear12" x1="0" y1="0" x2="1" y2="0" gradientUnits="userSpaceOnUse" gradientTransform="matrix(7.54476,-74.4004,74.4004,7.54476,414.081,673.632)"><stop offset="0" style="stop-color:rgb(196,36,130);stop-opacity:1"/><stop offset="0.08" style="stop-color:rgb(196,36,130);stop-opacity:0.807843"/><stop offset="0.21" style="stop-color:rgb(196,36,130);stop-opacity:0.564706"/><stop offset="0.33" style="stop-color:rgb(196,36,130);stop-opacity:0.360784"/><stop offset="0.45" style="stop-color:rgb(196,36,130);stop-opacity:0.203922"/><stop offset="0.56" style="stop-color:rgb(196,36,130);stop-opacity:0.0901961"/><stop offset="0.67" style="stop-color:rgb(196,36,130);stop-opacity:0.0196078"/><stop offset="0.77" style="stop-color:rgb(196,36,130);stop-opacity:0"/><stop offset="1" style="stop-color:rgb(196,36,130);stop-opacity:0"/></linearGradient>
        <linearGradient id="_Linear13" x1="0" y1="0" x2="1" y2="0" gradientUnits="userSpaceOnUse" gradientTransform="matrix(305.656,683.495,-683.495,305.656,655.531,38.12)"><stop offset="0" style="stop-color:rgb(255,241,79);stop-opacity:1"/><stop offset="0.27" style="stop-color:rgb(255,238,76);stop-opacity:1"/><stop offset="0.45" style="stop-color:rgb(255,230,67);stop-opacity:1"/><stop offset="0.61" style="stop-color:rgb(255,216,52);stop-opacity:1"/><stop offset="0.76" style="stop-color:rgb(255,196,30);stop-opacity:1"/><stop offset="0.89" style="stop-color:rgb(255,171,2);stop-opacity:1"/><stop offset="0.9" style="stop-color:rgb(255,169,0);stop-opacity:1"/><stop offset="0.95" style="stop-color:rgb(255,160,0);stop-opacity:1"/><stop offset="1" style="stop-color:rgb(255,145,0);stop-opacity:1"/></linearGradient>
        <linearGradient id="_Linear14" x1="0" y1="0" x2="1" y2="0" gradientUnits="userSpaceOnUse" gradientTransform="matrix(-144.787,388.75,-388.75,-144.787,715.885,431.21)"><stop offset="0" style="stop-color:rgb(255,142,0);stop-opacity:1"/><stop offset="0.04" style="stop-color:rgb(255,142,0);stop-opacity:0.854902"/><stop offset="0.08" style="stop-color:rgb(255,142,0);stop-opacity:0.72549"/><stop offset="0.13" style="stop-color:rgb(255,142,0);stop-opacity:0.627451"/><stop offset="0.18" style="stop-color:rgb(255,142,0);stop-opacity:0.556863"/><stop offset="0.23" style="stop-color:rgb(255,142,0);stop-opacity:0.513725"/><stop offset="0.28" style="stop-color:rgb(255,142,0);stop-opacity:0.498039"/><stop offset="0.39" style="stop-color:rgb(255,142,0);stop-opacity:0.47451"/><stop offset="0.52" style="stop-color:rgb(255,142,0);stop-opacity:0.415686"/><stop offset="0.68" style="stop-color:rgb(255,142,0);stop-opacity:0.313725"/><stop offset="0.84" style="stop-color:rgb(255,142,0);stop-opacity:0.168627"/><stop offset="1" style="stop-color:rgb(255,142,0);stop-opacity:0"/></linearGradient>
        <radialGradient id="_Radial15" cx="0" cy="0" r="1" gradientUnits="userSpaceOnUse" gradientTransform="matrix(417.745,0,0,417.745,436.778,1106.43)"><stop offset="0" style="stop-color:rgb(229,221,0);stop-opacity:1"/><stop offset="1" style="stop-color:rgb(98,93,0);stop-opacity:1"/></radialGradient>
        <radialGradient id="_Radial16" cx="0" cy="0" r="1" gradientUnits="userSpaceOnUse" gradientTransform="matrix(593.812,0,0,593.812,364.983,889.015)"><stop offset="0" style="stop-color:rgb(229,221,0);stop-opacity:1"/><stop offset="1" style="stop-color:rgb(98,93,0);stop-opacity:1"/></radialGradient>
        <radialGradient id="_Radial17" cx="0" cy="0" r="1" gradientUnits="userSpaceOnUse" gradientTransform="matrix(568.661,0,0,568.661,365.718,296.357)"><stop offset="0" style="stop-color:rgb(136,136,136);stop-opacity:1"/><stop offset="1" style="stop-color:black;stop-opacity:1"/></radialGradient>
        <radialGradient id="_Radial18" cx="0" cy="0" r="1" gradientUnits="userSpaceOnUse" gradientTransform="matrix(522.578,0,0,522.578,400.285,470.658)"><stop offset="0" style="stop-color:rgb(255,217,184);stop-opacity:1"/><stop offset="1" style="stop-color:rgb(255,205,158);stop-opacity:1"/></radialGradient>
    </defs>
</svg>
