<?xml version="1.0" encoding="UTF-8" standalone="no"?>
<!DOCTYPE svg PUBLIC "-//W3C//DTD SVG 1.1//EN" "http://www.w3.org/Graphics/SVG/1.1/DTD/svg11.dtd">
<svg width="100%" height="100%" viewBox="0 0 3450 1900" version="1.1" xmlns="http://www.w3.org/2000/svg" xmlns:xlink="http://www.w3.org/1999/xlink" xml:space="preserve" xmlns:serif="http://www.serif.com/" style="fill-rule:evenodd;clip-rule:evenodd;stroke-linecap:round;stroke-linejoin:round;stroke-miterlimit:1.41421;">
    <g transform="matrix(1,0,0,1,0,-118.739)">
        <g transform="matrix(0.54982,0,0,0.54982,281.508,1080)">
            <g transform="matrix(1,0,0,1,-512,-512)">
                <g>
                    <path d="M805.285,93.558C781.338,121.442 770.185,184.197 794.467,247.814C818.749,311.431 855.967,297.614 879.167,362.487C909.79,448.087 895.536,563.076 895.536,563.076C895.536,563.076 932.35,669.685 958.004,556.443C1014.79,343.74 805.285,145.937 805.285,93.558Z" style="fill:url(#_Radial1);fill-rule:nonzero;"/>
                    <path id="_Path_" d="M513.072,976.638C758.308,976.638 956.972,776.899 956.972,530.61C956.972,284.321 758.308,84.583 513.31,84.583C268.312,84.583 69.65,284.322 69.65,530.61C69.175,777.137 268.073,976.638 513.072,976.638Z" style="fill:url(#_Radial2);fill-rule:nonzero;"/>
                    <path d="M845.675,805.636C836.079,812.406 826.013,818.482 815.552,823.819C829.409,803.515 842.193,782.499 853.852,760.858C863.312,750.388 871.978,740.21 879.04,729.205C882.477,723.798 886.353,717.126 890.456,709.386C915.377,664.486 942.856,591.823 943.635,517.186L943.635,517.006C943.653,515.169 943.664,513.331 943.649,511.491C943.778,492.756 941.863,474.063 937.937,455.743C938.137,457.174 938.313,458.604 938.493,460.034C938.272,458.934 938.086,457.822 937.849,456.72C938.215,458.754 938.509,460.72 938.825,462.703C943.919,505.92 940.291,548.075 922.143,579.153C921.857,579.607 921.563,580.032 921.274,580.476C930.684,533.242 933.832,481.089 923.362,428.876C923.362,428.876 919.175,403.493 887.986,326.435C870.034,282.082 838.153,245.719 809.986,219.228C785.296,188.682 762.872,168.183 750.511,155.168C724.69,127.979 713.868,107.599 709.424,94.301C705.571,92.369 656.289,44.494 652.374,42.67C630.863,76.022 563.212,180.345 595.393,277.816C609.977,321.988 646.86,367.833 685.46,393.552C687.155,395.488 708.429,418.594 718.546,470.709C728.992,524.551 723.5,566.564 702,628.692C676.714,683.197 611.933,737.08 551.276,742.592C421.6,754.373 374.127,677.484 374.127,677.484C420.463,696.009 471.695,692.134 502.851,672.928C534.251,653.503 553.245,639.101 568.661,644.78C583.861,650.433 595.961,634.024 585.103,617.013C567.995,590.663 536.647,577.013 505.703,582.44C474.27,587.549 445.477,612.449 404.291,588.334C401.625,586.787 399.045,585.097 396.562,583.272C393.847,581.487 405.388,585.989 402.695,583.96C394.68,579.606 380.495,570.118 376.815,566.743C376.202,566.181 383.034,568.922 382.421,568.359C343.911,536.647 348.721,515.225 349.931,501.789C350.9,491.04 357.895,477.266 369.682,471.679C375.375,474.786 378.922,477.158 378.922,477.158C378.922,477.158 376.494,472.197 375.181,469.582C375.641,469.382 376.081,469.435 376.539,469.24C381.203,471.491 391.516,477.34 396.946,480.907C404.018,485.895 406.272,490.343 406.272,490.343C406.272,490.343 408.134,489.318 406.757,484.968C406.257,483.184 404.11,477.515 397.105,471.794L397.543,471.843C401.736,474.232 405.707,476.99 409.41,480.084C411.385,472.903 414.937,465.405 414.156,451.992C413.679,442.561 413.899,440.119 412.237,436.477C410.749,433.349 413.071,432.129 415.655,435.377C415.213,432.832 414.472,430.348 413.447,427.977L413.469,427.733C416.694,416.497 481.717,387.272 486.45,383.856C494.226,378.354 500.747,371.264 505.582,363.056C509.199,357.293 511.919,349.208 512.582,336.944C512.937,328.1 508.823,322.21 443.075,315.326C425.094,313.555 414.544,300.526 408.549,288.503C407.455,285.913 406.34,283.566 405.224,281.221C404.159,278.48 403.304,275.661 402.666,272.79C413.415,241.917 431.476,215.813 458.033,196.09C459.48,194.772 452.251,196.428 453.697,195.11C455.384,193.572 466.403,189.133 468.484,188.133C471.026,186.933 457.602,181.233 445.752,182.621C433.683,183.981 431.12,185.421 424.679,188.152C427.352,185.491 435.852,182.003 433.859,182.026C420.848,184.021 404.68,191.584 390.859,200.15C390.832,198.658 391.116,197.177 391.694,195.802C385.253,198.534 369.434,209.59 364.829,218.944C365.027,217.151 365.116,215.348 365.095,213.544C360.188,217.636 355.762,222.272 351.9,227.362L351.659,227.581C314.301,212.531 281.426,211.557 253.606,218.305C247.52,212.193 244.547,216.661 230.699,186.236C229.758,184.404 231.421,188.045 230.699,186.236C228.421,180.336 232.088,194.108 230.699,186.236C207.415,204.608 176.779,225.429 162.073,240.126C161.891,240.712 179.229,235.226 162.073,240.126C156.065,241.842 156.473,245.407 155.56,277.626C155.34,280.069 155.535,282.805 155.337,285.004C143.589,299.972 135.588,312.647 132.562,319.215C117.369,345.395 100.636,386.207 84.416,450.766C91.57,433.267 100.196,416.406 110.2,400.365C96.712,434.632 83.673,488.443 81.066,571.31C84.329,554.21 88.513,537.299 93.599,520.65C90.415,589.397 102.271,658.018 128.339,721.711C137.668,744.532 153.099,779.166 179.368,817.111C261.901,903.95 378.313,958.011 507.22,958.011C641.792,958.012 762.635,899.133 845.675,805.636Z" style="fill:url(#_Linear3);fill-rule:nonzero;"/>
                    <path d="M746.1,868.708C908.97,849.848 981.069,682.008 888.481,678.708C804.848,676.035 668.954,877.608 746.1,868.708Z" style="fill:url(#_Radial4);fill-rule:nonzero;"/>
                    <path d="M900.207,644.424C1012.26,579.21 983.046,438.344 983.046,438.344C983.046,438.344 939.8,488.582 910.421,568.664C881.4,647.963 832.837,683.812 900.207,644.424Z" style="fill:url(#_Radial5);fill-rule:nonzero;"/>
                    <path d="M544.474,952.062C700.701,1001.91 834.974,878.842 752.207,837.742C676.956,800.676 470.324,928.49 544.474,952.062Z" style="fill:url(#_Radial6);fill-rule:nonzero;"/>
                    <path d="M911.849,704.234C915.649,698.871 920.789,681.699 925.329,674.023C952.911,629.5 953.106,594 953.106,593.187C969.765,509.968 968.254,475.987 958.006,413.144C949.755,362.544 913.684,290.052 882.436,255.144C850.236,219.179 872.922,230.897 841.744,204.626C814.417,174.333 787.921,144.335 773.491,132.271C669.215,45.094 671.571,26.577 673.579,23.42C673.24,23.791 672.742,24.342 672.107,25.063C670.872,20.14 670,16 670,16C670,16 613,73 601,168C593.166,230.021 616.383,294.676 650,336C667.505,357.416 687.288,376.863 709,394L709,393.974C734.4,430.451 748.38,475.463 748.38,523.883C748.38,645.127 650.039,743.414 528.728,743.414C512.195,743.423 495.713,741.571 479.594,737.895C422.358,726.987 389.306,698.114 372.822,678.513C363.375,667.279 359.358,659.09 359.358,659.09C410.641,677.461 467.344,673.618 501.826,654.572C536.575,635.307 557.6,621.026 574.663,626.657C591.483,632.263 604.874,615.99 592.863,599.121C581.092,582.276 550.463,558.151 504.985,564.835C470.196,569.902 438.328,594.595 392.745,570.68C389.809,569.155 386.954,567.479 384.191,565.66C381.186,563.889 393.959,568.355 390.978,566.342C382.108,562.024 366.405,552.614 362.335,549.268C361.656,548.711 369.218,551.429 368.535,550.868C325.914,519.419 331.235,498.175 332.576,484.85C333.649,474.19 341.39,460.53 354.435,454.99C360.735,458.071 364.661,460.423 364.661,460.423C364.661,460.423 361.973,455.503 360.52,452.91C361.029,452.716 361.514,452.765 362.02,452.571C367.182,454.803 378.596,460.6 384.606,464.141C392.433,469.088 394.928,473.499 394.928,473.499C394.928,473.499 396.989,472.483 395.464,468.169C394.907,466.4 392.535,460.778 384.782,455.104L385.267,455.153C389.869,457.499 394.263,460.233 398.401,463.326C400.587,456.205 404.519,448.769 403.654,435.467C403.126,426.115 403.37,423.692 401.53,420.081C399.883,416.981 402.454,415.769 405.312,418.993C404.817,416.45 403.996,413.982 402.868,411.65L402.893,411.408C406.463,400.265 478.428,371.283 483.666,367.895C492.106,362.597 499.325,355.564 504.841,347.265C508.841,341.55 511.855,333.532 512.589,321.37C512.835,315.89 511.148,311.553 492.089,307.405C480.65,304.915 462.953,302.492 435.656,299.931C415.756,298.175 404.079,285.255 397.444,273.331C396.233,270.762 394.999,268.431 393.764,266.109C392.59,263.406 391.643,260.609 390.933,257.749C402.839,226.58 424.291,199.953 452.212,181.686C453.812,180.378 445.812,182.021 447.412,180.714C449.28,179.189 461.475,174.787 463.779,173.795C466.592,172.609 451.735,166.955 438.62,168.329C425.263,169.678 422.426,171.105 415.297,173.815C418.256,171.176 427.663,167.715 425.458,167.74C411.058,169.718 393.158,177.219 377.858,185.713C377.83,184.224 378.146,182.748 378.782,181.401C371.653,184.11 354.145,195.075 349.048,204.351C349.267,202.575 349.365,200.786 349.342,198.997C343.974,202.998 339.076,207.594 334.742,212.697L334.475,212.915C293.128,197.99 256.743,197.024 225.953,203.715C219.217,197.654 208.387,188.489 193.061,158.315C192.02,156.498 191.461,162.07 190.661,160.276C184.706,146.463 181.108,123.832 181.699,108.23C181.699,108.23 169.381,113.844 159.186,137.29C157.293,141.505 156.079,143.83 154.866,146.155C154.308,146.833 156.131,138.455 155.84,138.911C154.068,141.911 149.484,146.103 147.469,151.529C146.085,155.55 144.144,157.802 142.905,162.817L142.614,163.277C142.514,161.799 142.981,157.196 142.641,158.14C137.862,167.795 133.75,177.765 130.333,187.981C124.844,206.027 118.454,230.591 117.441,262.546C117.197,264.969 117.414,267.682 117.194,269.863C104.194,284.707 95.336,297.276 91.987,303.791C75.18,329.762 56.66,370.236 38.707,434.259C46.694,416.77 56.246,400.039 67.245,384.27C52.316,418.253 37.885,471.618 35,553.8C38.624,536.793 43.256,520.017 48.872,503.56C46.294,558.36 52.677,626.3 87.321,702.953C107.891,748.04 155.242,839.602 270.941,911.053L270.931,911.06C270.931,911.06 310.291,940.36 377.948,962.319C382.948,964.133 388.013,965.919 393.182,967.652C391.56,966.997 389.991,966.308 388.467,965.6C433.5,979.093 480.256,985.965 527.267,986C702.447,986.149 754.113,915.8 754.113,915.8C754.113,915.8 753.931,915.937 753.6,916.177C756.072,913.85 758.453,911.431 760.743,908.92C733.104,935.02 670.028,936.752 646.443,934.869C686.666,923.056 713.134,913.063 764.618,893.35C770.643,891.117 776.803,888.57 783.1,885.71C783.781,885.41 784.468,885.085 785.152,884.774C786.401,884.192 787.638,883.642 788.899,883.03C813.983,871.209 837.57,856.443 859.161,839.043C910.861,797.743 922.11,757.486 927.99,730.943C927.17,733.487 924.615,739.418 922.82,743.259C909.505,771.741 879.979,789.218 847.912,804.207C863.171,784.186 877.322,763.343 890.3,741.773C900.767,731.39 904.033,715.148 911.849,704.234Z" style="fill:url(#_Radial7);fill-rule:nonzero;"/>
                    <path d="M848.921,802.982C870.001,779.741 888.931,753.158 903.27,723.014C940.17,645.432 997.222,516.434 952.288,381.708C916.775,275.225 868.016,217 806.107,160.122C705.563,67.756 677.482,26.521 677.482,2C677.482,2 561.393,131.409 611.74,266.381C662.087,401.353 765.2,396.405 833.419,537.255C913.694,703 768.47,883.869 648.375,934.493C655.728,932.86 915.345,874.11 928.989,725.611C928.68,728.342 922.83,769.414 848.921,802.982Z" style="fill:url(#_Radial8);fill-rule:nonzero;"/>
                    <path d="M512.592,321.373C512.985,312.603 508.436,306.713 435.91,299.91C406.071,297.155 394.645,269.576 391.162,257.969C380.552,285.534 376.171,314.459 378.526,349.446C380.136,372.366 395.535,396.967 402.896,411.411C402.896,411.411 404.532,409.285 405.287,408.499C419.148,394.068 477.223,372.08 482.679,368.958C488.693,365.159 511.582,348.435 512.592,321.373Z" style="fill:url(#_Linear9);fill-rule:nonzero;"/>
                    <path d="M193.314,158.471C192.273,156.653 191.714,162.225 190.914,160.432C184.959,146.619 181.336,124.232 182.194,108.41C182.194,108.41 169.876,114.024 159.681,137.47C157.788,141.685 156.574,144.01 155.361,146.335C154.803,147.013 156.626,138.635 156.335,139.091C154.564,142.091 149.98,146.283 147.989,151.466C146.338,155.705 144.64,157.981 143.376,163.238C142.987,164.667 143.768,156.915 143.428,157.859C119.717,203.684 115.191,272.973 117.69,270.043C168.168,216.143 226.015,203.36 226.015,203.36C219.86,198.826 206.487,185.735 193.315,158.471L193.314,158.471Z" style="fill:url(#_Linear10);fill-rule:nonzero;"/>
                    <path d="M384.844,722.1C315.12,692.331 235.852,650.345 238.844,554.962C242.919,429.343 355.989,454.171 355.989,454.171C351.722,455.21 340.314,463.333 336.271,471.991C331.998,482.818 324.202,507.267 347.822,532.891C384.911,573.083 271.622,628.247 446.485,732.458C450.895,734.858 405.494,731.028 384.846,722.1L384.844,722.1Z" style="fill:url(#_Linear11);fill-rule:nonzero;"/>
                    <path d="M360.074,659.5C409.516,676.707 467.114,673.689 501.597,654.642C524.682,641.791 554.297,621.208 572.519,626.289C556.742,620.053 544.793,617.139 530.419,616.427C527.971,616.427 525.037,616.375 522.371,616.107C517.106,616.09 511.845,616.378 506.614,616.97C497.714,617.788 487.848,623.403 478.879,622.502C478.394,622.453 487.579,618.728 486.832,618.897C482.08,619.888 476.917,620.102 471.462,620.778C467.995,621.164 465.013,621.598 461.571,621.741C358.589,630.474 271.554,565.928 271.554,565.928C264.146,590.878 304.72,640.228 360.075,659.5L360.074,659.5Z" style="fill:url(#_Linear12);fill-rule:nonzero;"/>
                    <path d="M848.738,803.646C952.9,701.376 1005.6,577.061 983.321,437.627C983.321,437.627 992.221,509.127 958.473,582.255C974.686,510.862 976.573,422.141 933.498,330.267C876.005,207.636 781.45,143.109 745.351,116.189C690.656,75.4 667.983,33.87 667.574,25.3C651.235,58.777 601.808,173.5 662.264,272.3C718.904,364.864 808.129,392.339 870.592,477.247C985.667,633.667 848.738,803.646 848.738,803.646Z" style="fill:url(#_Linear13);fill-rule:nonzero;"/>
                    <path d="M833.814,537.551C797.412,462.35 751.978,429.55 709,394C714,401 715.232,403.473 718,408C755.827,448.316 811.607,546.656 771.11,670.107C694.881,902.482 389.967,793.057 358,762.319C370.932,896.808 596.036,961.164 742.6,873.949C826,795 893.468,660.788 833.814,537.551Z" style="fill:url(#_Linear14);fill-rule:nonzero;"/>
                </g>
            </g>
        </g>
        <g>
            <g transform="matrix(2.71534,0,0,2.84781,856.574,490.695)">
                <g transform="matrix(1,0,0,1,-150,-150)">
                    <g transform="matrix(1.48258,0,0,1.54388,-162.61,-436.075)">
                        <g id="Layer1">
                            <path d="M210.855,302.652C262.958,302.652 305.259,333.952 305.259,372.504C305.259,411.056 262.958,442.356 210.855,442.356C201.496,442.356 192.453,441.346 183.915,439.465C181.009,438.825 141.873,456.573 141.873,456.573C141.873,456.573 169.575,435.375 166.793,434.285C136.863,422.564 116.452,399.284 116.452,372.504C116.452,333.952 158.752,302.652 210.855,302.652Z" style="fill:white;stroke:black;stroke-width:3.6px;"/>
                        </g>
                    </g>
                </g>
            </g>
            <g transform="matrix(7.0339,0,0,7.0339,-3939.08,-2984.11)">
                <path d="M648.645,482.113L650.262,482.113L651.164,485.799C651.254,486.127 651.326,486.586 651.381,487.176L651.416,487.176C651.42,487.082 651.438,486.915 651.469,486.675C651.5,486.435 651.525,486.246 651.545,486.109C651.564,485.973 651.834,484.641 652.354,482.113L653.994,482.113L652.125,489.109C651.898,489.969 651.598,490.586 651.223,490.961C650.848,491.336 650.348,491.523 649.723,491.523C649.414,491.523 649.139,491.49 648.896,491.424L648.896,490.117C649.057,490.164 649.236,490.187 649.436,490.187C649.959,490.187 650.303,489.844 650.467,489.156L650.578,488.746L648.645,482.113Z" style="fill-rule:nonzero;"/>
                <path d="M659.49,485.365C659.49,486.436 659.264,487.269 658.811,487.864C658.357,488.46 657.736,488.758 656.947,488.758C656.447,488.758 656.006,488.621 655.623,488.348C655.24,488.074 654.945,487.681 654.738,487.167C654.531,486.653 654.428,486.053 654.428,485.365C654.428,484.307 654.652,483.479 655.102,482.884C655.551,482.288 656.174,481.99 656.971,481.99C657.74,481.99 658.353,482.294 658.808,482.901C659.263,483.509 659.49,484.33 659.49,485.365ZM656.021,485.365C656.021,486.045 656.096,486.559 656.244,486.906C656.393,487.254 656.631,487.428 656.959,487.428C657.584,487.428 657.896,486.74 657.896,485.365C657.896,484.682 657.821,484.171 657.671,483.833C657.521,483.495 657.283,483.326 656.959,483.326C656.631,483.326 656.393,483.495 656.244,483.833C656.096,484.171 656.021,484.682 656.021,485.365Z" style="fill-rule:nonzero;"/>
                <path d="M662.443,487.381C662.24,488.17 661.896,489.105 661.412,490.187L660.223,490.187C660.477,489.148 660.674,488.168 660.814,487.246L662.361,487.246L662.443,487.381Z" style="fill-rule:nonzero;"/>
                <path d="M668.947,488.758C668.17,488.758 667.578,488.475 667.172,487.908C666.766,487.342 666.563,486.51 666.563,485.412C666.563,484.264 666.755,483.406 667.14,482.84C667.524,482.273 668.119,481.99 668.924,481.99C669.166,481.99 669.42,482.025 669.686,482.096C669.951,482.166 670.189,482.268 670.4,482.4L669.955,483.613C669.631,483.422 669.344,483.326 669.094,483.326C668.762,483.326 668.522,483.499 668.376,483.845C668.229,484.19 668.156,484.709 668.156,485.4C668.156,486.076 668.229,486.581 668.373,486.915C668.518,487.249 668.754,487.416 669.082,487.416C669.473,487.416 669.881,487.279 670.307,487.006L670.307,488.377C669.896,488.631 669.443,488.758 668.947,488.758Z" style="fill-rule:nonzero;"/>
                <path d="M674.443,488.641L674.133,487.75L674.098,487.75C673.867,488.133 673.629,488.396 673.383,488.541C673.137,488.686 672.826,488.758 672.451,488.758C671.971,488.758 671.593,488.578 671.317,488.219C671.042,487.859 670.904,487.359 670.904,486.719C670.904,486.031 671.093,485.521 671.47,485.187C671.847,484.853 672.41,484.668 673.16,484.633L674.027,484.598L674.027,484.129C674.027,483.52 673.764,483.215 673.236,483.215C672.846,483.215 672.396,483.367 671.889,483.672L671.35,482.594C671.998,482.184 672.703,481.979 673.465,481.979C674.156,481.979 674.683,482.177 675.044,482.573C675.405,482.97 675.586,483.531 675.586,484.258L675.586,488.641L674.443,488.641ZM673.09,487.539C673.375,487.539 673.603,487.411 673.772,487.155C673.942,486.899 674.027,486.559 674.027,486.133L674.027,485.582L673.547,485.605C673.191,485.625 672.931,485.727 672.765,485.91C672.599,486.094 672.516,486.367 672.516,486.73C672.516,487.27 672.707,487.539 673.09,487.539Z" style="fill-rule:nonzero;"/>
                <path d="M680.098,488.641L680.098,484.75C680.098,484.277 680.041,483.92 679.928,483.678C679.814,483.436 679.631,483.314 679.377,483.314C679.041,483.314 678.795,483.481 678.639,483.815C678.482,484.149 678.404,484.713 678.404,485.506L678.404,488.641L676.846,488.641L676.846,482.113L678.082,482.113L678.27,482.951L678.369,482.951C678.51,482.65 678.711,482.415 678.973,482.245C679.234,482.075 679.541,481.99 679.893,481.99C680.486,481.99 680.931,482.193 681.226,482.6C681.521,483.006 681.668,483.6 681.668,484.381L681.668,488.641L680.098,488.641Z" style="fill-rule:nonzero;"/>
                <rect x="686.273" y="480.074" width="1.5" height="8.566" style="fill-rule:nonzero;"/>
                <path d="M695.707,488.641L695.707,484.75C695.707,483.793 695.467,483.314 694.986,483.314C694.627,483.314 694.375,483.503 694.23,483.88C694.086,484.257 694.014,484.799 694.014,485.506L694.014,488.641L692.455,488.641L692.455,479.523L694.014,479.523L694.014,481.551C694.014,481.812 693.99,482.279 693.943,482.951L694.025,482.951C694.338,482.311 694.818,481.99 695.467,481.99C696.064,481.99 696.516,482.192 696.82,482.597C697.125,483.001 697.277,483.596 697.277,484.381L697.277,488.641L695.707,488.641Z" style="fill-rule:nonzero;"/>
                <path d="M701.736,488.641L701.426,487.75L701.391,487.75C701.16,488.133 700.922,488.396 700.676,488.541C700.43,488.686 700.119,488.758 699.744,488.758C699.264,488.758 698.886,488.578 698.61,488.219C698.335,487.859 698.197,487.359 698.197,486.719C698.197,486.031 698.386,485.521 698.763,485.187C699.14,484.853 699.703,484.668 700.453,484.633L701.32,484.598L701.32,484.129C701.32,483.52 701.057,483.215 700.529,483.215C700.139,483.215 699.689,483.367 699.182,483.672L698.643,482.594C699.291,482.184 699.996,481.979 700.758,481.979C701.449,481.979 701.976,482.177 702.337,482.573C702.698,482.97 702.879,483.531 702.879,484.258L702.879,488.641L701.736,488.641ZM700.383,487.539C700.668,487.539 700.896,487.411 701.065,487.155C701.235,486.899 701.32,486.559 701.32,486.133L701.32,485.582L700.84,485.605C700.484,485.625 700.224,485.727 700.058,485.91C699.892,486.094 699.809,486.367 699.809,486.73C699.809,487.27 700,487.539 700.383,487.539Z" style="fill-rule:nonzero;"/>
                <path d="M705.182,488.641L703.477,482.113L705.094,482.113L705.926,485.893C705.961,486.068 706.003,486.325 706.052,486.663C706.101,487.001 706.131,487.244 706.143,487.393L706.166,487.393C706.17,487.275 706.187,487.107 706.216,486.889C706.245,486.67 706.275,486.469 706.307,486.285C706.338,486.102 706.639,484.711 707.209,482.113L708.826,482.113L707.115,488.641L705.182,488.641Z" style="fill-rule:nonzero;"/>
                <path d="M711.896,488.758C711.08,488.758 710.437,488.468 709.966,487.888C709.495,487.308 709.26,486.486 709.26,485.424C709.26,484.346 709.473,483.504 709.898,482.898C710.324,482.293 710.918,481.99 711.68,481.99C712.391,481.99 712.951,482.249 713.361,482.767C713.771,483.284 713.977,484.01 713.977,484.943L713.977,485.775L710.842,485.775C710.854,486.357 710.973,486.79 711.199,487.073C711.426,487.356 711.738,487.498 712.137,487.498C712.645,487.498 713.164,487.34 713.695,487.023L713.695,488.307C713.195,488.607 712.596,488.758 711.896,488.758ZM711.668,483.191C711.445,483.191 711.262,483.31 711.117,483.546C710.973,483.782 710.889,484.148 710.865,484.645L712.447,484.645C712.439,484.168 712.367,483.807 712.23,483.561C712.094,483.314 711.906,483.191 711.668,483.191Z" style="fill-rule:nonzero;"/>
                <path d="M640.453,500.641L640.453,496.75C640.453,495.793 640.213,495.314 639.732,495.314C639.373,495.314 639.121,495.503 638.977,495.88C638.832,496.257 638.76,496.799 638.76,497.506L638.76,500.641L637.201,500.641L637.201,491.523L638.76,491.523L638.76,493.551C638.76,493.812 638.736,494.279 638.689,494.951L638.771,494.951C639.084,494.311 639.564,493.99 640.213,493.99C640.811,493.99 641.262,494.192 641.566,494.597C641.871,495.001 642.023,495.596 642.023,496.381L642.023,500.641L640.453,500.641Z" style="fill-rule:nonzero;"/>
                <path d="M645.551,499.439C645.77,499.439 646.006,499.385 646.26,499.275L646.26,500.494C646.006,500.67 645.625,500.758 645.117,500.758C644.551,500.758 644.131,500.589 643.857,500.251C643.584,499.913 643.447,499.406 643.447,498.73L643.447,495.35L642.814,495.35L642.814,494.652L643.629,494.09L644.027,492.707L645.023,492.707L645.023,494.113L646.207,494.113L646.207,495.35L645.023,495.35L645.023,498.783C645.023,499.221 645.199,499.439 645.551,499.439Z" style="fill-rule:nonzero;"/>
                <path d="M649.441,499.439C649.66,499.439 649.896,499.385 650.15,499.275L650.15,500.494C649.896,500.67 649.516,500.758 649.008,500.758C648.441,500.758 648.021,500.589 647.748,500.251C647.475,499.913 647.338,499.406 647.338,498.73L647.338,495.35L646.705,495.35L646.705,494.652L647.52,494.09L647.918,492.707L648.914,492.707L648.914,494.113L650.098,494.113L650.098,495.35L648.914,495.35L648.914,498.783C648.914,499.221 649.09,499.439 649.441,499.439Z" style="fill-rule:nonzero;"/>
                <path d="M653.977,500.758C653.695,500.758 653.446,500.694 653.229,500.567C653.013,500.44 652.811,500.217 652.623,499.896L652.541,499.896C652.604,500.428 652.635,500.748 652.635,500.857L652.635,503.523L651.064,503.523L651.064,494.113L652.271,494.113L652.541,494.963L652.611,494.963C652.936,494.314 653.406,493.99 654.023,493.99C654.617,493.99 655.082,494.284 655.418,494.872C655.754,495.46 655.922,496.291 655.922,497.365C655.922,498.424 655.748,499.254 655.4,499.855C655.053,500.457 654.578,500.758 653.977,500.758ZM653.496,495.314C653.191,495.314 652.972,495.456 652.837,495.739C652.702,496.022 652.631,496.492 652.623,497.148L652.623,497.354C652.623,498.072 652.691,498.596 652.828,498.924C652.965,499.252 653.191,499.416 653.508,499.416C654.055,499.416 654.328,498.725 654.328,497.342C654.328,496.662 654.261,496.154 654.126,495.818C653.991,495.482 653.781,495.314 653.496,495.314Z" style="fill-rule:nonzero;"/>
                <path d="M657.006,499.838C657.006,499.533 657.087,499.297 657.249,499.129C657.411,498.961 657.652,498.877 657.973,498.877C658.293,498.877 658.535,498.96 658.699,499.126C658.863,499.292 658.945,499.529 658.945,499.838C658.945,500.143 658.86,500.379 658.69,500.547C658.521,500.715 658.281,500.799 657.973,500.799C657.656,500.799 657.416,500.714 657.252,500.544C657.088,500.374 657.006,500.139 657.006,499.838ZM657.006,494.939C657.006,494.635 657.087,494.398 657.249,494.23C657.411,494.062 657.652,493.979 657.973,493.979C658.293,493.979 658.535,494.062 658.699,494.228C658.863,494.394 658.945,494.631 658.945,494.939C658.945,495.244 658.86,495.48 658.69,495.648C658.521,495.816 658.281,495.9 657.973,495.9C657.656,495.9 657.416,495.815 657.252,495.646C657.088,495.476 657.006,495.24 657.006,494.939Z" style="fill-rule:nonzero;"/>
                <path d="M664.383,492.074L661.189,500.641L659.689,500.641L662.883,492.074L664.383,492.074Z" style="fill-rule:nonzero;"/>
                <path d="M669.24,492.074L666.047,500.641L664.547,500.641L667.74,492.074L669.24,492.074Z" style="fill-rule:nonzero;"/>
                <path d="M672.92,493.99C673.514,493.99 673.98,494.285 674.32,494.875C674.66,495.465 674.83,496.295 674.83,497.365C674.83,498.447 674.659,499.283 674.317,499.873C673.976,500.463 673.502,500.758 672.896,500.758C672.604,500.758 672.345,500.694 672.12,500.567C671.896,500.44 671.684,500.217 671.484,499.896L671.385,499.896L671.121,500.641L669.973,500.641L669.973,491.523L671.531,491.523L671.531,493.656C671.531,493.746 671.529,493.84 671.525,493.937C671.521,494.035 671.496,494.377 671.449,494.963L671.531,494.963C671.723,494.604 671.93,494.352 672.152,494.207C672.375,494.062 672.631,493.99 672.92,493.99ZM672.381,495.314C672.084,495.314 671.87,495.453 671.739,495.73C671.608,496.008 671.539,496.496 671.531,497.195L671.531,497.354C671.531,498.111 671.599,498.645 671.733,498.953C671.868,499.262 672.088,499.416 672.393,499.416C672.955,499.416 673.236,498.725 673.236,497.342C673.236,495.99 672.951,495.314 672.381,495.314Z" style="fill-rule:nonzero;"/>
                <path d="M679.125,500.641L678.814,499.75L678.779,499.75C678.549,500.133 678.311,500.396 678.064,500.541C677.818,500.686 677.508,500.758 677.133,500.758C676.652,500.758 676.274,500.578 675.999,500.219C675.724,499.859 675.586,499.359 675.586,498.719C675.586,498.031 675.774,497.521 676.151,497.187C676.528,496.853 677.092,496.668 677.842,496.633L678.709,496.598L678.709,496.129C678.709,495.52 678.445,495.215 677.918,495.215C677.527,495.215 677.078,495.367 676.57,495.672L676.031,494.594C676.68,494.184 677.385,493.979 678.146,493.979C678.838,493.979 679.364,494.177 679.726,494.573C680.087,494.97 680.268,495.531 680.268,496.258L680.268,500.641L679.125,500.641ZM677.771,499.539C678.057,499.539 678.284,499.411 678.454,499.155C678.624,498.899 678.709,498.559 678.709,498.133L678.709,497.582L678.229,497.605C677.873,497.625 677.612,497.727 677.446,497.91C677.28,498.094 677.197,498.367 677.197,498.73C677.197,499.27 677.389,499.539 677.771,499.539Z" style="fill-rule:nonzero;"/>
                <path d="M683.244,500.758C682.643,500.758 682.168,500.461 681.82,499.867C681.473,499.273 681.299,498.447 681.299,497.389C681.299,496.326 681.469,495.494 681.809,494.893C682.148,494.291 682.617,493.99 683.215,493.99C683.512,493.99 683.769,494.063 683.985,494.21C684.202,494.356 684.402,494.604 684.586,494.951L684.68,494.951C684.633,494.357 684.609,493.941 684.609,493.703L684.609,491.523L686.168,491.523L686.168,500.641L685.008,500.641L684.744,499.791L684.691,499.791C684.359,500.436 683.877,500.758 683.244,500.758ZM683.748,499.439C684.037,499.439 684.248,499.308 684.381,499.044C684.514,498.78 684.586,498.301 684.598,497.605L684.598,497.4C684.598,496.643 684.53,496.109 684.396,495.801C684.261,495.492 684.039,495.338 683.73,495.338C683.441,495.338 683.231,495.515 683.101,495.868C682.97,496.222 682.904,496.736 682.904,497.412C682.904,498.088 682.971,498.595 683.104,498.933C683.236,499.271 683.451,499.439 683.748,499.439Z" style="fill-rule:nonzero;"/>
                <path d="M690.984,498.73C690.984,499.367 690.798,499.864 690.425,500.222C690.052,500.579 689.502,500.758 688.775,500.758C688.131,500.758 687.598,500.631 687.176,500.377L687.176,499.023C687.391,499.172 687.642,499.295 687.929,499.393C688.216,499.49 688.469,499.539 688.688,499.539C688.93,499.539 689.114,499.479 689.241,499.36C689.368,499.241 689.432,499.084 689.432,498.889C689.432,498.689 689.365,498.516 689.232,498.367C689.1,498.219 688.855,498.037 688.5,497.822C688.027,497.541 687.688,497.241 687.483,496.923C687.278,496.604 687.176,496.229 687.176,495.795C687.176,495.24 687.366,494.801 687.747,494.477C688.128,494.152 688.65,493.99 689.314,493.99C689.893,493.99 690.438,494.143 690.949,494.447L690.439,495.566C690.021,495.34 689.654,495.227 689.338,495.227C689.139,495.227 688.989,495.279 688.89,495.385C688.79,495.49 688.74,495.619 688.74,495.771C688.74,495.947 688.802,496.104 688.925,496.24C689.048,496.377 689.277,496.547 689.613,496.75C690.02,496.996 690.305,497.205 690.469,497.377C690.633,497.549 690.76,497.744 690.85,497.963C690.939,498.182 690.984,498.437 690.984,498.73Z" style="fill-rule:nonzero;"/>
                <path d="M695.473,498.73C695.473,499.367 695.286,499.864 694.913,500.222C694.54,500.579 693.99,500.758 693.264,500.758C692.619,500.758 692.086,500.631 691.664,500.377L691.664,499.023C691.879,499.172 692.13,499.295 692.417,499.393C692.704,499.49 692.957,499.539 693.176,499.539C693.418,499.539 693.603,499.479 693.729,499.36C693.856,499.241 693.92,499.084 693.92,498.889C693.92,498.689 693.854,498.516 693.721,498.367C693.588,498.219 693.344,498.037 692.988,497.822C692.516,497.541 692.177,497.241 691.972,496.923C691.767,496.604 691.664,496.229 691.664,495.795C691.664,495.24 691.854,494.801 692.235,494.477C692.616,494.152 693.139,493.99 693.803,493.99C694.381,493.99 694.926,494.143 695.438,494.447L694.928,495.566C694.51,495.34 694.143,495.227 693.826,495.227C693.627,495.227 693.478,495.279 693.378,495.385C693.278,495.49 693.229,495.619 693.229,495.771C693.229,495.947 693.29,496.104 693.413,496.24C693.536,496.377 693.766,496.547 694.102,496.75C694.508,496.996 694.793,497.205 694.957,497.377C695.121,497.549 695.248,497.744 695.338,497.963C695.428,498.182 695.473,498.437 695.473,498.73Z" style="fill-rule:nonzero;"/>
                <rect x="696.457" y="491.523" width="1.559" height="9.117" style="fill-rule:nonzero;"/>
                <path d="M699.311,499.838C699.311,499.533 699.392,499.297 699.554,499.129C699.716,498.961 699.957,498.877 700.277,498.877C700.598,498.877 700.84,498.96 701.004,499.126C701.168,499.292 701.25,499.529 701.25,499.838C701.25,500.143 701.165,500.379 700.995,500.547C700.825,500.715 700.586,500.799 700.277,500.799C699.961,500.799 699.721,500.714 699.557,500.544C699.393,500.374 699.311,500.139 699.311,499.838Z" style="fill-rule:nonzero;"/>
                <path d="M704.719,500.758C703.941,500.758 703.35,500.475 702.943,499.908C702.537,499.342 702.334,498.51 702.334,497.412C702.334,496.264 702.526,495.406 702.911,494.84C703.296,494.273 703.891,493.99 704.695,493.99C704.938,493.99 705.191,494.025 705.457,494.096C705.723,494.166 705.961,494.268 706.172,494.4L705.727,495.613C705.402,495.422 705.115,495.326 704.865,495.326C704.533,495.326 704.294,495.499 704.147,495.845C704.001,496.19 703.928,496.709 703.928,497.4C703.928,498.076 704,498.581 704.145,498.915C704.289,499.249 704.525,499.416 704.854,499.416C705.244,499.416 705.652,499.279 706.078,499.006L706.078,500.377C705.668,500.631 705.215,500.758 704.719,500.758Z" style="fill-rule:nonzero;"/>
                <path d="M711.85,497.365C711.85,498.436 711.623,499.269 711.17,499.864C710.717,500.46 710.096,500.758 709.307,500.758C708.807,500.758 708.365,500.621 707.982,500.348C707.6,500.074 707.305,499.681 707.098,499.167C706.891,498.653 706.787,498.053 706.787,497.365C706.787,496.307 707.012,495.479 707.461,494.884C707.91,494.288 708.533,493.99 709.33,493.99C710.1,493.99 710.712,494.294 711.167,494.901C711.622,495.509 711.85,496.33 711.85,497.365ZM708.381,497.365C708.381,498.045 708.455,498.559 708.604,498.906C708.752,499.254 708.99,499.428 709.318,499.428C709.943,499.428 710.256,498.74 710.256,497.365C710.256,496.682 710.181,496.171 710.03,495.833C709.88,495.495 709.643,495.326 709.318,495.326C708.99,495.326 708.752,495.495 708.604,495.833C708.455,496.171 708.381,496.682 708.381,497.365Z" style="fill-rule:nonzero;"/>
                <path d="M719.426,500.641L719.426,496.75C719.426,495.793 719.189,495.314 718.717,495.314C718.373,495.314 718.127,495.485 717.979,495.827C717.83,496.169 717.756,496.717 717.756,497.471L717.756,500.641L716.186,500.641L716.186,496.75C716.186,495.793 715.945,495.314 715.465,495.314C715.129,495.314 714.885,495.484 714.732,495.824C714.58,496.164 714.504,496.725 714.504,497.506L714.504,500.641L712.945,500.641L712.945,494.113L714.182,494.113L714.369,494.951L714.469,494.951C714.625,494.619 714.839,494.376 715.11,494.222C715.382,494.067 715.672,493.99 715.98,493.99C716.777,493.99 717.309,494.367 717.574,495.121L717.633,495.121C717.965,494.367 718.498,493.99 719.232,493.99C719.811,493.99 720.249,494.193 720.548,494.6C720.847,495.006 720.996,495.6 720.996,496.381L720.996,500.641L719.426,500.641Z" style="fill-rule:nonzero;"/>
                <path d="M726.381,492.074L723.188,500.641L721.688,500.641L724.881,492.074L726.381,492.074Z" style="fill-rule:nonzero;"/>
            </g>
        </g>
    </g>
    <g id="SSL-Strip" serif:id="SSL Strip" transform="matrix(1,0,0,1,-17.3359,-118.739)">
        <g transform="matrix(1,0,0,1,1563.88,1080)">
            <g transform="matrix(1,0,0,1,-300,-600)">
                <g id="Layer11" serif:id="Layer1" transform="matrix(1,0,0,1,-300,0)">
                    <g id="Lower-Body" serif:id="Lower Body" transform="matrix(1,0,0,1,-24.1963,-5.71544)">
                        <path d="M817.41,956.715C683.698,922.876 559.017,923.37 422.531,956.715C429.851,1102.1 459.272,1137.71 459.272,1137.71C520.339,1180.7 723.954,1178.54 782.956,1137.71C782.956,1137.71 810.366,1102.29 817.41,956.715Z" style="fill:url(#_Radial15);stroke:black;stroke-width:14px;"/>
                    </g>
                    <g id="Upper-Body" serif:id="Upper Body" transform="matrix(1,0,0,1,-10.2123,-3.0085)">
                        <path d="M832.229,617.008C732.175,517.955 483.317,515.559 387.249,617.008C304.053,704.864 368.402,933.008 368.402,933.008C417.245,1033.87 784.962,1033.83 845.245,933.008C845.245,933.008 910.671,694.667 832.229,617.008Z" style="fill:url(#_Radial16);stroke:black;stroke-width:14px;"/>
                    </g>
                    <g id="Hair" transform="matrix(1,0,0,1,-30.6286,29.4039)">
                        <path d="M399.034,501.403C241.94,-107.205 1013.39,-104.336 864.184,497.061L399.034,501.403Z" style="fill:url(#_Radial17);stroke:black;stroke-width:14px;"/>
                    </g>
                    <g id="Face" transform="matrix(1,0,0,1,-28.8457,55.9892)">
                        <path d="M446.436,246.856C413.491,535.999 619.431,543.703 619.431,543.703C619.431,543.703 851.684,529.962 808.015,246.856L446.436,246.856Z" style="fill:url(#_Radial18);stroke:black;stroke-width:14px;"/>
                    </g>
                    <g id="Nose" transform="matrix(1,0,0,0.741416,-28.051,183.068)">
                        <path d="M590.695,354.89C613.771,319.813 637.115,316.95 662.908,354.89" style="fill:none;stroke:black;stroke-width:15.9px;"/>
                    </g>
                    <g id="Lower-Smile" serif:id="Lower Smile" transform="matrix(1,0,0,-1,-28.8457,959.887)">
                        <path d="M547.68,428.971C586.194,457.001 670.803,467.158 691.468,450.692" style="fill:none;stroke:black;stroke-width:14px;"/>
                    </g>
                    <g id="Left-Eye" serif:id="Left Eye" transform="matrix(0.96847,-0.249131,0.249131,0.96847,-95.9061,200.401)">
                        <ellipse cx="539.705" cy="311.029" rx="20.928" ry="27.361" style="stroke:black;stroke-width:14px;"/>
                    </g>
                    <g id="Right-Eye" serif:id="Right Eye" transform="matrix(0.94865,0.316329,-0.316329,0.94865,273.281,-98.8348)">
                        <ellipse cx="539.705" cy="311.029" rx="20.928" ry="27.361" style="stroke:black;stroke-width:14px;"/>
                    </g>
                    <g id="Left-Eyebrow" serif:id="Left Eyebrow" transform="matrix(1,0,0,1,281.806,0)">
                        <path d="M201.076,280.795L220.863,270.32L280.838,340.155L201.076,280.795Z" style="stroke:black;stroke-width:14px;"/>
                    </g>
                    <g id="Right-Eyebrow" serif:id="Right Eyebrow" transform="matrix(1.07707,0,0,1,254.595,0)">
                        <path d="M353.051,340.155L413.937,270.32L428.879,282.999L353.051,340.155Z" style="stroke:black;stroke-width:13.47px;"/>
                    </g>
                    <g id="Freckle" transform="matrix(0.693127,0,0,0.755628,362.384,110.38)">
                        <ellipse cx="159.899" cy="434.439" rx="8.678" ry="8.718"/>
                    </g>
                    <g id="Freckle1" serif:id="Freckle" transform="matrix(0.693127,0,0,0.755628,390.521,117.629)">
                        <ellipse cx="159.899" cy="434.439" rx="8.678" ry="8.718"/>
                    </g>
                    <g id="Freckle2" serif:id="Freckle" transform="matrix(0.693127,0,0,0.755628,368.591,153.454)">
                        <ellipse cx="159.899" cy="434.439" rx="8.678" ry="8.718"/>
                    </g>
                    <g id="Freckle3" serif:id="Freckle" transform="matrix(0.693127,0,0,0.755628,578.63,138.077)">
                        <ellipse cx="159.899" cy="434.439" rx="8.678" ry="8.718"/>
                    </g>
                    <g id="Freckle4" serif:id="Freckle" transform="matrix(0.693127,0,0,0.755628,598.87,95.585)">
                        <ellipse cx="159.899" cy="434.439" rx="8.678" ry="8.718"/>
                    </g>
                    <g id="Freckle5" serif:id="Freckle" transform="matrix(0.693127,0,0,0.755628,615.914,130.62)">
                        <ellipse cx="159.899" cy="434.439" rx="8.678" ry="8.718"/>
                    </g>
                </g>
            </g>
        </g>
        <g transform="matrix(7.0339,0,0,7.0339,-3095.13,-1692.92)">
            <path d="M642.674,486.262C642.674,487.035 642.396,487.645 641.839,488.09C641.282,488.535 640.508,488.758 639.516,488.758C638.602,488.758 637.793,488.586 637.09,488.242L637.09,486.555C637.668,486.812 638.157,486.994 638.558,487.1C638.958,487.205 639.324,487.258 639.656,487.258C640.055,487.258 640.36,487.182 640.573,487.029C640.786,486.877 640.893,486.65 640.893,486.35C640.893,486.182 640.846,486.032 640.752,485.901C640.658,485.771 640.521,485.645 640.339,485.523C640.157,485.402 639.787,485.209 639.229,484.943C638.705,484.697 638.313,484.461 638.051,484.234C637.789,484.008 637.58,483.744 637.424,483.443C637.268,483.143 637.189,482.791 637.189,482.389C637.189,481.631 637.446,481.035 637.96,480.602C638.474,480.168 639.184,479.951 640.09,479.951C640.535,479.951 640.96,480.004 641.364,480.109C641.769,480.215 642.191,480.363 642.633,480.555L642.047,481.967C641.59,481.779 641.212,481.648 640.913,481.574C640.614,481.5 640.32,481.463 640.031,481.463C639.688,481.463 639.424,481.543 639.24,481.703C639.057,481.863 638.965,482.072 638.965,482.33C638.965,482.49 639.002,482.63 639.076,482.749C639.15,482.868 639.269,482.983 639.431,483.095C639.593,483.206 639.977,483.406 640.582,483.695C641.383,484.078 641.932,484.462 642.229,484.847C642.525,485.231 642.674,485.703 642.674,486.262Z" style="fill-rule:nonzero;"/>
            <path d="M649.283,486.262C649.283,487.035 649.005,487.645 648.448,488.09C647.892,488.535 647.117,488.758 646.125,488.758C645.211,488.758 644.402,488.586 643.699,488.242L643.699,486.555C644.277,486.812 644.767,486.994 645.167,487.1C645.567,487.205 645.934,487.258 646.266,487.258C646.664,487.258 646.97,487.182 647.183,487.029C647.396,486.877 647.502,486.65 647.502,486.35C647.502,486.182 647.455,486.032 647.361,485.901C647.268,485.771 647.13,485.645 646.948,485.523C646.767,485.402 646.396,485.209 645.838,484.943C645.314,484.697 644.922,484.461 644.66,484.234C644.398,484.008 644.189,483.744 644.033,483.443C643.877,483.143 643.799,482.791 643.799,482.389C643.799,481.631 644.056,481.035 644.569,480.602C645.083,480.168 645.793,479.951 646.699,479.951C647.145,479.951 647.569,480.004 647.974,480.109C648.378,480.215 648.801,480.363 649.242,480.555L648.656,481.967C648.199,481.779 647.821,481.648 647.522,481.574C647.224,481.5 646.93,481.463 646.641,481.463C646.297,481.463 646.033,481.543 645.85,481.703C645.666,481.863 645.574,482.072 645.574,482.33C645.574,482.49 645.611,482.63 645.686,482.749C645.76,482.868 645.878,482.983 646.04,483.095C646.202,483.206 646.586,483.406 647.191,483.695C647.992,484.078 648.541,484.462 648.838,484.847C649.135,485.231 649.283,485.703 649.283,486.262Z" style="fill-rule:nonzero;"/>
            <path d="M650.836,488.641L650.836,480.074L652.652,480.074L652.652,487.141L656.127,487.141L656.127,488.641L650.836,488.641Z" style="fill-rule:nonzero;"/>
            <path d="M665.789,486.262C665.789,487.035 665.511,487.645 664.954,488.09C664.397,488.535 663.623,488.758 662.631,488.758C661.717,488.758 660.908,488.586 660.205,488.242L660.205,486.555C660.783,486.812 661.272,486.994 661.673,487.1C662.073,487.205 662.439,487.258 662.771,487.258C663.17,487.258 663.476,487.182 663.688,487.029C663.901,486.877 664.008,486.65 664.008,486.35C664.008,486.182 663.961,486.032 663.867,485.901C663.773,485.771 663.636,485.645 663.454,485.523C663.272,485.402 662.902,485.209 662.344,484.943C661.82,484.697 661.428,484.461 661.166,484.234C660.904,484.008 660.695,483.744 660.539,483.443C660.383,483.143 660.305,482.791 660.305,482.389C660.305,481.631 660.562,481.035 661.075,480.602C661.589,480.168 662.299,479.951 663.205,479.951C663.65,479.951 664.075,480.004 664.479,480.109C664.884,480.215 665.307,480.363 665.748,480.555L665.162,481.967C664.705,481.779 664.327,481.648 664.028,481.574C663.729,481.5 663.436,481.463 663.146,481.463C662.803,481.463 662.539,481.543 662.355,481.703C662.172,481.863 662.08,482.072 662.08,482.33C662.08,482.49 662.117,482.63 662.191,482.749C662.266,482.868 662.384,482.983 662.546,483.095C662.708,483.206 663.092,483.406 663.697,483.695C664.498,484.078 665.047,484.462 665.344,484.847C665.641,485.231 665.789,485.703 665.789,486.262Z" style="fill-rule:nonzero;"/>
            <path d="M669.961,487.334C670.273,487.334 670.648,487.266 671.086,487.129L671.086,488.459C670.641,488.658 670.094,488.758 669.445,488.758C668.73,488.758 668.21,488.577 667.884,488.216C667.558,487.854 667.395,487.312 667.395,486.59L667.395,483.432L666.539,483.432L666.539,482.676L667.523,482.078L668.039,480.695L669.182,480.695L669.182,482.09L671.016,482.09L671.016,483.432L669.182,483.432L669.182,486.59C669.182,486.844 669.253,487.031 669.396,487.152C669.538,487.273 669.727,487.334 669.961,487.334Z" style="fill-rule:nonzero;"/>
            <path d="M676.066,481.967C676.309,481.967 676.51,481.984 676.67,482.02L676.535,483.695C676.391,483.656 676.215,483.637 676.008,483.637C675.438,483.637 674.993,483.783 674.675,484.076C674.356,484.369 674.197,484.779 674.197,485.307L674.197,488.641L672.41,488.641L672.41,482.09L673.764,482.09L674.027,483.191L674.115,483.191C674.318,482.824 674.593,482.528 674.938,482.304C675.284,482.079 675.66,481.967 676.066,481.967Z" style="fill-rule:nonzero;"/>
            <path d="M677.783,480.396C677.783,479.814 678.107,479.523 678.756,479.523C679.404,479.523 679.729,479.814 679.729,480.396C679.729,480.674 679.647,480.89 679.485,481.044C679.323,481.198 679.08,481.275 678.756,481.275C678.107,481.275 677.783,480.982 677.783,480.396ZM679.646,488.641L677.859,488.641L677.859,482.09L679.646,482.09L679.646,488.641Z" style="fill-rule:nonzero;"/>
            <path d="M685.119,488.758C684.35,488.758 683.746,488.479 683.309,487.92L683.215,487.92C683.277,488.467 683.309,488.783 683.309,488.869L683.309,491.523L681.521,491.523L681.521,482.09L682.975,482.09L683.227,482.939L683.309,482.939C683.727,482.291 684.346,481.967 685.166,481.967C685.939,481.967 686.545,482.266 686.982,482.863C687.42,483.461 687.639,484.291 687.639,485.354C687.639,486.053 687.536,486.66 687.331,487.176C687.126,487.691 686.834,488.084 686.455,488.354C686.076,488.623 685.631,488.758 685.119,488.758ZM684.592,483.396C684.15,483.396 683.828,483.532 683.625,483.804C683.422,484.075 683.316,484.523 683.309,485.148L683.309,485.342C683.309,486.045 683.413,486.549 683.622,486.854C683.831,487.158 684.162,487.311 684.615,487.311C685.416,487.311 685.816,486.65 685.816,485.33C685.816,484.686 685.718,484.202 685.521,483.88C685.323,483.558 685.014,483.396 684.592,483.396Z" style="fill-rule:nonzero;"/>
        </g>
        <g transform="matrix(1,0,0,1,1414.6,-10.6953)">
            <g transform="matrix(2.71534,0,0,2.84781,856.574,490.695)">
                <g transform="matrix(1,0,0,1,-150,-150)">
                    <g transform="matrix(1.48258,0,0,1.54388,-162.61,-436.075)">
                        <g id="Layer12" serif:id="Layer1">
                            <path d="M210.855,302.652C262.958,302.652 305.259,333.952 305.259,372.504C305.259,411.056 262.958,442.356 210.855,442.356C201.496,442.356 192.453,441.346 183.915,439.465C181.009,438.825 141.873,456.573 141.873,456.573C141.873,456.573 169.575,435.375 166.793,434.285C136.863,422.564 116.452,399.284 116.452,372.504C116.452,333.952 158.752,302.652 210.855,302.652Z" style="fill:white;stroke:black;stroke-width:3.6px;"/>
                        </g>
                    </g>
                </g>
            </g>
            <g transform="matrix(7.0339,0,0,7.0339,-3953.81,-2989.4)">
                <path d="M663.548,488.641L663.548,484.75C663.548,483.793 663.308,483.314 662.827,483.314C662.468,483.314 662.216,483.503 662.071,483.88C661.927,484.257 661.854,484.799 661.854,485.506L661.854,488.641L660.296,488.641L660.296,479.523L661.854,479.523L661.854,481.551C661.854,481.812 661.831,482.279 661.784,482.951L661.866,482.951C662.179,482.311 662.659,481.99 663.308,481.99C663.905,481.99 664.356,482.192 664.661,482.597C664.966,483.001 665.118,483.596 665.118,484.381L665.118,488.641L663.548,488.641Z" style="fill-rule:nonzero;"/>
                <path d="M668.786,488.758C667.97,488.758 667.326,488.468 666.855,487.888C666.385,487.308 666.149,486.486 666.149,485.424C666.149,484.346 666.362,483.504 666.788,482.898C667.214,482.293 667.808,481.99 668.569,481.99C669.28,481.99 669.841,482.249 670.251,482.767C670.661,483.284 670.866,484.01 670.866,484.943L670.866,485.775L667.731,485.775C667.743,486.357 667.862,486.79 668.089,487.073C668.315,487.356 668.628,487.498 669.026,487.498C669.534,487.498 670.054,487.34 670.585,487.023L670.585,488.307C670.085,488.607 669.485,488.758 668.786,488.758ZM668.558,483.191C668.335,483.191 668.151,483.31 668.007,483.546C667.862,483.782 667.778,484.148 667.755,484.645L669.337,484.645C669.329,484.168 669.257,483.807 669.12,483.561C668.983,483.314 668.796,483.191 668.558,483.191Z" style="fill-rule:nonzero;"/>
                <path d="M671.235,482.113L672.853,482.113L673.755,485.799C673.845,486.127 673.917,486.586 673.972,487.176L674.007,487.176C674.011,487.082 674.028,486.915 674.06,486.675C674.091,486.435 674.116,486.246 674.136,486.109C674.155,485.973 674.425,484.641 674.944,482.113L676.585,482.113L674.716,489.109C674.489,489.969 674.188,490.586 673.813,490.961C673.438,491.336 672.938,491.523 672.313,491.523C672.005,491.523 671.729,491.49 671.487,491.424L671.487,490.117C671.647,490.164 671.827,490.187 672.026,490.187C672.55,490.187 672.894,489.844 673.058,489.156L673.169,488.746L671.235,482.113Z" style="fill-rule:nonzero;"/>
                <path d="M682.479,487.439C682.698,487.439 682.935,487.385 683.188,487.275L683.188,488.494C682.935,488.67 682.554,488.758 682.046,488.758C681.479,488.758 681.06,488.589 680.786,488.251C680.513,487.913 680.376,487.406 680.376,486.73L680.376,483.35L679.743,483.35L679.743,482.652L680.558,482.09L680.956,480.707L681.952,480.707L681.952,482.113L683.136,482.113L683.136,483.35L681.952,483.35L681.952,486.783C681.952,487.221 682.128,487.439 682.479,487.439Z" style="fill-rule:nonzero;"/>
                <path d="M687.354,488.641L687.354,484.75C687.354,483.793 687.114,483.314 686.634,483.314C686.274,483.314 686.022,483.503 685.878,483.88C685.733,484.257 685.661,484.799 685.661,485.506L685.661,488.641L684.103,488.641L684.103,479.523L685.661,479.523L685.661,481.551C685.661,481.812 685.638,482.279 685.591,482.951L685.673,482.951C685.985,482.311 686.466,481.99 687.114,481.99C687.712,481.99 688.163,482.192 688.468,482.597C688.772,483.001 688.925,483.596 688.925,484.381L688.925,488.641L687.354,488.641Z" style="fill-rule:nonzero;"/>
                <path d="M692.593,488.758C691.776,488.758 691.133,488.468 690.662,487.888C690.191,487.308 689.956,486.486 689.956,485.424C689.956,484.346 690.169,483.504 690.595,482.898C691.021,482.293 691.614,481.99 692.376,481.99C693.087,481.99 693.647,482.249 694.058,482.767C694.468,483.284 694.673,484.01 694.673,484.943L694.673,485.775L691.538,485.775C691.55,486.357 691.669,486.79 691.896,487.073C692.122,487.356 692.435,487.498 692.833,487.498C693.341,487.498 693.86,487.34 694.392,487.023L694.392,488.307C693.892,488.607 693.292,488.758 692.593,488.758ZM692.364,483.191C692.142,483.191 691.958,483.31 691.813,483.546C691.669,483.782 691.585,484.148 691.562,484.645L693.144,484.645C693.136,484.168 693.063,483.807 692.927,483.561C692.79,483.314 692.603,483.191 692.364,483.191Z" style="fill-rule:nonzero;"/>
                <path d="M698.487,481.99C698.679,481.99 698.866,482.02 699.05,482.078L698.868,483.59C698.759,483.551 698.616,483.531 698.44,483.531C698.062,483.531 697.771,483.681 697.567,483.979C697.364,484.278 697.263,484.713 697.263,485.283L697.263,488.641L695.704,488.641L695.704,482.113L696.987,482.113L697.163,483.133L697.216,483.133C697.388,482.723 697.575,482.43 697.778,482.254C697.981,482.078 698.218,481.99 698.487,481.99Z" style="fill-rule:nonzero;"/>
                <path d="M702.155,488.758C701.339,488.758 700.695,488.468 700.225,487.888C699.754,487.308 699.519,486.486 699.519,485.424C699.519,484.346 699.731,483.504 700.157,482.898C700.583,482.293 701.177,481.99 701.938,481.99C702.649,481.99 703.21,482.249 703.62,482.767C704.03,483.284 704.235,484.01 704.235,484.943L704.235,485.775L701.101,485.775C701.112,486.357 701.231,486.79 701.458,487.073C701.685,487.356 701.997,487.498 702.396,487.498C702.903,487.498 703.423,487.34 703.954,487.023L703.954,488.307C703.454,488.607 702.854,488.758 702.155,488.758ZM701.927,483.191C701.704,483.191 701.521,483.31 701.376,483.546C701.231,483.782 701.147,484.148 701.124,484.645L702.706,484.645C702.698,484.168 702.626,483.807 702.489,483.561C702.353,483.314 702.165,483.191 701.927,483.191Z" style="fill-rule:nonzero;"/>
                <path d="M707.124,487.381C706.921,488.17 706.577,489.105 706.093,490.187L704.903,490.187C705.157,489.148 705.354,488.168 705.495,487.246L707.042,487.246L707.124,487.381Z" style="fill-rule:nonzero;"/>
                <path d="M651.873,493.99C652.467,493.99 652.934,494.285 653.273,494.875C653.613,495.465 653.783,496.295 653.783,497.365C653.783,498.447 653.612,499.283 653.271,499.873C652.929,500.463 652.455,500.758 651.85,500.758C651.557,500.758 651.298,500.694 651.073,500.567C650.849,500.44 650.637,500.217 650.438,499.896L650.338,499.896L650.074,500.641L648.926,500.641L648.926,491.523L650.484,491.523L650.484,493.656C650.484,493.746 650.482,493.84 650.479,493.937C650.475,494.035 650.449,494.377 650.402,494.963L650.484,494.963C650.676,494.604 650.883,494.352 651.105,494.207C651.328,494.062 651.584,493.99 651.873,493.99ZM651.334,495.314C651.037,495.314 650.823,495.453 650.692,495.73C650.562,496.008 650.492,496.496 650.484,497.195L650.484,497.354C650.484,498.111 650.552,498.645 650.687,498.953C650.821,499.262 651.041,499.416 651.346,499.416C651.908,499.416 652.189,498.725 652.189,497.342C652.189,495.99 651.904,495.314 651.334,495.314Z" style="fill-rule:nonzero;"/>
                <rect x="654.879" y="491.523" width="1.559" height="9.117" style="fill-rule:nonzero;"/>
                <path d="M660.943,500.641L660.633,499.75L660.598,499.75C660.367,500.133 660.129,500.396 659.883,500.541C659.637,500.686 659.326,500.758 658.951,500.758C658.471,500.758 658.093,500.578 657.817,500.219C657.542,499.859 657.404,499.359 657.404,498.719C657.404,498.031 657.593,497.521 657.97,497.187C658.347,496.853 658.91,496.668 659.66,496.633L660.527,496.598L660.527,496.129C660.527,495.52 660.264,495.215 659.736,495.215C659.346,495.215 658.896,495.367 658.389,495.672L657.85,494.594C658.498,494.184 659.203,493.979 659.965,493.979C660.656,493.979 661.183,494.177 661.544,494.573C661.905,494.97 662.086,495.531 662.086,496.258L662.086,500.641L660.943,500.641ZM659.59,499.539C659.875,499.539 660.103,499.411 660.272,499.155C660.442,498.899 660.527,498.559 660.527,498.133L660.527,497.582L660.047,497.605C659.691,497.625 659.431,497.727 659.265,497.91C659.099,498.094 659.016,498.367 659.016,498.73C659.016,499.27 659.207,499.539 659.59,499.539Z" style="fill-rule:nonzero;"/>
                <path d="M665.502,500.758C664.725,500.758 664.133,500.475 663.727,499.908C663.32,499.342 663.117,498.51 663.117,497.412C663.117,496.264 663.31,495.406 663.694,494.84C664.079,494.273 664.674,493.99 665.479,493.99C665.721,493.99 665.975,494.025 666.24,494.096C666.506,494.166 666.744,494.268 666.955,494.4L666.51,495.613C666.186,495.422 665.898,495.326 665.648,495.326C665.316,495.326 665.077,495.499 664.931,495.845C664.784,496.19 664.711,496.709 664.711,497.4C664.711,498.076 664.783,498.581 664.928,498.915C665.072,499.249 665.309,499.416 665.637,499.416C666.027,499.416 666.436,499.279 666.861,499.006L666.861,500.377C666.451,500.631 665.998,500.758 665.502,500.758Z" style="fill-rule:nonzero;"/>
                <path d="M669.334,497.125L669.727,496.346L671.016,494.113L672.668,494.113L671.016,496.791L672.779,500.641L671.145,500.641L669.967,497.881L669.357,498.432L669.357,500.641L667.799,500.641L667.799,491.523L669.357,491.523L669.357,495.818L669.287,497.125L669.334,497.125Z" style="fill-rule:nonzero;"/>
                <path d="M679.201,493.99C679.393,493.99 679.58,494.02 679.764,494.078L679.582,495.59C679.473,495.551 679.33,495.531 679.154,495.531C678.775,495.531 678.484,495.681 678.281,495.979C678.078,496.278 677.977,496.713 677.977,497.283L677.977,500.641L676.418,500.641L676.418,494.113L677.701,494.113L677.877,495.133L677.93,495.133C678.102,494.723 678.289,494.43 678.492,494.254C678.695,494.078 678.932,493.99 679.201,493.99Z" style="fill-rule:nonzero;"/>
                <path d="M682.869,500.758C682.053,500.758 681.409,500.468 680.938,499.888C680.468,499.308 680.232,498.486 680.232,497.424C680.232,496.346 680.445,495.504 680.871,494.898C681.297,494.293 681.891,493.99 682.652,493.99C683.363,493.99 683.924,494.249 684.334,494.767C684.744,495.284 684.949,496.01 684.949,496.943L684.949,497.775L681.814,497.775C681.826,498.357 681.945,498.79 682.172,499.073C682.398,499.356 682.711,499.498 683.109,499.498C683.617,499.498 684.137,499.34 684.668,499.023L684.668,500.307C684.168,500.607 683.568,500.758 682.869,500.758ZM682.641,495.191C682.418,495.191 682.234,495.31 682.09,495.546C681.945,495.782 681.861,496.148 681.838,496.645L683.42,496.645C683.412,496.168 683.34,495.807 683.203,495.561C683.066,495.314 682.879,495.191 682.641,495.191Z" style="fill-rule:nonzero;"/>
                <path d="M688.137,500.758C687.359,500.758 686.768,500.475 686.361,499.908C685.955,499.342 685.752,498.51 685.752,497.412C685.752,496.264 685.944,495.406 686.329,494.84C686.714,494.273 687.309,493.99 688.113,493.99C688.355,493.99 688.609,494.025 688.875,494.096C689.141,494.166 689.379,494.268 689.59,494.4L689.145,495.613C688.82,495.422 688.533,495.326 688.283,495.326C687.951,495.326 687.712,495.499 687.565,495.845C687.419,496.19 687.346,496.709 687.346,497.4C687.346,498.076 687.418,498.581 687.563,498.915C687.707,499.249 687.943,499.416 688.271,499.416C688.662,499.416 689.07,499.279 689.496,499.006L689.496,500.377C689.086,500.631 688.633,500.758 688.137,500.758Z" style="fill-rule:nonzero;"/>
                <path d="M692.701,499.439C692.92,499.439 693.156,499.385 693.41,499.275L693.41,500.494C693.156,500.67 692.775,500.758 692.268,500.758C691.701,500.758 691.281,500.589 691.008,500.251C690.734,499.913 690.598,499.406 690.598,498.73L690.598,495.35L689.965,495.35L689.965,494.652L690.779,494.09L691.178,492.707L692.174,492.707L692.174,494.113L693.357,494.113L693.357,495.35L692.174,495.35L692.174,498.783C692.174,499.221 692.35,499.439 692.701,499.439Z" style="fill-rule:nonzero;"/>
                <path d="M697.523,500.641L697.213,499.75L697.178,499.75C696.947,500.133 696.709,500.396 696.463,500.541C696.217,500.686 695.906,500.758 695.531,500.758C695.051,500.758 694.673,500.578 694.397,500.219C694.122,499.859 693.984,499.359 693.984,498.719C693.984,498.031 694.173,497.521 694.55,497.187C694.927,496.853 695.49,496.668 696.24,496.633L697.107,496.598L697.107,496.129C697.107,495.52 696.844,495.215 696.316,495.215C695.926,495.215 695.477,495.367 694.969,495.672L694.43,494.594C695.078,494.184 695.783,493.979 696.545,493.979C697.236,493.979 697.763,494.177 698.124,494.573C698.485,494.97 698.666,495.531 698.666,496.258L698.666,500.641L697.523,500.641ZM696.17,499.539C696.455,499.539 696.683,499.411 696.853,499.155C697.022,498.899 697.107,498.559 697.107,498.133L697.107,497.582L696.627,497.605C696.271,497.625 696.011,497.727 695.845,497.91C695.679,498.094 695.596,498.367 695.596,498.73C695.596,499.27 695.787,499.539 696.17,499.539Z" style="fill-rule:nonzero;"/>
                <path d="M703.178,500.641L703.178,496.75C703.178,496.277 703.121,495.92 703.008,495.678C702.895,495.436 702.711,495.314 702.457,495.314C702.121,495.314 701.875,495.481 701.719,495.815C701.563,496.149 701.484,496.713 701.484,497.506L701.484,500.641L699.926,500.641L699.926,494.113L701.162,494.113L701.35,494.951L701.449,494.951C701.59,494.65 701.791,494.415 702.053,494.245C702.314,494.075 702.621,493.99 702.973,493.99C703.566,493.99 704.011,494.193 704.306,494.6C704.601,495.006 704.748,495.6 704.748,496.381L704.748,500.641L703.178,500.641Z" style="fill-rule:nonzero;"/>
                <path d="M710.707,494.125L710.707,495.039L709.928,495.215C710.08,495.488 710.156,495.832 710.156,496.246C710.156,496.937 709.969,497.479 709.594,497.869C709.219,498.26 708.695,498.455 708.023,498.455C707.828,498.455 707.684,498.439 707.59,498.408C707.516,498.475 707.445,498.549 707.379,498.631C707.313,498.713 707.279,498.814 707.279,498.936C707.279,499.209 707.516,499.346 707.988,499.346L708.932,499.346C709.486,499.346 709.913,499.495 710.212,499.794C710.511,500.093 710.66,500.543 710.66,501.145C710.66,501.902 710.406,502.488 709.898,502.902C709.391,503.316 708.66,503.523 707.707,503.523C706.984,503.523 706.428,503.366 706.037,503.052C705.646,502.737 705.451,502.289 705.451,501.707C705.451,501.344 705.563,501.024 705.785,500.749C706.008,500.474 706.316,500.273 706.711,500.148C706.512,500.07 706.349,499.949 706.222,499.785C706.095,499.621 706.031,499.43 706.031,499.211C706.031,499.078 706.051,498.958 706.09,498.851C706.129,498.743 706.185,498.642 706.257,498.546C706.329,498.45 706.477,498.309 706.699,498.121C706.43,497.957 706.217,497.705 706.061,497.365C705.904,497.025 705.826,496.648 705.826,496.234C705.826,495.52 706.014,494.967 706.389,494.576C706.764,494.186 707.301,493.99 708,493.99C708.133,493.99 708.285,494.005 708.457,494.034C708.629,494.063 708.76,494.094 708.85,494.125L710.707,494.125ZM706.869,501.59C706.869,501.848 706.95,502.046 707.112,502.185C707.274,502.323 707.506,502.393 707.807,502.393C708.279,502.393 708.634,502.303 708.87,502.123C709.106,501.943 709.225,501.697 709.225,501.385C709.225,501.139 709.161,500.965 709.034,500.863C708.907,500.762 708.67,500.711 708.322,500.711L707.566,500.711C707.355,500.711 707.187,500.79 707.06,500.948C706.933,501.106 706.869,501.32 706.869,501.59ZM707.35,496.246C707.35,497.016 707.566,497.4 708,497.4C708.422,497.4 708.633,497.012 708.633,496.234C708.633,495.437 708.422,495.039 708,495.039C707.566,495.039 707.35,495.441 707.35,496.246Z" style="fill-rule:nonzero;"/>
                <rect x="711.492" y="491.523" width="1.559" height="9.117" style="fill-rule:nonzero;"/>
                <path d="M716.766,500.758C715.949,500.758 715.306,500.468 714.835,499.888C714.364,499.308 714.129,498.486 714.129,497.424C714.129,496.346 714.342,495.504 714.768,494.898C715.193,494.293 715.787,493.99 716.549,493.99C717.26,493.99 717.82,494.249 718.23,494.767C718.641,495.284 718.846,496.01 718.846,496.943L718.846,497.775L715.711,497.775C715.723,498.357 715.842,498.79 716.068,499.073C716.295,499.356 716.607,499.498 717.006,499.498C717.514,499.498 718.033,499.34 718.564,499.023L718.564,500.307C718.064,500.607 717.465,500.758 716.766,500.758ZM716.537,495.191C716.314,495.191 716.131,495.31 715.986,495.546C715.842,495.782 715.758,496.148 715.734,496.645L717.316,496.645C717.309,496.168 717.236,495.807 717.1,495.561C716.963,495.314 716.775,495.191 716.537,495.191Z" style="fill-rule:nonzero;"/>
            </g>
        </g>
    </g>
    <g transform="matrix(1,0,0,1,-19.1484,-118.739)">
        <g transform="matrix(1,0,0,1,19.3906,0)">
            <g transform="matrix(1,0,0,1,-73.3125,122.918)">
                <rect x="2905.5" y="149.758" width="600" height="1614.65"/>
                <path d="M3505.5,1764.41L2905.5,1764.41L2905.5,149.758L3505.5,149.758L3505.5,1764.41ZM2919.5,163.758L2919.5,1750.41L3491.5,1750.41L3491.5,163.758L2919.5,163.758Z" style="fill:rgb(115,140,136);"/>
            </g>
            <g transform="matrix(7.0339,0,0,7.0339,-1580.36,-2325.54)">
                <path d="M641.121,481.967C641.895,481.967 642.5,482.269 642.938,482.872C643.375,483.476 643.594,484.303 643.594,485.354C643.594,486.436 643.368,487.273 642.917,487.867C642.466,488.461 641.852,488.758 641.074,488.758C640.305,488.758 639.701,488.479 639.264,487.92L639.141,487.92L638.842,488.641L637.477,488.641L637.477,479.523L639.264,479.523L639.264,481.645C639.264,481.914 639.24,482.346 639.193,482.939L639.264,482.939C639.682,482.291 640.301,481.967 641.121,481.967ZM640.547,483.396C640.105,483.396 639.783,483.532 639.58,483.804C639.377,484.075 639.271,484.523 639.264,485.148L639.264,485.342C639.264,486.045 639.368,486.549 639.577,486.854C639.786,487.158 640.117,487.311 640.57,487.311C640.938,487.311 641.229,487.142 641.446,486.804C641.663,486.466 641.771,485.975 641.771,485.33C641.771,484.686 641.662,484.202 641.443,483.88C641.225,483.558 640.926,483.396 640.547,483.396Z" style="fill:white;fill-rule:nonzero;"/>
                <path d="M649.23,488.641L648.885,487.75L648.838,487.75C648.537,488.129 648.228,488.392 647.909,488.538C647.591,488.685 647.176,488.758 646.664,488.758C646.035,488.758 645.54,488.578 645.179,488.219C644.817,487.859 644.637,487.348 644.637,486.684C644.637,485.988 644.88,485.476 645.366,485.146C645.853,484.815 646.586,484.633 647.566,484.598L648.703,484.562L648.703,484.275C648.703,483.611 648.363,483.279 647.684,483.279C647.16,483.279 646.545,483.437 645.838,483.754L645.246,482.547C646,482.152 646.836,481.955 647.754,481.955C648.633,481.955 649.307,482.146 649.775,482.529C650.244,482.912 650.479,483.494 650.479,484.275L650.479,488.641L649.23,488.641ZM648.703,485.605L648.012,485.629C647.492,485.645 647.105,485.738 646.852,485.91C646.598,486.082 646.471,486.344 646.471,486.695C646.471,487.199 646.76,487.451 647.338,487.451C647.752,487.451 648.083,487.332 648.331,487.094C648.579,486.855 648.703,486.539 648.703,486.145L648.703,485.605Z" style="fill:white;fill-rule:nonzero;"/>
                <path d="M654.393,488.758C653.623,488.758 653.019,488.459 652.579,487.861C652.14,487.264 651.92,486.436 651.92,485.377C651.92,484.303 652.144,483.466 652.591,482.866C653.038,482.267 653.654,481.967 654.439,481.967C655.264,481.967 655.893,482.287 656.326,482.928L656.385,482.928C656.295,482.439 656.25,482.004 656.25,481.621L656.25,479.523L658.043,479.523L658.043,488.641L656.672,488.641L656.326,487.791L656.25,487.791C655.844,488.436 655.225,488.758 654.393,488.758ZM655.02,487.334C655.477,487.334 655.812,487.201 656.024,486.936C656.237,486.67 656.354,486.219 656.373,485.582L656.373,485.389C656.373,484.686 656.265,484.182 656.048,483.877C655.831,483.572 655.479,483.42 654.99,483.42C654.592,483.42 654.282,483.589 654.062,483.927C653.841,484.265 653.73,484.756 653.73,485.4C653.73,486.045 653.842,486.528 654.064,486.851C654.287,487.173 654.605,487.334 655.02,487.334Z" style="fill:white;fill-rule:nonzero;"/>
                <path d="M664.482,486.695C664.482,487.367 664.249,487.879 663.782,488.23C663.315,488.582 662.617,488.758 661.688,488.758C661.211,488.758 660.805,488.726 660.469,488.661C660.133,488.597 659.818,488.502 659.525,488.377L659.525,486.9C659.857,487.057 660.231,487.187 660.647,487.293C661.063,487.398 661.43,487.451 661.746,487.451C662.395,487.451 662.719,487.264 662.719,486.889C662.719,486.748 662.676,486.634 662.59,486.546C662.504,486.458 662.355,486.358 662.145,486.247C661.934,486.136 661.652,486.006 661.301,485.857C660.797,485.646 660.427,485.451 660.19,485.271C659.954,485.092 659.782,484.886 659.675,484.653C659.567,484.421 659.514,484.135 659.514,483.795C659.514,483.213 659.739,482.763 660.19,482.444C660.642,482.126 661.281,481.967 662.109,481.967C662.898,481.967 663.666,482.139 664.412,482.482L663.873,483.771C663.545,483.631 663.238,483.516 662.953,483.426C662.668,483.336 662.377,483.291 662.08,483.291C661.553,483.291 661.289,483.434 661.289,483.719C661.289,483.879 661.374,484.018 661.544,484.135C661.714,484.252 662.086,484.426 662.66,484.656C663.172,484.863 663.547,485.057 663.785,485.236C664.023,485.416 664.199,485.623 664.313,485.857C664.426,486.092 664.482,486.371 664.482,486.695Z" style="fill:white;fill-rule:nonzero;"/>
                <path d="M670.447,486.695C670.447,487.367 670.214,487.879 669.747,488.23C669.28,488.582 668.582,488.758 667.652,488.758C667.176,488.758 666.77,488.726 666.434,488.661C666.098,488.597 665.783,488.502 665.49,488.377L665.49,486.9C665.822,487.057 666.196,487.187 666.612,487.293C667.028,487.398 667.395,487.451 667.711,487.451C668.359,487.451 668.684,487.264 668.684,486.889C668.684,486.748 668.641,486.634 668.555,486.546C668.469,486.458 668.32,486.358 668.109,486.247C667.898,486.136 667.617,486.006 667.266,485.857C666.762,485.646 666.392,485.451 666.155,485.271C665.919,485.092 665.747,484.886 665.64,484.653C665.532,484.421 665.479,484.135 665.479,483.795C665.479,483.213 665.704,482.763 666.155,482.444C666.606,482.126 667.246,481.967 668.074,481.967C668.863,481.967 669.631,482.139 670.377,482.482L669.838,483.771C669.51,483.631 669.203,483.516 668.918,483.426C668.633,483.336 668.342,483.291 668.045,483.291C667.518,483.291 667.254,483.434 667.254,483.719C667.254,483.879 667.339,484.018 667.509,484.135C667.679,484.252 668.051,484.426 668.625,484.656C669.137,484.863 669.512,485.057 669.75,485.236C669.988,485.416 670.164,485.623 670.277,485.857C670.391,486.092 670.447,486.371 670.447,486.695Z" style="fill:white;fill-rule:nonzero;"/>
                <rect x="671.842" y="479.523" width="1.787" height="9.117" style="fill:white;fill-rule:nonzero;"/>
                <path d="M675.252,487.803C675.252,487.475 675.34,487.227 675.516,487.059C675.691,486.891 675.947,486.807 676.283,486.807C676.607,486.807 676.858,486.893 677.036,487.064C677.214,487.236 677.303,487.482 677.303,487.803C677.303,488.111 677.213,488.354 677.033,488.532C676.854,488.71 676.604,488.799 676.283,488.799C675.955,488.799 675.701,488.712 675.521,488.538C675.342,488.364 675.252,488.119 675.252,487.803Z" style="fill:white;fill-rule:nonzero;"/>
                <path d="M681.586,488.758C679.547,488.758 678.527,487.639 678.527,485.4C678.527,484.287 678.805,483.437 679.359,482.849C679.914,482.261 680.709,481.967 681.744,481.967C682.502,481.967 683.182,482.115 683.783,482.412L683.256,483.795C682.975,483.682 682.713,483.589 682.471,483.517C682.229,483.444 681.986,483.408 681.744,483.408C680.814,483.408 680.35,484.068 680.35,485.389C680.35,486.67 680.814,487.311 681.744,487.311C682.088,487.311 682.406,487.265 682.699,487.173C682.992,487.081 683.285,486.937 683.578,486.742L683.578,488.271C683.289,488.455 682.997,488.582 682.702,488.652C682.407,488.723 682.035,488.758 681.586,488.758Z" style="fill:white;fill-rule:nonzero;"/>
                <path d="M686.52,485.354C686.52,486.002 686.626,486.492 686.839,486.824C687.052,487.156 687.398,487.322 687.879,487.322C688.355,487.322 688.698,487.157 688.907,486.827C689.116,486.497 689.221,486.006 689.221,485.354C689.221,484.705 689.115,484.219 688.904,483.895C688.693,483.57 688.348,483.408 687.867,483.408C687.391,483.408 687.047,483.569 686.836,483.892C686.625,484.214 686.52,484.701 686.52,485.354ZM691.049,485.354C691.049,486.42 690.768,487.254 690.205,487.855C689.643,488.457 688.859,488.758 687.855,488.758C687.227,488.758 686.672,488.62 686.191,488.345C685.711,488.069 685.342,487.674 685.084,487.158C684.826,486.643 684.697,486.041 684.697,485.354C684.697,484.283 684.977,483.451 685.535,482.857C686.094,482.264 686.879,481.967 687.891,481.967C688.52,481.967 689.074,482.104 689.555,482.377C690.035,482.65 690.404,483.043 690.662,483.555C690.92,484.066 691.049,484.666 691.049,485.354Z" style="fill:white;fill-rule:nonzero;"/>
                <path d="M698.391,488.641L696.604,488.641L696.604,484.814C696.604,484.342 696.524,483.987 696.366,483.751C696.208,483.515 695.959,483.396 695.619,483.396C695.162,483.396 694.83,483.564 694.623,483.9C694.416,484.236 694.313,484.789 694.313,485.559L694.313,488.641L692.525,488.641L692.525,482.09L693.891,482.09L694.131,482.928L694.23,482.928C694.406,482.627 694.66,482.392 694.992,482.222C695.324,482.052 695.705,481.967 696.135,481.967C697.115,481.967 697.779,482.287 698.127,482.928L698.285,482.928C698.461,482.623 698.72,482.387 699.062,482.219C699.403,482.051 699.789,481.967 700.219,481.967C700.961,481.967 701.522,482.157 701.903,482.538C702.284,482.919 702.475,483.529 702.475,484.369L702.475,488.641L700.682,488.641L700.682,484.814C700.682,484.342 700.603,483.987 700.444,483.751C700.286,483.515 700.037,483.396 699.697,483.396C699.26,483.396 698.933,483.553 698.716,483.865C698.499,484.178 698.391,484.674 698.391,485.354L698.391,488.641Z" style="fill:white;fill-rule:nonzero;"/>
            </g>
        </g>
    </g>
    <defs>
        <radialGradient id="_Radial1" cx="0" cy="0" r="1" gradientUnits="userSpaceOnUse" gradientTransform="matrix(343.567,15.3298,-22.5438,504.98,943.189,248.197)"><stop offset="0" style="stop-color:rgb(255,234,0);stop-opacity:1"/><stop offset="0.05" style="stop-color:rgb(255,234,0);stop-opacity:1"/><stop offset="0.12" style="stop-color:rgb(255,222,0);stop-opacity:1"/><stop offset="0.25" style="stop-color:rgb(255,191,0);stop-opacity:1"/><stop offset="0.43" style="stop-color:rgb(255,142,0);stop-opacity:1"/><stop offset="0.77" style="stop-color:rgb(255,39,45);stop-opacity:1"/><stop offset="0.87" style="stop-color:rgb(224,37,90);stop-opacity:1"/><stop offset="0.95" style="stop-color:rgb(204,36,119);stop-opacity:1"/><stop offset="1" style="stop-color:rgb(196,36,130);stop-opacity:1"/></radialGradient>
        <radialGradient id="_Radial2" cx="0" cy="0" r="1" gradientUnits="userSpaceOnUse" gradientTransform="matrix(969.256,0,0,969.256,698.118,195.133)"><stop offset="0" style="stop-color:rgb(0,204,218);stop-opacity:1"/><stop offset="0.22" style="stop-color:rgb(0,131,255);stop-opacity:1"/><stop offset="0.26" style="stop-color:rgb(0,122,249);stop-opacity:1"/><stop offset="0.33" style="stop-color:rgb(0,96,232);stop-opacity:1"/><stop offset="0.33" style="stop-color:rgb(0,95,231);stop-opacity:1"/><stop offset="0.44" style="stop-color:rgb(38,57,173);stop-opacity:1"/><stop offset="0.52" style="stop-color:rgb(64,30,132);stop-opacity:1"/><stop offset="0.57" style="stop-color:rgb(74,20,117);stop-opacity:1"/><stop offset="1" style="stop-color:rgb(74,20,117);stop-opacity:1"/></radialGradient>
        <linearGradient id="_Linear3" x1="0" y1="0" x2="1" y2="0" gradientUnits="userSpaceOnUse" gradientTransform="matrix(-191.438,-626.228,626.228,-191.438,575.669,731.188)"><stop offset="0" style="stop-color:rgb(0,15,67);stop-opacity:0.4"/><stop offset="0.49" style="stop-color:rgb(0,25,98);stop-opacity:0.172549"/><stop offset="1" style="stop-color:rgb(0,32,121);stop-opacity:0"/></linearGradient>
        <radialGradient id="_Radial4" cx="0" cy="0" r="1" gradientUnits="userSpaceOnUse" gradientTransform="matrix(325.334,32.827,-32.827,325.334,1027.72,637.453)"><stop offset="0" style="stop-color:rgb(255,234,0);stop-opacity:1"/><stop offset="0" style="stop-color:rgb(255,234,0);stop-opacity:1"/><stop offset="0.5" style="stop-color:rgb(255,39,45);stop-opacity:1"/><stop offset="1" style="stop-color:rgb(196,36,130);stop-opacity:1"/></radialGradient>
        <radialGradient id="_Radial5" cx="0" cy="0" r="1" gradientUnits="userSpaceOnUse" gradientTransform="matrix(543.281,54.8184,-54.8184,543.281,1029.76,322.526)"><stop offset="0" style="stop-color:rgb(255,233,0);stop-opacity:1"/><stop offset="0" style="stop-color:rgb(255,233,0);stop-opacity:1"/><stop offset="0.16" style="stop-color:rgb(255,175,14);stop-opacity:1"/><stop offset="0.32" style="stop-color:rgb(255,122,27);stop-opacity:1"/><stop offset="0.47" style="stop-color:rgb(255,78,38);stop-opacity:1"/><stop offset="0.62" style="stop-color:rgb(255,44,46);stop-opacity:1"/><stop offset="0.76" style="stop-color:rgb(255,20,52);stop-opacity:1"/><stop offset="0.89" style="stop-color:rgb(255,5,56);stop-opacity:1"/><stop offset="1" style="stop-color:rgb(255,0,57);stop-opacity:1"/></radialGradient>
        <radialGradient id="_Radial6" cx="0" cy="0" r="1" gradientUnits="userSpaceOnUse" gradientTransform="matrix(498.52,50.3018,-50.3018,498.52,1055.78,833.892)"><stop offset="0" style="stop-color:rgb(255,39,45);stop-opacity:1"/><stop offset="0" style="stop-color:rgb(255,39,45);stop-opacity:1"/><stop offset="0.5" style="stop-color:rgb(196,36,130);stop-opacity:1"/><stop offset="0.99" style="stop-color:rgb(98,7,0);stop-opacity:1"/><stop offset="1" style="stop-color:rgb(98,7,0);stop-opacity:1"/></radialGradient>
        <radialGradient id="_Radial7" cx="0" cy="0" r="1" gradientUnits="userSpaceOnUse" gradientTransform="matrix(782.18,0,0,782.18,750.189,396.041)"><stop offset="0" style="stop-color:rgb(255,234,0);stop-opacity:1"/><stop offset="0.16" style="stop-color:rgb(255,234,0);stop-opacity:1"/><stop offset="0.23" style="stop-color:rgb(255,222,0);stop-opacity:1"/><stop offset="0.37" style="stop-color:rgb(255,191,0);stop-opacity:1"/><stop offset="0.54" style="stop-color:rgb(255,142,0);stop-opacity:1"/><stop offset="0.76" style="stop-color:rgb(255,39,45);stop-opacity:1"/><stop offset="0.8" style="stop-color:rgb(249,36,51);stop-opacity:1"/><stop offset="0.84" style="stop-color:rgb(233,28,69);stop-opacity:1"/><stop offset="0.89" style="stop-color:rgb(207,14,98);stop-opacity:1"/><stop offset="0.94" style="stop-color:rgb(181,0,127);stop-opacity:1"/><stop offset="1" style="stop-color:rgb(181,0,127);stop-opacity:1"/></radialGradient>
        <radialGradient id="_Radial8" cx="0" cy="0" r="1" gradientUnits="userSpaceOnUse" gradientTransform="matrix(923.615,0,0,923.615,691.339,3.289)"><stop offset="0" style="stop-color:rgb(255,234,0);stop-opacity:1"/><stop offset="0.28" style="stop-color:rgb(255,234,0);stop-opacity:1"/><stop offset="0.4" style="stop-color:rgb(255,221,0);stop-opacity:1"/><stop offset="0.63" style="stop-color:rgb(255,186,0);stop-opacity:1"/><stop offset="0.86" style="stop-color:rgb(255,145,0);stop-opacity:1"/><stop offset="0.93" style="stop-color:rgb(255,103,17);stop-opacity:1"/><stop offset="0.99" style="stop-color:rgb(255,74,29);stop-opacity:1"/><stop offset="1" style="stop-color:rgb(255,74,29);stop-opacity:1"/></radialGradient>
        <linearGradient id="_Linear9" x1="0" y1="0" x2="1" y2="0" gradientUnits="userSpaceOnUse" gradientTransform="matrix(355.552,-53.3816,53.3816,355.552,214.099,356.871)"><stop offset="0" style="stop-color:rgb(196,36,130);stop-opacity:0.498039"/><stop offset="0.47" style="stop-color:rgb(255,39,45);stop-opacity:0.498039"/><stop offset="0.49" style="stop-color:rgb(255,44,44);stop-opacity:0.509804"/><stop offset="0.68" style="stop-color:rgb(255,122,26);stop-opacity:0.717647"/><stop offset="0.83" style="stop-color:rgb(255,178,13);stop-opacity:0.870588"/><stop offset="0.94" style="stop-color:rgb(255,214,5);stop-opacity:0.960784"/><stop offset="1" style="stop-color:rgb(255,227,2);stop-opacity:1"/></linearGradient>
        <linearGradient id="_Linear10" x1="0" y1="0" x2="1" y2="0" gradientUnits="userSpaceOnUse" gradientTransform="matrix(-40.3144,-144.605,144.605,-40.3144,178.625,261.874)"><stop offset="0" style="stop-color:rgb(137,21,81);stop-opacity:0.6"/><stop offset="1" style="stop-color:rgb(196,36,130);stop-opacity:0"/></linearGradient>
        <linearGradient id="_Linear11" x1="0" y1="0" x2="1" y2="0" gradientUnits="userSpaceOnUse" gradientTransform="matrix(82.9488,115.763,-115.763,82.9488,255.486,470.966)"><stop offset="0" style="stop-color:rgb(137,21,81);stop-opacity:0.498039"/><stop offset="0.01" style="stop-color:rgb(137,21,81);stop-opacity:0.498039"/><stop offset="0.48" style="stop-color:rgb(255,39,45);stop-opacity:0.498039"/><stop offset="1" style="stop-color:rgb(255,39,45);stop-opacity:0"/></linearGradient>
        <linearGradient id="_Linear12" x1="0" y1="0" x2="1" y2="0" gradientUnits="userSpaceOnUse" gradientTransform="matrix(7.54476,-74.4004,74.4004,7.54476,414.081,673.632)"><stop offset="0" style="stop-color:rgb(196,36,130);stop-opacity:1"/><stop offset="0.08" style="stop-color:rgb(196,36,130);stop-opacity:0.807843"/><stop offset="0.21" style="stop-color:rgb(196,36,130);stop-opacity:0.564706"/><stop offset="0.33" style="stop-color:rgb(196,36,130);stop-opacity:0.360784"/><stop offset="0.45" style="stop-color:rgb(196,36,130);stop-opacity:0.203922"/><stop offset="0.56" style="stop-color:rgb(196,36,130);stop-opacity:0.0901961"/><stop offset="0.67" style="stop-color:rgb(196,36,130);stop-opacity:0.0196078"/><stop offset="0.77" style="stop-color:rgb(196,36,130);stop-opacity:0"/><stop offset="1" style="stop-color:rgb(196,36,130);stop-opacity:0"/></linearGradient>
        <linearGradient id="_Linear13" x1="0" y1="0" x2="1" y2="0" gradientUnits="userSpaceOnUse" gradientTransform="matrix(305.656,683.495,-683.495,305.656,655.531,38.12)"><stop offset="0" style="stop-color:rgb(255,241,79);stop-opacity:1"/><stop offset="0.27" style="stop-color:rgb(255,238,76);stop-opacity:1"/><stop offset="0.45" style="stop-color:rgb(255,230,67);stop-opacity:1"/><stop offset="0.61" style="stop-color:rgb(255,216,52);stop-opacity:1"/><stop offset="0.76" style="stop-color:rgb(255,196,30);stop-opacity:1"/><stop offset="0.89" style="stop-color:rgb(255,171,2);stop-opacity:1"/><stop offset="0.9" style="stop-color:rgb(255,169,0);stop-opacity:1"/><stop offset="0.95" style="stop-color:rgb(255,160,0);stop-opacity:1"/><stop offset="1" style="stop-color:rgb(255,145,0);stop-opacity:1"/></linearGradient>
        <linearGradient id="_Linear14" x1="0" y1="0" x2="1" y2="0" gradientUnits="userSpaceOnUse" gradientTransform="matrix(-144.787,388.75,-388.75,-144.787,715.885,431.21)"><stop offset="0" style="stop-color:rgb(255,142,0);stop-opacity:1"/><stop offset="0.04" style="stop-color:rgb(255,142,0);stop-opacity:0.854902"/><stop offset="0.08" style="stop-color:rgb(255,142,0);stop-opacity:0.72549"/><stop offset="0.13" style="stop-color:rgb(255,142,0);stop-opacity:0.627451"/><stop offset="0.18" style="stop-color:rgb(255,142,0);stop-opacity:0.556863"/><stop offset="0.23" style="stop-color:rgb(255,142,0);stop-opacity:0.513725"/><stop offset="0.28" style="stop-color:rgb(255,142,0);stop-opacity:0.498039"/><stop offset="0.39" style="stop-color:rgb(255,142,0);stop-opacity:0.47451"/><stop offset="0.52" style="stop-color:rgb(255,142,0);stop-opacity:0.415686"/><stop offset="0.68" style="stop-color:rgb(255,142,0);stop-opacity:0.313725"/><stop offset="0.84" style="stop-color:rgb(255,142,0);stop-opacity:0.168627"/><stop offset="1" style="stop-color:rgb(255,142,0);stop-opacity:0"/></linearGradient>
        <radialGradient id="_Radial15" cx="0" cy="0" r="1" gradientUnits="userSpaceOnUse" gradientTransform="matrix(417.745,0,0,417.745,436.778,1106.43)"><stop offset="0" style="stop-color:rgb(229,221,0);stop-opacity:1"/><stop offset="1" style="stop-color:rgb(98,93,0);stop-opacity:1"/></radialGradient>
        <radialGradient id="_Radial16" cx="0" cy="0" r="1" gradientUnits="userSpaceOnUse" gradientTransform="matrix(593.812,0,0,593.812,364.983,889.015)"><stop offset="0" style="stop-color:rgb(229,221,0);stop-opacity:1"/><stop offset="1" style="stop-color:rgb(98,93,0);stop-opacity:1"/></radialGradient>
        <radialGradient id="_Radial17" cx="0" cy="0" r="1" gradientUnits="userSpaceOnUse" gradientTransform="matrix(568.661,0,0,568.661,365.718,296.357)"><stop offset="0" style="stop-color:rgb(136,136,136);stop-opacity:1"/><stop offset="1" style="stop-color:black;stop-opacity:1"/></radialGradient>
        <radialGradient id="_Radial18" cx="0" cy="0" r="1" gradientUnits="userSpaceOnUse" gradientTransform="matrix(522.578,0,0,522.578,400.285,470.658)"><stop offset="0" style="stop-color:rgb(255,217,184);stop-opacity:1"/><stop offset="1" style="stop-color:rgb(255,205,158);stop-opacity:1"/></radialGradient>
    </defs>
</svg>
